<svg width="145" height="36" viewBox="0 0 145 36" fill="none" xmlns="http://www.w3.org/2000/svg">
<path d="M40.2842 19.4516C40.2842 15.2244 43.2469 11.8463 47.8064 11.8463C51.3183 11.8463 54.1472 13.7107 55.0795 17.338L51.3737 18.2702C50.9353 16.6227 49.6154 15.6628 47.9172 15.6628C45.7205 15.6628 44.3499 17.3103 44.3499 19.4516C44.3499 21.5652 45.7482 23.2127 47.9172 23.2127C49.6201 23.2127 50.9076 22.2805 51.3506 20.6884L55.0841 21.5929C54.1795 25.1879 51.3229 27.0292 47.811 27.0292C43.2469 27.0292 40.2842 23.6234 40.2842 19.4516V19.4516ZM56.9992 19.4239C56.9992 15.0582 59.9343 11.8463 63.64 11.8463C65.4814 11.8463 66.7966 12.5616 67.6457 13.5492H67.9457V12.2062H71.9514V22.7189C71.9514 23.1019 72.2237 23.3235 72.6113 23.3235H73.1882V26.6738H69.5655C68.6333 26.6738 67.9734 25.9585 67.9734 25.1371H67.6734C66.9027 26.2354 65.7536 27.0292 63.6677 27.0292C59.9666 27.0292 56.9992 23.7619 56.9992 19.4239V19.4239ZM68.0103 19.4516C68.0103 17.0657 66.4182 15.7181 64.5261 15.7181C62.6063 15.7181 61.0696 17.1718 61.0696 19.4516C61.0696 21.7313 62.634 23.185 64.5538 23.185C66.6351 23.185 68.0103 21.4821 68.0103 19.4516ZM75.3941 23.1019H77.9184V9.65421H75.3941V6.08691H81.9288V23.1066H84.4531V26.6738H75.3941V23.1019ZM85.8237 19.4239C85.8237 15.1967 88.6249 11.8463 92.3584 11.8463C94.5827 11.8463 95.7918 12.8339 96.4748 13.6876H96.7748V6.08691H100.781V26.6738H96.7748V25.3309H96.4748C95.7872 26.2354 94.6335 27.0338 92.5753 27.0338C88.8418 27.0292 85.8237 23.7619 85.8237 19.4239ZM96.8302 19.4516C96.8302 17.0657 95.238 15.6628 93.3459 15.6628C91.3985 15.6628 89.8894 17.1718 89.8894 19.4516C89.8894 21.7313 91.4539 23.2404 93.3736 23.2404C95.4596 23.2404 96.8302 21.4821 96.8302 19.4516ZM103.803 12.2062H107.758V14.126H108.03C108.663 12.8892 110.089 11.8463 111.736 11.8463H112.89V15.8289H111.409C109.212 15.8289 107.786 17.1995 107.786 19.89V26.6738H103.808V12.2062H103.803ZM114.127 19.4516C114.127 15.1413 117.339 11.8463 121.838 11.8463C126.365 11.8463 129.522 15.169 129.522 19.4516C129.522 23.7342 126.338 27.0292 121.838 27.0292C117.311 27.0292 114.127 23.7342 114.127 19.4516V19.4516ZM125.461 19.4516C125.461 17.2826 123.979 15.6628 121.838 15.6628C119.697 15.6628 118.188 17.2826 118.188 19.4516C118.188 21.5929 119.697 23.2127 121.838 23.2127C123.979 23.2127 125.461 21.5929 125.461 19.4516ZM132.134 12.2062H136.14V13.5215H136.412C137.072 12.5893 138.253 11.8463 139.924 11.8463C142.97 11.8463 145 14.126 145 16.9503V26.6738H140.994V18.2471C140.994 16.7934 140.007 15.7228 138.609 15.7228C137.155 15.7228 136.14 16.8211 136.14 18.2748V26.6738H132.134V12.2062Z" fill="white"/>
<path d="M17.6985 35.013C8.04884 35.013 0.194336 27.1585 0.194336 17.5042C0.194336 7.84989 8.04884 0 17.6985 0C22.6272 0 27.3575 2.09515 30.6709 5.75013C31.9862 7.1992 31.8754 9.44202 30.4263 10.7573C28.9773 12.0725 26.7344 11.9617 25.4192 10.5127C23.4487 8.33907 20.6336 7.08844 17.6985 7.08844C11.953 7.08844 7.28278 11.7633 7.28278 17.5042C7.28278 23.2451 11.9576 27.92 17.6985 27.92C21.3627 27.92 24.8054 25.9586 26.6745 22.7975C27.6713 21.113 29.8449 20.5546 31.5293 21.5514C33.2137 22.5483 33.7721 24.7219 32.7753 26.4063C29.6372 31.718 23.8594 35.013 17.6985 35.013V35.013Z" fill="white"/>
<path d="M26.5686 22.7144C24.6949 25.8664 21.1969 27.9569 17.2096 27.7954C12.0963 27.5877 7.84605 23.5912 7.3338 18.4964C6.81232 13.3739 10.075 8.85596 14.7038 7.48073C15.9728 7.10231 16.9697 6.09165 17.2327 4.79487C17.8096 1.93365 15.1975 -0.258412 12.6178 0.512271C4.90638 2.80586 -0.566855 10.2266 0.0469227 18.7179C0.697619 27.7446 7.9845 34.7638 17.025 35.073C23.7674 35.3038 29.6698 31.7457 32.8356 26.4063C34.2754 23.9789 32.5356 20.9054 29.7159 20.9054C28.4145 20.9008 27.2285 21.6022 26.5686 22.7144V22.7144Z" fill="#E3FF8E"/>
<path d="M18.2709 22.576C25.1471 22.576 25.1471 12.1279 18.2709 12.1279C11.3902 12.1279 11.3902 22.576 18.2709 22.576V22.576Z" fill="#E3FF8E"/>
</svg>
