<svg width="192" height="42" viewBox="0 0 192 42" fill="none" xmlns="http://www.w3.org/2000/svg">
<g clip-path="url(#clip0_3948_41935)">
<path fill-rule="evenodd" clip-rule="evenodd" d="M11.5846 0.267632L11.2838 0.535035L11.2377 3.79572C11.1919 7.03749 11.1905 7.05767 10.9819 7.2652L10.7722 7.47391L5.56211 7.51976L0.352054 7.56561L0.176027 7.78213C0.00736928 7.98955 0 8.2156 0 13.1738V18.349L0.226136 18.5741L0.45218 18.7992H5.6207C8.96752 18.7992 10.8513 18.7661 10.9653 18.7054C11.3665 18.4916 11.3738 18.4117 11.4219 13.6794C11.4826 7.71554 11.2829 7.92554 14.0932 10.8701C17.8038 14.7581 23.1128 17.5751 28.3247 18.4209C28.6792 18.4785 29.3528 18.5872 29.8214 18.6624C31.1933 18.8827 32.2619 18.8499 32.5796 18.5779L32.8381 18.3566V13.6743C32.8381 9.05431 32.8356 8.98957 32.6464 8.80139C32.447 8.60277 31.4399 8.3451 30.8632 8.3451C29.8965 8.3451 27.2524 7.55029 25.8434 6.83612C23.1383 5.46507 20.8428 3.35791 19.3 0.829493C18.7754 -0.0304029 18.9276 0.000134293 15.1585 0.000134293H11.8854L11.5846 0.267632ZM0.462404 23.3128C0.00460535 23.5552 0.00276332 23.5749 0.00138163 28.4579L0 33.0273L0.269243 33.2952C0.493723 33.5188 0.613744 33.5634 0.990761 33.5634C1.41374 33.5634 1.78109 33.6145 3.03972 33.8492C7.06327 34.5986 10.7321 37.0982 13.2651 40.8158C13.6214 41.3386 14.0053 41.8175 14.1182 41.8799C14.2705 41.9643 15.186 41.9944 17.6667 41.9967L21.01 42L21.236 41.775L21.4622 41.5497V38.4321C21.4622 36.2101 21.4938 35.2453 21.5723 35.0738C21.8034 34.5688 21.7668 34.5721 27.1731 34.5721C32.6134 34.5721 32.561 34.577 32.7814 34.0475C32.8597 33.8588 32.882 32.436 32.8635 28.7723L32.8381 23.7551L32.5829 23.501L32.3273 23.2468L27.288 23.2216C23.6078 23.2031 22.1786 23.2251 21.9892 23.3033C21.4628 23.5202 21.4622 23.5261 21.4622 28.2735C21.4622 32.5336 21.4583 32.6265 21.2712 32.8632C20.9336 33.2905 20.5897 33.2018 19.9924 32.5333C16.3322 28.4368 12.4296 25.8589 7.64534 24.3774C5.68084 23.7689 4.77657 23.6094 1.24352 23.2483C0.864935 23.2096 0.618904 23.23 0.462404 23.3128Z" fill="#E5FE7D"/>
<path fill-rule="evenodd" clip-rule="evenodd" d="M61.0416 8.62624C60.1795 8.93021 55.7437 13.2374 55.2775 14.2229C54.9762 14.8597 54.9565 15.4727 54.953 24.2678L54.9492 33.6345H57.4328H59.9165V23.7169C59.9165 14.025 59.9245 13.7913 60.2591 13.46C60.5929 13.1296 60.8299 13.1209 69.6053 13.1209C75.4842 13.1209 78.724 13.1818 78.9404 13.2964C79.2623 13.4669 79.2717 13.7597 79.2717 23.5533V33.6345H81.7553H84.2389L84.2352 24.2678C84.2317 15.4957 84.2113 14.858 83.9128 14.2229C83.7223 13.8177 82.6038 12.5796 81.1333 11.1462C79.2022 9.26436 78.5246 8.70761 77.987 8.56181C76.8889 8.26377 61.9078 8.32091 61.0416 8.62624ZM90.7478 17.9237V27.4732L91.2508 28.2228C91.9991 29.3378 95.8929 33.0751 96.6193 33.3755C97.1515 33.5958 98.461 33.634 105.344 33.6307C112.858 33.6275 113.493 33.6045 114.128 33.3135C114.544 33.1235 115.763 32.0408 117.225 30.5622C119.197 28.5701 119.666 28.0009 119.795 27.4466C119.883 27.0656 119.932 22.7373 119.906 17.5712L119.86 8.37396H117.465H115.07V18.1841C115.07 27.8521 115.065 28.0006 114.715 28.4408L114.36 28.8876H105.219H96.0768L95.8105 28.5107C95.5764 28.1804 95.5438 26.9218 95.5438 18.2539V8.37396H93.1458H90.7478V17.9237ZM132.723 8.57197C131.954 8.79067 127.379 13.2204 126.89 14.2207C126.566 14.8839 126.546 15.2635 126.546 20.9785C126.546 26.0377 126.589 27.136 126.809 27.6562C127.162 28.4934 131.563 32.9013 132.456 33.3119C133.092 33.6045 133.7 33.6272 140.934 33.6298C146.087 33.6317 148.958 33.5695 149.407 33.4461C150.33 33.1927 154.609 29.0537 155.236 27.8082L155.665 26.956L155.664 21.183C155.663 17.5315 155.594 15.1604 155.475 14.7315C155.218 13.8011 150.248 8.79391 149.332 8.54198C148.53 8.3214 133.509 8.34852 132.723 8.57197ZM168.266 8.62624C167.404 8.93021 162.968 13.2374 162.502 14.2229C162.201 14.8597 162.181 15.4727 162.177 24.2678L162.174 33.6345H164.657H167.141V23.7169C167.141 14.025 167.149 13.7913 167.483 13.46C167.817 13.1296 168.054 13.1209 176.83 13.1209C182.709 13.1209 185.948 13.1818 186.165 13.2964C186.487 13.4669 186.496 13.7597 186.496 23.5533V33.6345H188.98H191.463L191.46 24.2678C191.456 15.4957 191.436 14.858 191.137 14.2229C190.947 13.8177 189.828 12.5796 188.358 11.1462C186.427 9.26436 185.749 8.70761 185.211 8.56181C184.113 8.26377 169.132 8.32091 168.266 8.62624ZM150.246 13.4724L150.697 13.8236V20.9632C150.697 28.0602 150.695 28.1053 150.325 28.4952L149.953 28.8876H141.009C132.46 28.8876 132.047 28.8735 131.661 28.5635L131.257 28.2397L131.206 21.5703C131.177 17.9023 131.201 14.6488 131.258 14.3406C131.315 14.0323 131.511 13.6319 131.694 13.4505C132.016 13.1326 132.341 13.1209 140.911 13.1209C149.639 13.1209 149.803 13.127 150.246 13.4724Z" fill="#E5FE7D"/>
</g>
<defs>
<clipPath id="clip0_3948_41935">
<rect width="191.464" height="42" fill="white"/>
</clipPath>
</defs>
</svg>
