<svg id="Layer_2" xmlns="http://www.w3.org/2000/svg" viewBox="0 0 1200 306.57">
  <defs>
    <style>
      .cls-1{fill:#dfff65;fill-rule:evenodd}
    </style>
  </defs>
  <g id="Layer_1-2">
    <path class="cls-1" d="M139.5.13c-.96.16-4.56.65-8.01 1.08-8.35 1.04-20.55 4.07-29.96 7.44-22.03 7.89-39.5 19.05-56.44 36.03-20.6 20.67-33.65 43.79-40.74 72.19-5.53 22.17-5.8 47.48-.73 70.24 8.57 38.49 31.87 72.23 65.18 94.41 13.71 9.12 34.34 17.95 50.16 21.44 22.74 5.02 50.23 4.79 71.35-.61 32.12-8.21 58.8-24.9 80.9-50.61 17.11-19.91 29.08-45.97 33.76-73.52 1.55-9.15 2.11-30.49 1.07-40.66-4.17-40.51-25.03-78.9-56.52-104.05-16.29-13.01-35.26-22.75-54.97-28.22-14.17-3.94-21.2-4.9-37.98-5.19-8.43-.15-16.11-.13-17.07.03Zm27.56 65.98c4.77 7.39 8.32 11.35 14.93 16.71 10.23 8.29 23.82 14.02 35.53 14.98 8.45.7 7.71-1.61 7.5 23.45l-.18 21.76-6.62-.08c-12.95-.16-29.53-4.54-43.32-11.43-13.21-6.6-24.95-15.59-34.96-26.79-3.97-4.43-5.1-5.31-6.62-5.14l-1.83.21-.35 21.06c-.22 13.49-.61 21.32-1.09 21.8-.5.5-8.39.68-24.38.56l-23.64-.18-.18-23.62c-.13-16.85.04-23.9.61-24.58.64-.77 5.19-.95 23.9-.95 17.05 0 23.33-.22 23.95-.84.6-.6.84-5.04.84-15.55s.24-14.95.84-15.55c.6-.6 5.21-.84 16.34-.84h15.5l3.24 5.02Zm-63.49 99.62c19.68 3.99 38.04 13.22 53.78 27.03 3.49 3.07 8.04 7.64 10.1 10.16 2.89 3.53 4.17 4.58 5.59 4.59 1.04 0 2.02-.47 2.26-1.09.23-.61.42-10.11.42-21.13 0-14.64.22-20.25.84-20.86 1.2-1.2 46.59-1.2 47.79 0 1.2 1.2 1.2 46.63 0 47.83-.62.62-6.89.84-23.89.84s-23.28.22-23.89.84c-.6.6-.84 5.04-.84 15.55s-.24 14.95-.84 15.55c-.94.94-30.29 1.22-31.59.3-.4-.28-2.25-2.82-4.11-5.64-10.41-15.81-28.12-27.37-46.17-30.12-2.98-.46-6.68-1.04-8.21-1.29l-2.79-.46-.18-21.24c-.1-11.68-.02-21.68.19-22.22.51-1.32 11.84-.6 21.53 1.37ZM513.8 88.95c-4.53 1.58-27.87 23.98-30.33 29.1-1.58 3.31-1.69 6.5-1.71 52.23l-.02 48.7h26.13v-51.57c0-50.39.04-51.61 1.8-53.33 1.76-1.72 3-1.76 49.17-1.76 30.93 0 47.98.32 49.12.91 1.69.89 1.74 2.41 1.74 53.33v52.42h26.13l-.02-48.7c-.02-45.61-.13-48.93-1.7-52.23-1-2.11-6.89-8.54-14.62-16-10.16-9.79-13.73-12.68-16.55-13.44-5.78-1.55-84.6-1.25-89.16.33Zm156.3 48.34v49.65l2.65 3.9c3.94 5.8 24.42 25.23 28.24 26.79 2.8 1.15 9.69 1.34 45.91 1.33 39.53-.02 42.87-.14 46.21-1.65 2.19-.99 8.6-6.62 16.3-14.31 10.37-10.36 12.84-13.32 13.52-16.2.46-1.98.72-24.49.59-51.35l-.24-47.82h-25.2v51.01c0 50.27-.03 51.04-1.87 53.33l-1.87 2.32h-96.2l-1.4-1.96c-1.23-1.72-1.4-8.26-1.4-53.33V87.63h-25.23v49.65Zm220.85-48.62c-4.05 1.14-28.12 24.17-30.69 29.37-1.71 3.45-1.81 5.42-1.81 35.14 0 26.3.23 32.02 1.38 34.72 1.86 4.35 25.01 27.27 29.71 29.41 3.35 1.52 6.55 1.64 44.61 1.65 27.11 0 42.22-.31 44.58-.96 4.85-1.32 27.37-22.84 30.66-29.31l2.26-4.43v-30.02c-.01-18.99-.37-31.31-.99-33.54-1.36-4.84-27.51-30.87-32.33-32.18-4.22-1.15-83.25-1.01-87.38.16Zm187 .28c-4.53 1.58-27.87 23.98-30.33 29.1-1.58 3.31-1.68 6.5-1.7 52.23l-.02 48.7h26.13v-51.57c0-50.39.04-51.61 1.8-53.33 1.76-1.72 3.01-1.76 49.18-1.76 30.93 0 47.97.32 49.11.91 1.7.89 1.75 2.41 1.75 53.33v52.42H1200l-.02-48.7c-.02-45.61-.13-48.93-1.7-52.23-1-2.11-6.88-8.54-14.62-16-10.16-9.79-13.73-12.68-16.55-13.44-5.78-1.55-84.6-1.25-89.16.33Zm-94.81 25.2 2.38 1.83v37.12c0 36.9-.01 37.13-1.96 39.16l-1.96 2.04h-47.06c-44.98 0-47.15-.07-49.18-1.68l-2.13-1.68-.27-34.68c-.15-19.07-.03-35.99.27-37.59.3-1.6 1.33-3.68 2.3-4.63 1.69-1.65 3.4-1.71 48.49-1.71s46.78.03 49.11 1.83Z"/>
  </g>
</svg>