<svg width="137" height="35" viewBox="0 0 137 35" fill="none" xmlns="http://www.w3.org/2000/svg">
<path fill-rule="evenodd" clip-rule="evenodd" d="M15.9263 0.0151896C15.817 0.033896 15.4054 0.0893782 15.0117 0.138492C14.0584 0.257417 12.6652 0.603524 11.5919 0.987999C9.07711 1.88893 7.08233 3.16239 5.14871 5.10125C2.79573 7.46064 1.30573 10.1003 0.496427 13.3431C-0.135282 15.8742 -0.165264 18.7636 0.413159 21.3618C1.39138 25.7557 4.05119 29.6083 7.85401 32.1397C9.41885 33.1813 11.775 34.1886 13.5802 34.5876C16.1763 35.1613 19.3151 35.1347 21.7265 34.5185C25.3931 33.5815 28.4397 31.6755 30.9626 28.7402C32.9159 26.4675 34.2826 23.4913 34.8171 20.3469C34.9946 19.3023 35.0585 16.8664 34.9388 15.7047C34.4625 11.0801 32.0816 6.69734 28.4861 3.82587C26.6265 2.34083 24.4606 1.22879 22.2099 0.603524C20.5931 0.154413 19.7909 0.0448013 17.8748 0.0115278C16.9125 -0.00518849 16.0357 -0.00351675 15.9263 0.0151896ZM19.0726 7.54812C19.6177 8.3915 20.022 8.84395 20.7777 9.45625C21.9453 10.4022 23.4968 11.0565 24.8337 11.1666C25.7983 11.2461 25.714 10.9824 25.6898 13.844L25.6688 16.3282L24.9133 16.3186C23.4352 16.2998 21.5423 15.8005 19.9679 15.014C18.4597 14.2606 17.1198 13.2338 15.9764 11.9553C15.5238 11.4491 15.3943 11.3485 15.2209 11.3686L15.0117 11.3929L14.972 13.797C14.9465 15.3369 14.9018 16.2314 14.8476 16.2856C14.7904 16.3427 13.8892 16.3633 12.064 16.3492L9.36509 16.3282L9.34417 13.6312C9.32922 11.7071 9.3491 10.9029 9.41352 10.8252C9.48661 10.737 10.0066 10.7163 12.1424 10.7163C14.0887 10.7163 14.8061 10.6912 14.8765 10.6207C14.9448 10.5524 14.972 10.0459 14.972 8.84562C14.972 7.64539 14.9992 7.13881 15.0674 7.07051C15.1359 7.00197 15.6621 6.97499 16.9326 6.97499H18.7022L19.0726 7.54812ZM11.8244 18.9213C14.0707 19.3773 16.1675 20.4311 17.9641 22.007C18.3631 22.357 18.882 22.8787 19.1172 23.1663C19.4467 23.569 19.5932 23.6894 19.7552 23.6903C19.8742 23.6908 19.9863 23.6367 20.0136 23.5654C20.0402 23.4961 20.0619 22.4108 20.0619 21.1534C20.0619 19.4816 20.0875 18.8418 20.1573 18.7719C20.294 18.6352 25.4765 18.6352 25.6131 18.7719C25.7498 18.9087 25.7498 24.0958 25.6131 24.2326C25.5427 24.303 24.8266 24.3281 22.8852 24.3281C20.9438 24.3281 20.2277 24.3532 20.1573 24.4236C20.0891 24.4919 20.0619 24.9985 20.0619 26.1987C20.0619 27.399 20.0347 27.9056 19.9665 27.9739C19.8597 28.0808 16.5089 28.1129 16.3599 28.0085C16.314 27.9763 16.1031 27.6867 15.8912 27.365C14.7025 25.5598 12.6802 24.2406 10.6203 23.9266C10.2798 23.8747 9.85817 23.8084 9.68321 23.7792L9.36509 23.7261L9.34401 21.3016C9.3324 19.9681 9.34226 18.8266 9.36596 18.7649C9.4237 18.6143 10.7174 18.6965 11.8244 18.9213Z" fill="#DFFF65"/>
<path fill-rule="evenodd" clip-rule="evenodd" d="M58.6594 10.1548C58.1417 10.3352 55.4772 12.892 55.1971 13.477C55.0163 13.855 55.0044 14.2189 55.0023 19.4398L55 25H56.4918H57.9837V19.1127C57.9837 13.3596 57.9884 13.2208 58.1895 13.0242C58.39 12.828 58.5324 12.8229 63.8035 12.8229C67.3348 12.8229 69.2809 12.859 69.4108 12.927C69.6041 13.0283 69.6098 13.2021 69.6098 19.0156V25H71.1016H72.5935L72.5912 19.4398C72.5891 14.2326 72.5768 13.854 72.3976 13.477C72.2832 13.2365 71.6113 12.5016 70.7279 11.6507C69.5681 10.5336 69.161 10.2031 68.8381 10.1165C68.1785 9.93963 59.1798 9.97354 58.6594 10.1548ZM76.5031 15.6738V21.3425L76.8053 21.7876C77.2547 22.4493 79.5936 24.6679 80.03 24.8462C80.3497 24.977 81.1362 24.9997 85.2709 24.9978C89.7839 24.9958 90.1652 24.9821 90.5471 24.8094C90.7966 24.6966 91.5288 24.0539 92.4074 23.1763C93.5915 21.9937 93.8735 21.6557 93.9507 21.3267C94.0037 21.1006 94.0331 18.5312 94.0177 15.4646L93.9902 10.005H92.5516H91.1129V15.8284C91.1129 21.5675 91.1098 21.6556 90.8996 21.917L90.6865 22.1822H85.1953H79.7042L79.5441 21.9584C79.4036 21.7623 79.3839 21.0153 79.3839 15.8699V10.005H77.9435H76.5031V15.6738ZM101.716 10.1226C101.254 10.2524 98.5066 12.882 98.2127 13.4757C98.0179 13.8694 98.0063 14.0947 98.0063 17.4872C98.0063 20.4904 98.0322 21.1424 98.1642 21.4512C98.3764 21.9481 101.02 24.5646 101.556 24.8084C101.938 24.9822 102.303 24.9957 106.649 24.9972C109.744 24.9983 111.468 24.9614 111.738 24.8881C112.292 24.7376 114.863 22.2808 115.239 21.5414L115.497 21.0356L115.496 17.6086C115.496 15.4411 115.454 14.0336 115.383 13.7789C115.229 13.2266 112.243 10.2543 111.693 10.1048C111.211 9.97384 102.188 9.98994 101.716 10.1226ZM123.066 10.1548C122.548 10.3352 119.884 12.892 119.604 13.477C119.423 13.855 119.411 14.2189 119.409 19.4398L119.407 25H120.898H122.39V19.1127C122.39 13.3596 122.395 13.2208 122.596 13.0242C122.797 12.828 122.939 12.8229 128.21 12.8229C131.741 12.8229 133.687 12.859 133.817 12.927C134.011 13.0283 134.016 13.2021 134.016 19.0156V25H135.508H137L136.998 19.4398C136.996 14.2326 136.983 13.854 136.804 13.477C136.69 13.2365 136.018 12.5016 135.134 11.6507C133.975 10.5336 133.568 10.2031 133.245 10.1165C132.585 9.93963 123.586 9.97354 123.066 10.1548ZM112.242 13.0315L112.513 13.24V17.4782C112.513 21.691 112.512 21.7177 112.289 21.9493L112.066 22.1822H106.694C101.558 22.1822 101.311 22.1737 101.079 21.9898L100.836 21.7975L100.805 17.8385C100.788 15.6612 100.802 13.7298 100.836 13.5469C100.871 13.3639 100.989 13.1262 101.099 13.0185C101.292 12.8298 101.487 12.8229 106.635 12.8229C111.878 12.8229 111.976 12.8265 112.242 13.0315Z" fill="#DFFF65"/>
</svg>
