<svg width="137" height="36" fill="none" xmlns="http://www.w3.org/2000/svg">
  <path fill-rule="evenodd" clip-rule="evenodd" d="M15.927 1.013c-.11.018-.52.074-.914.123-.954.12-2.346.465-3.42.85-2.516.9-4.51 2.175-6.444 4.113-2.352 2.36-3.842 5-4.651 8.242-.632 2.531-.663 5.42-.084 8.019.979 4.394 3.639 8.246 7.442 10.779 1.565 1.04 3.92 2.049 5.726 2.447 2.596.573 5.735.547 8.146-.07 3.667-.937 6.713-2.842 9.236-5.777 1.953-2.273 3.32-5.249 3.854-8.394.177-1.044.241-3.48.123-4.642-.477-4.625-2.858-9.008-6.453-11.879a17.747 17.747 0 0 0-6.276-3.222c-1.618-.45-2.42-.56-4.336-.592-.962-.017-1.84-.015-1.949.003Zm3.147 7.533c.544.844.95 1.296 1.704 1.908 1.168.946 2.72 1.6 4.056 1.71.965.08.88-.184.857 2.677l-.02 2.484-.757-.009c-1.478-.018-3.37-.518-4.945-1.305a13.31 13.31 0 0 1-3.992-3.058c-.453-.506-.582-.606-.755-.587l-.21.024-.04 2.404c-.024 1.54-.069 2.434-.124 2.489-.057.057-.958.078-2.783.064l-2.699-.02-.02-2.697c-.015-1.924.004-2.729.07-2.806.072-.088.592-.109 2.728-.109 1.946 0 2.663-.025 2.734-.096.069-.068.096-.575.096-1.775s.027-1.707.096-1.775c.068-.069.595-.096 1.865-.096h1.77l.37.573h-.001Zm-7.249 11.373c2.247.456 4.343 1.51 6.14 3.086.399.35.918.872 1.153 1.16.33.403.476.523.638.524.12 0 .231-.054.258-.124.027-.07.048-1.155.048-2.413 0-1.671.025-2.312.096-2.381.137-.137 5.32-.137 5.456 0 .137.137.137 5.323 0 5.46-.07.071-.786.096-2.727.096-1.941 0-2.658.025-2.728.096-.068.069-.095.576-.095 1.775 0 1.2-.028 1.707-.096 1.776-.108.107-3.459.139-3.607.034-.046-.032-.257-.322-.47-.644-1.188-1.805-3.21-3.125-5.27-3.439-.34-.052-.763-.118-.938-.147l-.318-.052-.02-2.425c-.012-1.334-.003-2.475.021-2.537.058-.15 1.352-.069 2.458.156h.001ZM58.66 11.153c-.517.18-3.182 2.738-3.463 3.323-.18.377-.193.742-.195 5.963L55 25.999h2.983V20.11c0-5.753.004-5.892.205-6.089.201-.196.343-.2 5.614-.2 3.531 0 5.478.036 5.608.103.193.102.198.275.198 6.089v5.985h2.984l-.003-5.56c-.002-5.208-.014-5.587-.194-5.963-.114-.241-.786-.975-1.669-1.827-1.16-1.118-1.567-1.448-1.89-1.534-.66-.177-9.658-.143-10.178.037l.002.001Zm17.844 5.52v5.668l.303.445c.45.662 2.788 2.88 3.224 3.058.32.132 1.106.153 5.241.152 4.513-.002 4.894-.016 5.276-.188.25-.113.982-.756 1.86-1.634 1.185-1.183 1.467-1.52 1.544-1.85.053-.226.082-2.795.068-5.862l-.028-5.46h-2.877v5.824c0 5.74-.003 5.827-.213 6.089l-.214.265H79.705l-.16-.224c-.14-.196-.16-.943-.16-6.089v-5.864h-2.88V16.672Zm25.214-5.552c-.463.13-3.21 2.76-3.504 3.354-.195.393-.207.618-.207 4.011 0 3.003.027 3.656.158 3.964.212.497 2.855 3.114 3.392 3.358.382.173.748.187 5.093.188 3.095 0 4.82-.035 5.089-.11.554-.15 3.125-2.607 3.501-3.346l.258-.505v-3.428c-.001-2.168-.042-3.574-.113-3.829-.156-.552-3.141-3.524-3.691-3.674-.482-.131-9.505-.115-9.976.019v-.002Zm21.349.032c-.517.18-3.182 2.738-3.463 3.323-.18.377-.191.742-.194 5.963l-.002 5.56h2.983V20.11c0-5.753.005-5.892.206-6.089.201-.196.343-.2 5.614-.2 3.532 0 5.477.036 5.607.103.194.102.2.275.2 6.089v5.985h2.983l-.002-5.56c-.003-5.208-.015-5.587-.194-5.963-.114-.241-.786-.975-1.669-1.827-1.16-1.118-1.568-1.448-1.89-1.534-.66-.177-9.658-.143-10.179.037v.001Zm-10.824 2.877.272.21v4.237c0 4.213-.002 4.24-.224 4.47l-.224.234h-5.373c-5.135 0-5.383-.008-5.614-.192l-.244-.192-.03-3.96c-.017-2.176-.004-4.108.03-4.29.035-.183.152-.42.263-.53.193-.188.388-.194 5.536-.194s5.341.003 5.607.208h.001Z" fill="#DFFF65"/>
</svg>