<svg width="32" height="32" viewBox="0 0 32 32" fill="none" xmlns="http://www.w3.org/2000/svg">
<rect width="32" height="32" rx="16" fill="#18181A"/>
<path d="M9.48584 21.1728C9.4938 18.501 9.46992 15.2055 9.51767 12.5336C9.52563 12.0947 9.70868 11.6096 9.97132 11.2324C11.0537 9.69239 13.1389 9.03021 15.0251 9.86179C16.394 10.4624 17.1739 11.4864 17.1978 12.8493C17.2217 14.3893 17.2058 17.6155 17.2137 19.1478C17.2217 19.6328 17.4525 20.0178 17.9618 20.2565C18.9646 20.7185 20.0868 20.141 20.0868 19.1555C20.0948 16.7069 20.0868 13.1881 20.0868 10.7396C20.0868 10.139 20.0868 10.139 20.7633 10.139C21.201 10.139 21.6467 10.1544 22.0844 10.1313C22.4107 10.1159 22.5142 10.2083 22.5142 10.4932C22.4983 11.8252 22.4983 13.1573 22.4983 14.4894C22.4903 14.4894 22.5062 14.4894 22.4983 14.4894C22.4983 15.7906 22.5142 18.1622 22.4903 19.4635C22.4744 20.2103 22.1242 20.8417 21.5273 21.3807C20.5723 22.2431 19.4103 22.6204 18.0414 22.4664C16.959 22.3432 16.1632 21.8042 15.5265 21.065C15.0251 20.4798 14.7943 19.8176 14.7863 19.0939C14.7784 17.5924 14.7943 14.4047 14.7704 12.9109C14.7545 11.9715 13.9268 11.4402 12.8683 11.6558C12.3828 11.7559 11.9053 12.3334 11.9053 12.857C11.8973 14.0043 11.9053 15.7675 11.9053 16.9148C11.9053 18.2931 11.9053 19.679 11.9053 21.0573C11.9053 21.4269 11.8894 21.4346 11.4675 21.4346C10.9184 21.4346 10.3613 21.4269 9.81215 21.4346C9.58134 21.4423 9.48584 21.3807 9.48584 21.1728Z" fill="#DFFF65"/>
</svg>
