<svg width="29" height="31" viewBox="0 0 29 31" fill="none" xmlns="http://www.w3.org/2000/svg">
<path d="M15.3907 30.3066C6.99426 30.3066 0.165039 23.5124 0.165039 15.1533C0.165039 6.79416 6.99426 0 15.3907 0C19.6791 0 23.7871 1.81556 26.6698 4.9786C27.8144 6.23153 27.7194 8.17475 26.4561 9.3142C25.1976 10.4537 23.2457 10.3591 22.1012 9.10144C20.3868 7.21969 17.941 6.13697 15.3859 6.13697C10.3899 6.13697 6.32939 10.1842 6.32939 15.1533C6.32939 20.1225 10.3946 24.1696 15.3859 24.1696C18.5726 24.1696 21.5645 22.4723 23.1887 19.7348C24.0578 18.2785 25.9432 17.7915 27.4107 18.6568C28.8734 19.5173 29.3626 21.399 28.4935 22.86C25.7675 27.4556 20.7429 30.3066 15.3907 30.3066Z" fill="white"/>
<path d="M23.0982 19.6639C21.4692 22.3919 18.4298 24.2028 14.9582 24.0609C10.5083 23.8812 6.81822 20.4203 6.36706 16.0091C5.91589 11.5742 8.75111 7.66414 12.7736 6.47268C13.8754 6.14645 14.7445 5.27176 14.9724 4.1465C15.4759 1.66901 13.201 -0.226922 10.9594 0.439728C4.2632 2.43022 -0.495412 8.85088 0.0412379 16.2029C0.606382 24.0184 6.9417 30.0939 14.8015 30.3586C20.6666 30.5572 25.7957 27.4793 28.5502 22.8553C29.8039 20.7513 28.289 18.0894 25.8337 18.0894C24.7034 18.0942 23.6728 18.6993 23.0982 19.6639Z" fill="#DFFF65"/>
<path d="M15.8843 19.5408C21.8634 19.5408 21.8634 10.4961 15.8843 10.4961C9.90512 10.4961 9.90512 19.5408 15.8843 19.5408Z" fill="#DFFF65"/>
</svg>
