<svg width="24" height="24" viewBox="0 0 24 24" fill="none" xmlns="http://www.w3.org/2000/svg">
<rect width="24" height="24" rx="12" fill="#18181A"/>
<path d="M5.48584 17.1728C5.4938 14.501 5.46992 11.2055 5.51767 8.53362C5.52563 8.09473 5.70868 7.60964 5.97132 7.23235C7.0537 5.69239 9.13887 5.03021 11.0251 5.86179C12.394 6.46237 13.1739 7.48645 13.1978 8.84931C13.2217 10.3893 13.2058 13.6155 13.2137 15.1478C13.2217 15.6328 13.4525 16.0178 13.9618 16.2565C14.9646 16.7185 16.0868 16.141 16.0868 15.1555C16.0948 12.7069 16.0868 9.18811 16.0868 6.73956C16.0868 6.13898 16.0868 6.13898 16.7633 6.13898C17.201 6.13898 17.6467 6.15438 18.0844 6.13128C18.4107 6.11588 18.5142 6.20828 18.5142 6.49317C18.4983 7.82524 18.4983 9.15731 18.4983 10.4894C18.4903 10.4894 18.5062 10.4894 18.4983 10.4894C18.4983 11.7906 18.5142 14.1622 18.4903 15.4635C18.4744 16.2103 18.1242 16.8417 17.5273 17.3807C16.5723 18.2431 15.4103 18.6204 14.0414 18.4664C12.959 18.3432 12.1632 17.8042 11.5265 17.065C11.0251 16.4798 10.7943 15.8176 10.7863 15.0939C10.7784 13.5924 10.7943 10.4047 10.7704 8.91091C10.7545 7.97153 9.92678 7.44025 8.86828 7.65584C8.3828 7.75594 7.90528 8.33343 7.90528 8.85701C7.89732 10.0043 7.90528 11.7675 7.90528 12.9148C7.90528 14.2931 7.90528 15.679 7.90528 17.0573C7.90528 17.4269 7.88936 17.4346 7.46755 17.4346C6.9184 17.4346 6.36129 17.4269 5.81215 17.4346C5.58134 17.4423 5.48584 17.3807 5.48584 17.1728Z" fill="#DFFF65"/>
</svg>
