<svg width="61" height="62" viewBox="0 0 61 62" fill="none" xmlns="http://www.w3.org/2000/svg">
<path d="M0 55.5985C0.0366748 42.8724 -0.0733496 27.1755 0.146699 14.4494C0.183374 12.3589 1.02689 10.0484 2.23716 8.25133C7.22494 0.91637 16.8337 -2.23766 25.5257 1.72322C31.8337 4.58385 35.4279 9.4616 35.5379 15.953C35.6479 23.288 35.5746 38.6548 35.6112 45.953C35.6479 48.2636 36.7115 50.0973 39.0587 51.2342C43.6797 53.4347 48.8509 50.6841 48.8509 45.9897C48.8875 34.3271 48.8509 17.5667 48.8509 5.90415C48.8509 3.04351 48.8509 3.04351 51.9682 3.04351C53.9853 3.04351 56.0391 3.11686 58.0562 3.00683C59.5599 2.93348 60.0367 3.37358 60.0367 4.73055C59.9633 11.0753 60 17.42 60 23.7648C59.9633 23.7648 59.9633 23.7648 59.9266 23.7648C59.9266 29.9628 60 41.2587 59.89 47.4567C59.8166 51.0142 58.2029 54.0215 55.4523 56.5887C51.0513 60.6963 45.6968 62.4934 39.3888 61.7599C34.401 61.1731 30.7335 58.6059 27.7995 55.0851C25.489 52.2978 24.4254 49.1438 24.3888 45.6963C24.3521 38.5447 24.4254 23.3614 24.3154 16.2464C24.2787 11.7721 20.4645 9.24155 15.5868 10.2684C13.3496 10.7452 11.1491 13.4958 11.1491 15.9897C11.1125 21.4543 11.1491 29.8528 11.1491 35.3173C11.1491 41.8821 11.1491 48.4836 11.1491 55.0484C11.1491 56.8088 11.0758 56.8455 9.13203 56.8455C6.60147 56.8455 4.03423 56.8088 1.50367 56.8455C0.440098 56.8821 0 56.5887 0 55.5985Z" fill="#D397F8"/>
</svg>
