<svg width="50" height="52" viewBox="0 0 50 52" fill="none" xmlns="http://www.w3.org/2000/svg">
<g clip-path="url(#clip0_1217_19016)">
<path d="M0 46.3325C0.0305623 35.7273 -0.0611247 22.6466 0.122249 12.0415C0.152812 10.2995 0.855746 8.37403 1.8643 6.87648C6.02078 0.764007 14.0281 -1.86435 21.2714 1.43638C26.5281 3.82024 29.5232 7.88503 29.6149 13.2946C29.7066 19.407 29.6455 32.2127 29.676 38.2946C29.7066 40.22 30.5929 41.7481 32.5489 42.6955C36.3998 44.5293 40.709 42.2371 40.709 38.3251C40.7396 28.6063 40.709 14.6393 40.709 4.92049C40.709 2.53662 40.709 2.53662 43.3068 2.53662C44.9878 2.53662 46.6993 2.59775 48.3802 2.50606C49.6333 2.44494 50.0306 2.81168 50.0306 3.94249C49.9694 9.22978 49.9694 14.5171 49.9694 19.8043C49.9389 19.8043 50 19.8043 49.9694 19.8043C49.9694 24.9694 50.0306 34.3826 49.9389 39.5476C49.8777 42.5122 48.533 45.0183 46.2408 47.1576C42.5734 50.5806 38.1112 52.0782 32.8545 51.4669C28.698 50.9779 25.6418 48.8386 23.1968 45.9046C21.2714 43.5818 20.3851 40.9535 20.3545 38.0806C20.324 32.121 20.3851 19.4682 20.2934 13.5391C20.2323 9.81046 17.0538 7.70166 12.989 8.5574C11.1247 8.95471 9.29095 11.2469 9.29095 13.3251C9.26039 17.8789 9.29095 24.8777 9.29095 29.4315C9.29095 34.9021 9.29095 40.4034 9.29095 45.874C9.29095 47.341 9.22983 47.3716 7.61002 47.3716C5.50122 47.3716 3.36186 47.341 1.25306 47.3716C0.366748 47.4021 0 47.1576 0 46.3325Z" fill="#DFFF65"/>
</g>
<defs>
<clipPath id="clip0_1217_19016">
<rect width="50" height="51.6809" fill="white"/>
</clipPath>
</defs>
</svg>
