<svg width="29" height="30" viewBox="0 0 29 30" fill="none" xmlns="http://www.w3.org/2000/svg">
<g clip-path="url(#clip0_1575_20866)">
<path d="M0 26.7306C0.0177261 20.6122 -0.0354523 13.0656 0.0709044 6.9473C0.088631 5.9423 0.496333 4.83145 1.08129 3.96748C3.49205 0.441049 8.1363 -1.07531 12.3374 0.828957C15.3863 2.20426 17.1235 4.54933 17.1766 7.67024C17.2298 11.1966 17.1944 18.5845 17.2121 22.0933C17.2298 23.2041 17.7439 24.0857 18.8784 24.6323C21.1119 25.6903 23.6112 24.3678 23.6112 22.1109C23.629 16.5039 23.6112 8.44603 23.6112 2.83902C23.6112 1.46371 23.6112 1.46371 25.1179 1.46371C26.0929 1.46371 27.0856 1.49898 28.0605 1.44608C28.7873 1.41082 29.0178 1.6224 29.0178 2.27479C28.9823 5.32515 28.9823 8.37553 28.9823 11.4258C28.9646 11.4258 29 11.4258 28.9823 11.4258C28.9823 14.4057 29.0178 19.8364 28.9646 22.8162C28.9291 24.5265 28.1491 25.9724 26.8197 27.2066C24.6926 29.1814 22.1045 30.0454 19.0556 29.6927C16.6448 29.4106 14.8722 28.1764 13.4541 26.4837C12.3374 25.1436 11.8234 23.6273 11.8056 21.9699C11.7879 18.5316 11.8234 11.2319 11.7702 7.81129C11.7347 5.66016 9.8912 4.44354 7.53362 4.93724C6.45233 5.16645 5.38875 6.48887 5.38875 7.68783C5.37103 10.315 5.38875 14.3528 5.38875 16.98C5.38875 20.1361 5.38875 23.3099 5.38875 26.466C5.38875 27.3124 5.3533 27.33 4.41381 27.33C3.19071 27.33 1.94988 27.3124 0.726775 27.33C0.212714 27.3476 0 27.2066 0 26.7306Z" fill="#DFFF65"/>
</g>
<defs>
<clipPath id="clip0_1575_20866">
<rect width="29" height="30" fill="white"/>
</clipPath>
</defs>
</svg>
