<svg width="24" height="24" viewBox="0 0 24 24" fill="none" xmlns="http://www.w3.org/2000/svg">
<path d="M12.0952 6.07141V6.07141C8.2902 6.07141 6.3877 6.07141 5.21613 7.24298C4.04456 8.41456 4.04456 10.3002 4.04456 14.0714V18.2715C4.04456 19.2143 4.04456 19.6857 4.33745 19.9786C4.63034 20.2715 5.10175 20.2715 6.04456 20.2715H10.3693C14.1284 20.2715 16.008 20.2715 17.1783 19.1068C17.1829 19.1022 17.1876 19.0976 17.1922 19.093C18.3568 17.9226 18.3568 16.0431 18.3568 12.284V12.284" stroke="white"/>
<path d="M8.13379 11.1429L14.2676 11.1429" stroke="white" stroke-linecap="round" stroke-linejoin="round"/>
<path d="M8.13379 15.2001H11.2007" stroke="white" stroke-linecap="round" stroke-linejoin="round"/>
<path d="M15.2899 6.07143L16.6302 7.40122C17.0201 7.78804 17.649 7.78804 18.0388 7.40122L21.4237 4.04285" stroke="white" stroke-linecap="round"/>
</svg>
