<svg width="18" height="18" fill="none" xmlns="http://www.w3.org/2000/svg">
  <g clip-path="url(#a)">
    <path d="M17.61 2.497a1.013 1.013 0 0 0-.6-.255.96.96 0 0 0-.255 0c-.502.098-1.005.24-1.5.375h-.075l-.45.128c-3.57.96-7.5 2.032-12.06 3.285l-.345.075c-.66.135-1.56.322-1.575.997 0 .458.45.645.817.795l.128.053c.532.232 1.095.465 1.642.682.578.233 1.17.48 1.74.75.083.525.113 1.043.15 1.553.034.671.11 1.34.225 2.002v.248c.068.54.128.937.323 1.087a.75.75 0 0 0 .442.158c.269-.01.529-.096.75-.248.398-.277.75-.562 1.096-.855.345-.292.585-.48.892-.697.75.697 1.5 1.395 2.137 2.01l.623.57c.044.051.091.099.143.142.277.338.665.567 1.095.645h.187c.615-.045.877-.847 1.065-1.44.66-2.047 1.29-3.982 1.92-5.932l.157-.48c.398-1.245.803-2.49 1.223-3.75v-.12c.262-.593.51-1.335.105-1.778ZM13.035 15.57a1.44 1.44 0 0 1-.75-.51l-.158-.15-.615-.57c-.75-.653-1.5-1.395-2.25-2.123l-.112-.105-1.763-1.74 7.26-5.512.053-.06a.14.14 0 0 0 0-.053.186.186 0 0 0-.037-.142.203.203 0 0 0-.27-.09l-9 4.5a42.031 42.031 0 0 0-1.815-.75c-.533-.225-1.088-.45-1.62-.683l-.256-.052c-.254-.105-.547-.225-.54-.383 0-.322.75-.48 1.223-.577l.375-.083c4.5-1.23 8.415-2.31 12.053-3.285l.532-.142c.487-.135.982-.278 1.5-.368a.36.36 0 0 1 .128 0c.117.008.229.05.322.12.225.24 0 .87-.128 1.328l-1.342 4.125-2.002 6.187c-.12.39-.353 1.118-.675 1.14l-.113-.022Zm-6.473-1.605.57-3.195 1.598 1.575c-.285.202-.548.42-.863.675-.314.255-.675.562-1.057.825-.076.055-.16.1-.247.135v-.015ZM12.42 5.97l-5.64 4.267-.66 3.75a3.337 3.337 0 0 1-.157-.802c0-.113 0-.203-.038-.27a16.501 16.501 0 0 1-.218-1.95c0-.435-.067-.975-.142-1.5L12.42 5.97Z" fill="#fff"/>
  </g>
  <defs>
    <clipPath id="a">
      <path fill="#fff" transform="translate(.75 2.25)" d="M0 0h17.078v13.785H0z"/>
    </clipPath>
  </defs>
</svg>