<svg width="18" height="18" viewBox="0 0 18 18" fill="none" xmlns="http://www.w3.org/2000/svg">
<path fill-rule="evenodd" clip-rule="evenodd" d="M13.8624 14.8427L13.8629 14.8414L13.8759 14.8087L16.125 3.46944V3.43261C16.125 3.15009 16.0206 2.90344 15.7935 2.7555C15.5946 2.626 15.3661 2.61678 15.2058 2.62894C15.0363 2.64181 14.8764 2.68412 14.7658 2.71934C14.7089 2.73746 14.6612 2.75492 14.6271 2.76813C14.61 2.77475 14.5962 2.78038 14.5861 2.78457L14.5762 2.78873L2.03632 7.70794L2.03287 7.70917C2.0261 7.71164 2.01714 7.71498 2.00633 7.71919C1.98476 7.72759 1.95541 7.7396 1.92092 7.75523C1.85321 7.78592 1.75966 7.83327 1.66478 7.89824C1.50364 8.00859 1.19681 8.26983 1.24862 8.684C1.29153 9.02706 1.52801 9.24493 1.68744 9.35774C1.7729 9.41821 1.85466 9.46181 1.91453 9.49031C1.94487 9.50476 1.97063 9.51582 1.98982 9.52363C1.99945 9.52755 2.00749 9.53068 2.01371 9.53304L2.02168 9.53602L2.02678 9.53791L4.22071 10.2765C4.2133 10.4142 4.22696 10.5545 4.26346 10.693L5.36242 14.8618C5.49273 15.3561 5.9399 15.7004 6.45107 15.7C6.90927 15.6997 7.31564 15.4225 7.48828 15.0089L9.20404 13.1744L12.1508 15.4336L12.1927 15.4518C12.4604 15.5687 12.7105 15.6057 12.9392 15.5744C13.1676 15.5432 13.3491 15.4475 13.4854 15.3384C13.6195 15.2311 13.7115 15.11 13.7693 15.0188C13.7987 14.9724 13.8206 14.9317 13.8357 14.9011C13.8434 14.8857 13.8494 14.8727 13.8539 14.8625L13.8595 14.8494L13.8616 14.8446L13.8624 14.8427ZM5.35126 10.4062C5.32628 10.3115 5.36549 10.2114 5.44821 10.1589L12.8897 5.43324C12.8897 5.43324 13.3274 5.16752 13.3118 5.43324C13.3118 5.43324 13.3899 5.48016 13.1553 5.69896C12.9329 5.90677 7.85158 10.8126 7.33743 11.309C7.30775 11.3376 7.29004 11.3705 7.27958 11.4104L6.45022 14.575L5.35126 10.4062Z" fill="white"/>
</svg>
