<svg width="30" height="30" fill="none" xmlns="http://www.w3.org/2000/svg">
  <path d="M17.813 5h-5.625C8.21 5 6.22 5 4.986 6.255 3.75 7.511 3.75 9.531 3.75 13.571v2.858c0 4.04 0 6.06 1.236 7.316C6.22 25 8.21 25 12.188 25h5.624c3.978 0 5.967 0 7.202-1.255 1.236-1.256 1.236-3.276 1.236-7.316V13.57c0-4.04 0-6.06-1.236-7.316C23.78 5 21.79 5 17.813 5Z" stroke="#fff"/>
  <path d="M8.75 10h3.75" stroke="#fff" stroke-linecap="round"/>
  <path d="M18.75 18v-1c0-.943 0-1.414.293-1.707.293-.293.764-.293 1.707-.293h3.5c.943 0 1.414 0 1.707.293.293.293.293.764.293 1.707v1c0 .943 0 1.414-.293 1.707-.293.293-.764.293-1.707.293h-3.5c-.943 0-1.414 0-1.707-.293-.293-.293-.293-.764-.293-1.707Z" stroke="#fff"/>
</svg>