<svg width="36" height="36" viewBox="0 0 36 36" fill="none" xmlns="http://www.w3.org/2000/svg">
<path d="M18.1429 9.10718H14.0669C10.2957 9.10718 8.41004 9.10718 7.23847 10.2788C6.06689 11.4503 6.06689 13.3359 6.06689 17.1072V28.4073C6.06689 29.3501 6.06689 29.8215 6.35979 30.1144C6.65268 30.4073 7.12409 30.4073 8.06689 30.4073H19.5353C23.3065 30.4073 25.1921 30.4073 26.3637 29.2357C27.5353 28.0642 27.5353 26.1786 27.5353 22.4073V18.426" stroke="#A99DB2"/>
<path d="M12.2007 16.7144L21.4014 16.7144" stroke="#A99DB2" stroke-linecap="round" stroke-linejoin="round"/>
<path d="M12.2007 22.8002H16.8011" stroke="#A99DB2" stroke-linecap="round" stroke-linejoin="round"/>
<path d="M22.9349 9.10721L25.2975 11.4513C25.6874 11.8381 26.3163 11.8381 26.7062 11.4513L32.1357 6.06433" stroke="#A99DB2" stroke-linecap="round"/>
</svg>
