<svg width="20" height="20" viewBox="0 0 20 20" fill="none" xmlns="http://www.w3.org/2000/svg">
<path d="M10.5 9.99982L11.2072 10.7069L11.9143 9.99982L11.2072 9.29272L10.5 9.99982ZM2.20718 19.7069L11.2072 10.7069L9.79296 9.29272L0.792969 18.2927L2.20718 19.7069ZM11.2072 9.29272L2.20718 0.292725L0.79297 1.70692L9.79296 10.7069L11.2072 9.29272Z" fill="white"/>
<path d="M18.5 9.99982L19.2072 10.7069L19.9143 9.99982L19.2072 9.29272L18.5 9.99982ZM10.2072 19.7069L19.2072 10.7069L17.793 9.29272L8.79297 18.2927L10.2072 19.7069ZM19.2072 9.29272L10.2072 0.292725L8.79297 1.70692L17.793 10.7069L19.2072 9.29272Z" fill="white"/>
</svg>
