<svg class="menu-farm" width="30" height="30" fill="none" xmlns="http://www.w3.org/2000/svg">
  <g clip-path="url(#a)" fill="#fff">
    <path d="M15.492 24.487a.494.494 0 0 1-.502.513.511.511 0 0 1-.511-.513v-9.462a.535.535 0 0 1 .511-.513.5.5 0 0 1 .502.513v9.462Z"/>
    <path d="M14.99 20.31h-4.744a5.22 5.22 0 0 1-3.701-1.55A5.255 5.255 0 0 1 5 15.024v-4.76a.505.505 0 0 1 .512-.514h4.734a5.21 5.21 0 0 1 3.731 1.56 5.284 5.284 0 0 1 1.545 3.714v4.791a.534.534 0 0 1-.532.504v-.01Zm-4.744-1.007h4.232v-4.278a4.17 4.17 0 0 0-1.233-3.02 4.242 4.242 0 0 0-3.01-1.258H6.004v4.248c0 1.13.444 2.214 1.234 3.02a4.222 4.222 0 0 0 3.009 1.238v.05Z"/>
    <path d="M15.522 14.512h4.252a4.13 4.13 0 0 0 3.01-1.238 4.258 4.258 0 0 0 1.253-3.02V6.017h-4.263a4.265 4.265 0 0 0-3.009 1.238 4.24 4.24 0 0 0-1.233 3.02l-.01 4.237Zm4.232 1.006H14.99a.531.531 0 0 1-.511-.533v-4.72a5.271 5.271 0 0 1 1.554-3.715A5.224 5.224 0 0 1 19.774 5h4.745a.49.49 0 0 1 .501.503v4.761A5.26 5.26 0 0 1 23.476 14a5.277 5.277 0 0 1-3.702 1.56l-.02-.04Z"/>
  </g>
  <defs>
    <clipPath id="a">
      <path fill="#fff" transform="translate(5 5)" d="M0 0h20v20H0z"/>
    </clipPath>
  </defs>
</svg>