<svg class="u-mr-8" width="24" height="24" viewBox="0 0 24 24" fill="none" xmlns="http://www.w3.org/2000/svg">
<path d="M9.58835 6.94174C9.28398 5.41988 10.448 4 12 4V4C13.552 4 14.716 5.41988 14.4117 6.94174L13.1961 13.0194C13.1627 13.1866 13.1459 13.2703 13.1201 13.3413C12.9952 13.6853 12.6924 13.9336 12.3306 13.9886C12.2558 14 12.1705 14 12 14V14C11.8295 14 11.7442 14 11.6694 13.9886C11.3076 13.9336 11.0048 13.6853 10.8799 13.3413C10.8541 13.2703 10.8373 13.1866 10.8039 13.0194L9.58835 6.94174Z" stroke="white"/>
<circle cx="12" cy="19" r="2" stroke="white"/>
</svg>
