<svg width="24" height="24" viewBox="0 0 24 24" fill="none" xmlns="http://www.w3.org/2000/svg">
<path d="M2.1351 16.9162C2.23869 16.9028 2.33293 16.848 2.39721 16.7635C2.4615 16.6791 2.4906 16.572 2.47814 16.4656C2.31513 15.1204 2.42224 13.7552 2.79288 12.454C3.16352 11.1529 3.78984 9.9435 4.63324 8.90026C5.47664 7.85701 6.51926 7.00207 7.69685 6.38809C8.87444 5.77412 10.1621 5.41412 11.4804 5.33028C12.7987 5.24645 14.1198 5.44055 15.3622 5.90062C16.6046 6.3607 17.7421 7.07701 18.7046 8.00541C19.667 8.93381 20.434 10.0546 20.9583 11.2988C21.4826 12.543 21.7532 13.8842 21.7532 15.2398C21.7528 15.6495 21.7286 16.0588 21.6808 16.4656C21.6679 16.5718 21.6966 16.6789 21.7607 16.7634C21.8247 16.8479 21.9188 16.9029 22.0223 16.9162H22.0711C22.167 16.9165 22.2598 16.8807 22.3317 16.8155C22.4037 16.7503 22.4498 16.6603 22.4613 16.5625C22.5136 16.1231 22.5399 15.6809 22.54 15.2382C22.54 12.3899 21.4375 9.65819 19.475 7.64411C17.5126 5.63003 14.8509 4.49854 12.0755 4.49854C9.3002 4.49854 6.63853 5.63003 4.67606 7.64411C2.71359 9.65819 1.61108 12.3899 1.61108 15.2382C1.61097 15.6809 1.63777 16.1232 1.69134 16.5625C1.69735 16.6158 1.71366 16.6674 1.73933 16.7142C1.765 16.761 1.79951 16.802 1.84083 16.835C1.88216 16.8679 1.92947 16.8921 1.97999 16.906C2.03052 16.9199 2.08325 16.9234 2.1351 16.9162Z" fill="black"/>
<path d="M12.4721 7.39838C12.4723 7.3453 12.4623 7.2927 12.4426 7.24362C12.4229 7.19454 12.3939 7.14994 12.3574 7.11241C12.3208 7.07488 12.2774 7.04515 12.2295 7.02493C12.1817 7.00472 12.1305 6.99442 12.0787 6.99463C9.94786 6.99549 7.9044 7.86417 6.39706 9.40995C4.88971 10.9557 4.04169 13.0522 4.03918 15.2391C4.03918 15.3462 4.08063 15.4489 4.15441 15.5246C4.22819 15.6004 4.32825 15.6429 4.43259 15.6429C4.53692 15.6429 4.63698 15.6004 4.71076 15.5246C4.78454 15.4489 4.82599 15.3462 4.82599 15.2391C4.82682 13.2654 5.59127 11.3728 6.95129 9.97733C8.3113 8.58185 10.1556 7.79771 12.0787 7.79728C12.1823 7.79729 12.2816 7.75542 12.3553 7.68075C12.4289 7.60607 12.4709 7.50462 12.4721 7.39838Z" fill="black"/>
<path d="M16.7632 9.20319C16.6896 9.27915 16.6483 9.38192 16.6483 9.48905C16.6483 9.59618 16.6896 9.69895 16.7632 9.7749C17.4703 10.4873 18.0315 11.3377 18.4136 12.276C18.7957 13.2142 18.9911 14.2215 18.9883 15.2384C18.9883 15.3455 19.0298 15.4482 19.1036 15.5239C19.1773 15.5996 19.2774 15.6421 19.3817 15.6421C19.4861 15.6421 19.5861 15.5996 19.6599 15.5239C19.7337 15.4482 19.7751 15.3455 19.7751 15.2384C19.7779 14.1135 19.5614 12.9993 19.1385 11.9615C18.7156 10.9237 18.0947 9.98311 17.3124 9.19512C17.2379 9.1227 17.1388 9.08301 17.0362 9.08451C16.9336 9.08602 16.8357 9.12861 16.7632 9.20319Z" fill="black"/>
<path d="M23.1066 18.6938H0.893401C0.789065 18.6938 0.688992 18.7364 0.615215 18.8121C0.541438 18.8878 0.5 18.9905 0.5 19.0976C0.5 19.2047 0.541438 19.3074 0.615215 19.3831C0.688992 19.4588 0.789065 19.5013 0.893401 19.5013H23.1066C23.2109 19.5013 23.311 19.4588 23.3848 19.3831C23.4585 19.3074 23.5 19.2047 23.5 19.0976C23.5 18.9905 23.4585 18.8878 23.3848 18.8121C23.311 18.7364 23.2109 18.6938 23.1066 18.6938Z" fill="black"/>
<path d="M10.8781 17.2138C10.9505 17.281 11.0448 17.3179 11.1424 17.3172H11.1865C11.2417 17.3105 11.2949 17.2919 11.3426 17.2627C11.3903 17.2335 11.4315 17.1943 11.4634 17.1476L15.6728 10.9687C15.7048 10.9254 15.728 10.876 15.7409 10.8234C15.7539 10.7707 15.7563 10.7159 15.7482 10.6623C15.74 10.6087 15.7214 10.5572 15.6934 10.5112C15.6655 10.4651 15.6288 10.4252 15.5855 10.3941C15.5422 10.3629 15.4932 10.341 15.4414 10.3297C15.3897 10.3183 15.3363 10.3179 15.2843 10.3282C15.2324 10.3386 15.183 10.3596 15.1392 10.39C15.0954 10.4204 15.058 10.4596 15.0292 10.5052L11.0748 16.3078L8.91735 14.3101C8.87891 14.2745 8.83403 14.2471 8.78527 14.2294C8.73652 14.2117 8.68484 14.204 8.63319 14.2068C8.58153 14.2095 8.53091 14.2227 8.48422 14.2456C8.43753 14.2684 8.3957 14.3005 8.36108 14.34C8.32647 14.3794 8.29976 14.4255 8.28249 14.4755C8.26522 14.5255 8.25772 14.5786 8.26043 14.6316C8.26313 14.6846 8.27598 14.7365 8.29825 14.7845C8.32051 14.8324 8.35176 14.8753 8.39019 14.9108L10.8781 17.2138Z" fill="black"/>
</svg>
