<svg width="37" height="36" viewBox="0 0 37 36" fill="none" xmlns="http://www.w3.org/2000/svg">
<path d="M14.0034 15L19.2615 18.9436C19.68 19.2574 20.2696 19.1957 20.6141 18.8021L30.5034 7.5" stroke="#DFFF65" stroke-linecap="round"/>
<path d="M32.0034 18C32.0034 20.8207 31.1199 23.5706 29.4768 25.8634C27.8338 28.1563 25.5139 29.8769 22.8429 30.7836C20.1718 31.6903 17.2839 31.7375 14.5846 30.9187C11.8853 30.0999 9.5103 28.4561 7.79315 26.2183C6.07599 23.9804 5.10294 21.2609 5.01065 18.4417C4.91835 15.6225 5.71146 12.8452 7.27858 10.4998C8.8457 8.15445 11.1081 6.35887 13.748 5.36527C16.388 4.37167 19.2729 4.22994 21.9975 4.96" stroke="#DFFF65" stroke-linecap="round"/>
</svg>
