<svg width="20" height="20" fill="none" xmlns="http://www.w3.org/2000/svg">
  <g clip-path="url(#a)">
    <path d="m9.5 10-.707-.707-.707.707.707.707L9.5 10ZM17.793.293l-9 9 1.414 1.414 9-9L17.793.293Zm-9 10.414 9 9 1.414-1.414-9-9-1.414 1.414Z" fill="#fff"/>
  </g>
  <g clip-path="url(#b)">
    <path d="m1.5 10-.707-.707L.086 10l.707.707L1.5 10ZM9.793.293l-9 9 1.414 1.414 9-9L9.793.293Zm-9 10.414 9 9 1.414-1.414-9-9-1.414 1.414Z" fill="#fff"/>
  </g>
  <defs>
    <clipPath id="a">
      <path fill="#fff" transform="rotate(-180 10 10)" d="M0 0h12v20H0z"/>
    </clipPath>
    <clipPath id="b">
      <path fill="#fff" transform="rotate(-180 6 10)" d="M0 0h12v20H0z"/>
    </clipPath>
  </defs>
</svg>