<svg width="25" height="18" viewBox="0 0 25 18" fill="none" xmlns="http://www.w3.org/2000/svg">
<path d="M21.9264 2.24898C18.844 -0.0663694 15.9093 0.000196801 15.9093 0.000196801L15.6083 0.359076C19.2492 1.47044 20.9423 3.07672 20.9423 3.07672C18.5008 1.75843 15.7902 1.01597 13.0177 0.906118C10.2452 0.796262 7.48431 1.32192 4.94616 2.44289C4.15605 2.80466 3.6843 3.06225 3.6843 3.06225C3.6843 3.06225 5.44975 1.37204 9.31349 0.257779L9.10222 0.000196801C9.10222 0.000196801 6.16751 -0.0634751 3.0852 2.24898C3.0852 2.24898 0 7.83765 0 14.7316C0 14.7316 1.80018 17.8371 6.53218 17.9847C6.53218 17.9847 7.32229 17.0238 7.9648 16.2076C5.24716 15.4088 4.21972 13.6723 4.21972 13.6723C4.53519 13.8923 5.05325 14.1759 5.08798 14.2049C7.11962 15.3134 9.37253 15.9557 11.6833 16.0854C13.994 16.215 16.3047 15.8287 18.4475 14.9545C19.3139 14.629 20.1402 14.2056 20.9105 13.6926C20.9105 13.6926 19.8396 15.4494 17.0352 16.2395C17.6777 17.0527 18.4475 17.976 18.4475 17.976C23.1795 17.8284 25 14.7229 25 14.7229C25.0087 7.83765 21.9264 2.24898 21.9264 2.24898V2.24898ZM8.50023 12.7404C7.30203 12.7404 6.31801 11.6696 6.31801 10.3643C6.31801 9.059 7.28177 7.98815 8.50023 7.98815C8.8003 7.99891 9.09525 8.06913 9.36799 8.19472C9.64073 8.32032 9.88582 8.4988 10.0891 8.71982C10.2923 8.94084 10.4497 9.2 10.552 9.48228C10.6544 9.76456 10.6997 10.0644 10.6853 10.3643C10.6853 11.6696 9.72157 12.7404 8.50023 12.7404ZM16.3145 12.7404C15.1134 12.7404 14.1294 11.6696 14.1294 10.3643C14.1294 9.059 15.0932 7.98815 16.3145 7.98815C17.5359 7.98815 18.4967 9.059 18.4967 10.3643C18.4967 11.6696 17.5359 12.7404 16.3174 12.7404H16.3145Z" fill="white"/>
</svg>
