<svg width="24" height="24" viewBox="0 0 24 24" fill="none" xmlns="http://www.w3.org/2000/svg">
<g clip-path="url(#clip0_605_9324)">
<path d="M15.8233 21H5.34179C5.25114 21 5.1642 20.9625 5.10011 20.8957C5.03601 20.8288 5 20.7382 5 20.6437V2.35625C5 2.26177 5.03601 2.17115 5.10011 2.10434C5.1642 2.03753 5.25114 2 5.34179 2H15.8233C15.914 2 16.0009 2.03753 16.065 2.10434C16.1291 2.17115 16.1651 2.26177 16.1651 2.35625V20.6437C16.1651 20.7382 16.1291 20.8288 16.065 20.8957C16.0009 20.9625 15.914 21 15.8233 21ZM5.68358 20.2875H15.4815V2.7125H5.68358V20.2875Z" fill="black"/>
<path d="M13.5447 11.5H7.62035C7.52971 11.5 7.44277 11.4625 7.37867 11.3957C7.31457 11.3288 7.27856 11.2382 7.27856 11.1437V4.73125C7.27856 4.63677 7.31457 4.54615 7.37867 4.47934C7.44277 4.41253 7.52971 4.375 7.62035 4.375H13.5447C13.6354 4.375 13.7223 4.41253 13.7864 4.47934C13.8505 4.54615 13.8865 4.63677 13.8865 4.73125V11.1437C13.8865 11.2382 13.8505 11.3288 13.7864 11.3957C13.7223 11.4625 13.6354 11.5 13.5447 11.5ZM7.96214 10.7875H13.2029V5.0875H7.96214V10.7875Z" fill="black"/>
<path d="M8.53173 14.9441C8.44108 14.9441 8.35415 14.9066 8.29005 14.8398C8.22595 14.773 8.18994 14.6824 8.18994 14.5879V13.1629C8.18994 13.0684 8.22595 12.9778 8.29005 12.911C8.35415 12.8442 8.44108 12.8066 8.53173 12.8066C8.62238 12.8066 8.70932 12.8442 8.77341 12.911C8.83751 12.9778 8.87352 13.0684 8.87352 13.1629V14.5879C8.87352 14.6824 8.83751 14.773 8.77341 14.8398C8.70932 14.9066 8.62238 14.9441 8.53173 14.9441Z" fill="black"/>
<path d="M10.5825 14.9441C10.4919 14.9441 10.4049 14.9066 10.3408 14.8398C10.2767 14.773 10.2407 14.6824 10.2407 14.5879V13.1629C10.2407 13.0684 10.2767 12.9778 10.3408 12.911C10.4049 12.8442 10.4919 12.8066 10.5825 12.8066C10.6732 12.8066 10.7601 12.8442 10.8242 12.911C10.8883 12.9778 10.9243 13.0684 10.9243 13.1629V14.5879C10.9243 14.6824 10.8883 14.773 10.8242 14.8398C10.7601 14.9066 10.6732 14.9441 10.5825 14.9441Z" fill="black"/>
<path d="M12.6333 14.9441C12.5426 14.9441 12.4557 14.9066 12.3916 14.8398C12.3275 14.773 12.2915 14.6824 12.2915 14.5879V13.1629C12.2915 13.0684 12.3275 12.9778 12.3916 12.911C12.4557 12.8442 12.5426 12.8066 12.6333 12.8066C12.7239 12.8066 12.8109 12.8442 12.875 12.911C12.9391 12.9778 12.9751 13.0684 12.9751 13.1629V14.5879C12.9751 14.6824 12.9391 14.773 12.875 14.8398C12.8109 14.9066 12.7239 14.9441 12.6333 14.9441Z" fill="black"/>
<path d="M17.6462 16.8438C17.5556 16.8438 17.4686 16.8062 17.4045 16.7394C17.3405 16.6726 17.3044 16.582 17.3044 16.4875V6.5125C17.3044 6.41802 17.3405 6.3274 17.4045 6.26059C17.4686 6.19378 17.5556 6.15625 17.6462 6.15625C17.7369 6.15625 17.8238 6.19378 17.8879 6.26059C17.952 6.3274 17.988 6.41802 17.988 6.5125V16.4875C17.988 16.582 17.952 16.6726 17.8879 16.7394C17.8238 16.8062 17.7369 16.8438 17.6462 16.8438Z" fill="black"/>
<path d="M17.6462 6.63089C17.5556 6.63055 17.4688 6.593 17.4046 6.52639C17.3727 6.49348 17.3473 6.45428 17.33 6.41106C17.3126 6.36785 17.3037 6.32148 17.3037 6.27464C17.3037 6.22781 17.3126 6.18144 17.33 6.13822C17.3473 6.09501 17.3727 6.05581 17.4046 6.0229L18.8675 4.49815C18.8988 4.46315 18.9365 4.43507 18.9784 4.4156C19.0204 4.39612 19.0656 4.38567 19.1115 4.38482C19.1574 4.38398 19.203 4.39276 19.2455 4.41068C19.2881 4.4286 19.3268 4.45528 19.3592 4.4891C19.3917 4.52293 19.4173 4.56323 19.4345 4.60759C19.4516 4.65195 19.4601 4.69946 19.4593 4.74729C19.4585 4.79512 19.4484 4.8423 19.4297 4.886C19.4111 4.9297 19.3841 4.96903 19.3505 5.00165L17.8877 6.52639C17.8235 6.593 17.7367 6.63055 17.6462 6.63089Z" fill="black"/>
<path d="M17.988 11.4595C17.8974 11.4595 17.8104 11.422 17.7463 11.3552C17.6822 11.2883 17.6462 11.1977 17.6462 11.1032C17.6462 11.0088 17.6822 10.9181 17.7463 10.8513C17.8104 10.7845 17.8974 10.747 17.988 10.747C18.5896 10.747 19.3187 10.2364 19.3187 9.59986C19.3187 8.96336 18.5896 8.45273 17.988 8.45273C17.8974 8.45273 17.8104 8.4152 17.7463 8.34839C17.6822 8.28158 17.6462 8.19097 17.6462 8.09648C17.6462 8.002 17.6822 7.91139 17.7463 7.84458C17.8104 7.77777 17.8974 7.74023 17.988 7.74023C18.9382 7.74023 20.0023 8.53586 20.0023 9.59986C20.0023 10.6639 18.9359 11.4595 17.988 11.4595Z" fill="black"/>
</g>
<defs>
<clipPath id="clip0_605_9324">
<rect width="15" height="19" fill="white" transform="translate(5 2)"/>
</clipPath>
</defs>
</svg>
