<svg width="36" height="36" viewBox="0 0 36 36" fill="none" xmlns="http://www.w3.org/2000/svg">
<g clip-path="url(#clip0_372_6425)">
<path d="M13.5601 26.7H21.8701L17.7151 20.835L13.5601 26.7Z" fill="#A99DB2"/>
<path d="M3.495 19.77H32.13" stroke="#A99DB2" stroke-width="0.66" stroke-miterlimit="10" stroke-linecap="round"/>
<path d="M8.67005 18.285C9.59037 18.2879 10.4909 18.0177 11.2575 17.5086C12.0242 16.9995 12.6225 16.2743 12.9768 15.4249C13.331 14.5755 13.4253 13.64 13.2475 12.737C13.0698 11.834 12.6281 11.0041 11.9784 10.3522C11.3287 9.70043 10.5002 9.25609 9.59776 9.07545C8.69534 8.89481 7.75961 8.98597 6.90906 9.33747C6.05851 9.68898 5.33139 10.285 4.81978 11.05C4.30817 11.815 4.03506 12.7146 4.03506 13.635C4.03308 14.2449 4.15151 14.8492 4.38355 15.4133C4.6156 15.9774 4.9567 16.4901 5.38729 16.9221C5.81789 17.3541 6.32951 17.6968 6.89283 17.9307C7.45616 18.1646 8.06011 18.285 8.67005 18.285ZM8.67005 10.2299C9.3471 10.2299 10.0089 10.4309 10.5716 10.8074C11.1344 11.1839 11.5727 11.7189 11.8311 12.3447C12.0895 12.9705 12.1564 13.6589 12.0232 14.3227C11.89 14.9865 11.5628 15.5959 11.083 16.0736C10.6032 16.5513 9.99242 16.8758 9.32802 17.0061C8.66362 17.1363 7.9755 17.0664 7.35085 16.8053C6.72619 16.5441 6.19311 16.1035 5.81912 15.5391C5.44514 14.9747 5.24709 14.312 5.25005 13.635C5.25402 12.7305 5.6161 11.8645 6.25704 11.2263C6.89799 10.5882 7.76561 10.2299 8.67005 10.2299Z" fill="#A99DB2"/>
<path d="M26.76 18.285C27.6803 18.2879 28.5808 18.0177 29.3475 17.5086C30.1141 16.9995 30.7125 16.2743 31.0667 15.4249C31.421 14.5755 31.5152 13.64 31.3375 12.737C31.1597 11.834 30.7181 11.0041 30.0683 10.3522C29.4186 9.70043 28.5901 9.25609 27.6877 9.07545C26.7853 8.89481 25.8496 8.98597 24.999 9.33747C24.1484 9.68898 23.4213 10.285 22.9097 11.05C22.3981 11.815 22.125 12.7146 22.125 13.635C22.125 14.8656 22.6128 16.0461 23.4817 16.9177C24.3505 17.7893 25.5293 18.281 26.76 18.285ZM26.76 10.2299C27.437 10.2299 28.0989 10.4309 28.6616 10.8074C29.2243 11.1839 29.6627 11.7189 29.9211 12.3447C30.1795 12.9705 30.2463 13.6589 30.1131 14.3227C29.98 14.9865 29.6527 15.5959 29.1729 16.0736C28.6931 16.5513 28.0824 16.8758 27.418 17.0061C26.7536 17.1363 26.0654 17.0664 25.4408 16.8053C24.8161 16.5441 24.2831 16.1035 23.9091 15.5391C23.5351 14.9747 23.337 14.312 23.34 13.635C23.34 13.1865 23.4285 12.7426 23.6006 12.3285C23.7727 11.9144 24.0248 11.5383 24.3426 11.222C24.6604 10.9056 25.0375 10.655 25.4523 10.4848C25.8672 10.3146 26.3116 10.228 26.76 10.2299Z" fill="#A99DB2"/>
</g>
<defs>
<clipPath id="clip0_372_6425">
<rect width="29.625" height="17.7" fill="white" transform="translate(3 9)"/>
</clipPath>
</defs>
</svg>
