<svg width="82" height="94" fill="none" xmlns="http://www.w3.org/2000/svg">
  <g clip-path="url(#a)" fill="#fff">
    <path d="M81.415 17.83a2.16 2.16 0 0 0-.07-.24c0-.1-.05-.21-.09-.31-.04-.1-.1-.17-.14-.26a1.892 1.892 0 0 0-.14-.24 2.122 2.122 0 0 0-.27-.34.804.804 0 0 0-.09-.1L65.155.89l-.11-.09-.33-.27-.22-.12c-.1 0-.19-.11-.29-.15l-.27-.08a2.288 2.288 0 0 0-.28-.09 2.45 2.45 0 0 0-.48 0h-59.7a2.93 2.93 0 0 0-2.93 2.92V86.4a2.92 2.92 0 0 0 .86 2.07l4.45 4.45a2.93 2.93 0 0 0 4.14 0l9-9 9 9a2.92 2.92 0 0 0 4.13 0l9-9 9 9a2.93 2.93 0 0 0 4.14 0l9-9 9 9a2.92 2.92 0 0 0 4.13 0l4.44-4.44a2.91 2.91 0 0 0 .87-2.08V18.5a2.782 2.782 0 0 0-.29-.67Zm-2.86.58h-15.49V2.92l15.49 15.49Zm0 67.9-4.46 4.42-11-11-11 11-11-11-11 11-11-11-11 11-4.45-4.45V2.92h56.69v15.49a2.92 2.92 0 0 0 2.92 2.92h15.49l-.19 64.98Z"/>
    <path d="m22.525 35.25 4.44-4.44 4.44 4.44 2.07-2.07-4.44-4.44 4.44-4.44-2.07-2.07-4.44 4.44-4.44-4.44-2.07 2.07 4.44 4.44-4.44 4.44 2.07 2.07ZM50.595 35.25l4.44-4.44 4.44 4.44 2.07-2.07-4.44-4.44 4.44-4.44-2.07-2.07-4.44 4.44-4.44-4.44-2.07 2.07 4.44 4.44-4.44 4.44 2.07 2.07ZM50.975 45.86h-31.94a1.46 1.46 0 1 0 0 2.92h30.47v4.54a7.47 7.47 0 0 0 14.93 0v-7.46h-13.46Zm10.53 7.46a4.54 4.54 0 0 1-9.07 0v-4.54h3.07v2.6a1.471 1.471 0 1 0 2.93 0v-2.6h3.07v4.54Z"/>
  </g>
  <defs>
    <clipPath id="a">
      <path fill="#fff" transform="translate(.525)" d="M0 0h80.95v93.69H0z"/>
    </clipPath>
  </defs>
</svg>