<svg width="25" height="24" fill="none" xmlns="http://www.w3.org/2000/svg">
  <path fill-rule="evenodd" clip-rule="evenodd" d="M8.25 7.5a4.25 4.25 0 1 1 8.5 0 4.25 4.25 0 0 1-8.5 0Zm4.25-2.75a2.75 2.75 0 1 0 0 5.5 2.75 2.75 0 0 0 0-5.5ZM8.5 14.75A2.25 2.25 0 0 0 6.25 17v1.188c0 .018.013.034.031.037 4.119.672 8.32.672 12.438 0a.037.037 0 0 0 .031-.037V17a2.25 2.25 0 0 0-2.25-2.25h-.34a.253.253 0 0 0-.079.012l-.865.283a8.751 8.751 0 0 1-5.432 0l-.866-.283a.252.252 0 0 0-.077-.012H8.5ZM4.75 17a3.75 3.75 0 0 1 3.75-3.75h.34c.185 0 .369.03.544.086l.866.283a7.251 7.251 0 0 0 4.5 0l.866-.283c.175-.057.359-.086.543-.086h.341A3.75 3.75 0 0 1 20.25 17v1.188c0 .754-.546 1.396-1.29 1.517a40.095 40.095 0 0 1-12.92 0 1.537 1.537 0 0 1-1.29-1.517V17Z" fill="#DFFF65"/>
</svg>