<svg width="18" height="18" fill="none" xmlns="http://www.w3.org/2000/svg">
  <path d="M17.82 3.524a7.32 7.32 0 0 1-2.079.573 3.64 3.64 0 0 0 1.593-2.004 7.15 7.15 0 0 1-2.299.879 3.626 3.626 0 0 0-2.642-1.149c-2 0-3.618 1.622-3.618 3.622 0 .284.03.561.094.826a10.268 10.268 0 0 1-7.467-3.787A3.63 3.63 0 0 0 2.524 7.32 3.54 3.54 0 0 1 .886 6.87v.045a3.623 3.623 0 0 0 2.905 3.551 3.621 3.621 0 0 1-1.635.061 3.624 3.624 0 0 0 3.383 2.517 7.252 7.252 0 0 1-5.36 1.499 10.124 10.124 0 0 0 5.54 1.638c6.661 0 10.306-5.52 10.306-10.31 0-.157-.003-.314-.01-.468a7.462 7.462 0 0 0 1.805-1.878Zm-2.16 1.39-.261.19.014.323c.008.142.011.291.011.44 0 1.13-.221 2.31-.635 3.42a10.052 10.052 0 0 1-1.869 3.133 9.148 9.148 0 0 1-3.03 2.273c-1.264.587-2.667.882-4.17.882-1.08 0-2.145-.18-3.159-.53a7.8 7.8 0 0 0 3.334-1.528l1.32-1.036-1.678-.03a3.012 3.012 0 0 1-2.403-1.268c.273-.018.542-.066.803-.138l2.27-.756-2.308-.407a3.023 3.023 0 0 1-2.292-2.086c.292.075.576.104.893.124 0 0 1.188.052 2.086-.004-.486-.232-1.735-1.09-1.735-1.09a3.03 3.03 0 0 1-1.263-3.232A10.814 10.814 0 0 0 4.396 5.67 10.75 10.75 0 0 0 8.829 6.86l.792.042-.18-.774a3.027 3.027 0 0 1 2.945-3.708c.833 0 1.638.347 2.205.957l.228.243.326-.063c.168-.034.333-.07.497-.115a4.125 4.125 0 0 1-.41.403c-.168.15-.666.618-.666.618s.486.153.788.187c.302.034.65-.022.707-.03a7.41 7.41 0 0 1-.401.293Z" fill="#fff"/>
</svg>