<svg width="36" height="36" fill="none" xmlns="http://www.w3.org/2000/svg">
  <path d="M21.18 4.801h-.5v.025l.003.025.497-.05Zm0 0h.5v-.025l-.002-.025-.498.05Zm.074.738-.498.05.498-.05Zm3.256 1.349.317.387-.317-.387Zm.574-.47-.316-.387.316.387Zm2.681.134-.354.353.354-.353Zm1.683 1.683.354-.354-.354.354Zm.932 1.297.499-.025-.5.025Zm-.798 1.384-.387-.317.387.317Zm-.47.574.387.316-.387-.316Zm1.349 3.256-.05.498.05-.498Zm.738.074.05-.498-.05.498Zm1.543.414.37-.335-.37.335Zm0 5.532.37.336-.37-.336Zm-1.543.414v.5h.025l.025-.002-.05-.498Zm0 0v-.5h-.025l-.025.003.05.497Zm-.737.074-.05-.498.05.498Zm-1.35 3.256.388-.316-.387.316Zm.47.574-.387.316.387-.316Zm.798 1.383.499.025-.5-.025Zm-3.912 3.912.025.5-.025-.5Zm-1.384-.798.317-.387-.317.387Zm-.573-.47-.317.387.317-.387Zm-3.257 1.35-.498-.05.498.05Zm-.074.738-.497-.05-.003.025v.025h.5Zm0 0 .498.05.002-.025v-.025h-.5Zm-.414 1.543.336.37-.336-.37Zm-5.532 0-.335.37.335-.37Zm-.414-1.543-.498.05.498-.05Zm-.074-.738-.497.05.497-.05Zm-.798-2.68.192-.461-.192.462Zm-2.458 1.331.316.387-.316-.387Zm-.575.47-.316-.387.316.387Zm-1.383.798-.025.499.025-.5Zm-1.297-.932-.354.354.354-.354Zm-1.683-1.683.353-.353-.353.353Zm-.134-2.68.387.316-.387-.317Zm.47-.575-.387-.316.387.316Zm-1.35-3.256.05-.498-.05.498Zm-.737-.074.05-.497-.025-.003H4.8v.5Zm0 0-.05.498.025.002h.025v-.5Zm-1.542-.414.37-.335-.37.335Zm0-5.532-.371-.335.37.335ZM4.8 14.82l-.05-.498.05.498Zm.738-.074-.05-.498.05.498Zm1.35-3.257.386-.316-.387.316Zm-.47-.574-.388.317.387-.317Zm.133-2.68.353.353-.353-.354ZM8.235 6.55l-.354-.353.354.353Zm2.68-.133.317-.387-.316.387Zm.575.47-.317.386.317-.387Zm3.256-1.35-.497-.05.497.05Zm.074-.737-.498-.05.498.05Zm.414-1.542-.335-.371.335.37Zm5.532 0-.335.37.335-.37ZM21.68 4.8h-1 1Zm.071.688-.073-.738-.995.1.073.738.995-.1Zm.492 2.267c-.051-.021-.153-.08-.251-.473-.1-.392-.157-.96-.24-1.794l-.996.1c.08.8.145 1.457.266 1.938.121.482.337.945.838 1.153l.383-.924Zm1.95-1.255c-.648.53-1.09.89-1.438 1.099-.346.207-.46.177-.512.156l-.383.924c.502.208.982.033 1.409-.222.426-.255.936-.674 1.558-1.183l-.633-.774Zm.575-.47-.574.47.633.774.574-.47-.633-.774Zm1.725-.91c-.334-.017-.616.1-.876.263-.248.154-.527.383-.85.647l.634.774c.343-.28.564-.46.745-.573.169-.105.246-.115.297-.112l.05-.999Zm1.626 1.077c-.295-.294-.55-.55-.78-.729-.244-.187-.513-.331-.846-.348l-.05.999c.051.002.127.02.284.141.169.13.37.33.684.644l.708-.707Zm1.683 1.683-1.683-1.683-.707.707 1.683 1.683.707-.707Zm1.077 1.626c-.017-.333-.161-.602-.349-.845-.178-.232-.434-.486-.728-.78l-.707.706c.313.314.514.516.644.685.121.157.139.233.141.284l.999-.05Zm-.91 1.725c.264-.322.493-.6.647-.849.163-.26.28-.542.263-.876l-.999.05c.003.051-.007.128-.112.297-.113.18-.292.402-.573.745l.774.633Zm-.47.574.47-.574-.774-.633-.47.574.774.633Zm-1.255 1.95c-.022-.05-.051-.165.156-.511.208-.348.569-.79 1.1-1.439l-.775-.633c-.509.622-.928 1.132-1.183 1.559-.255.426-.43.906-.222 1.408l.924-.383Zm2.267.493c-.834-.084-1.402-.142-1.794-.24-.392-.1-.452-.2-.473-.252l-.924.383c.207.501.67.717 1.153.838.481.121 1.138.186 1.938.266l.1-.995Zm.738.073-.738-.073-.1.995.738.073.1-.995Zm1.863.577c-.224-.248-.506-.365-.805-.434-.285-.066-.644-.101-1.058-.143l-.1.995c.441.044.725.074.932.122.194.045.255.092.29.13l.741-.67Zm.388 1.911c0-.417.001-.777-.036-1.067-.04-.305-.128-.597-.352-.845l-.741.671c.034.038.075.104.1.301.028.212.029.496.029.94h1Zm0 2.38v-2.38h-1v2.38h1Zm-.388 1.912c.224-.248.312-.54.352-.845.037-.29.036-.65.036-1.067h-1c0 .444-.001.728-.028.94-.026.197-.067.262-.101.3l.741.672Zm-1.863.576c.414-.042.773-.077 1.058-.143.3-.07.581-.186.805-.433l-.741-.672c-.035.039-.096.086-.29.131-.207.048-.49.078-.932.122l.1.995Zm-.05.002v-1 1Zm-.688.071.738-.073-.1-.995-.737.073.1.995Zm-2.267.492c.021-.051.081-.153.473-.251.393-.1.96-.157 1.794-.24l-.1-.996c-.8.08-1.456.145-1.938.266-.482.121-.945.337-1.153.838l.924.383Zm1.256 1.95c-.53-.648-.891-1.09-1.1-1.438-.206-.346-.177-.46-.156-.512l-.924-.383c-.207.502-.032.982.223 1.409.254.426.674.936 1.183 1.558l.774-.633Zm.469.574-.47-.573-.773.633.469.573.774-.633Zm.91 1.725c.017-.333-.1-.615-.263-.876-.154-.248-.383-.526-.647-.849l-.774.633c.28.344.46.565.573.745.105.17.115.246.112.297l.999.05Zm-1.077 1.626c.294-.295.55-.549.729-.78.187-.243.331-.512.348-.846l-.999-.05c-.002.052-.02.127-.141.285-.13.168-.33.37-.645.684l.708.707Zm-1.683 1.683 1.683-1.683-.707-.707-1.683 1.683.707.707Zm-1.626 1.077c.333-.016.602-.16.845-.348.232-.179.486-.434.78-.729l-.706-.707c-.314.313-.516.514-.685.644-.157.122-.233.139-.284.142l.05.998Zm-1.725-.91c.322.264.6.493.849.648.26.162.542.279.876.262l-.05-.998c-.051.002-.128-.008-.297-.113-.18-.113-.402-.292-.745-.573l-.633.774Zm-.574-.47.574.47.633-.774-.574-.47-.633.774Zm-1.95-1.255c.05-.021.165-.05.511.157.348.208.79.568 1.439 1.099l.633-.774c-.622-.51-1.132-.929-1.558-1.184-.427-.255-.907-.43-1.409-.222l.383.924Zm-.492 2.267c.083-.834.141-1.401.24-1.794.098-.392.2-.452.251-.473l-.383-.924c-.501.208-.717.67-.838 1.153-.121.482-.186 1.139-.266 1.939l.995.1Zm-.074.739.073-.739-.995-.1-.073.74.995.099Zm.002-.05h-1 1Zm-.578 1.913c.247-.224.364-.506.433-.805.066-.285.101-.644.143-1.058l-.995-.1c-.044.441-.074.725-.122.932-.045.194-.092.255-.13.29l.67.741Zm-1.912.388c.417 0 .777.001 1.067-.036.305-.04.597-.128.845-.352l-.672-.741c-.038.034-.103.075-.3.1-.212.028-.496.029-.94.029v1Zm-2.38 0h2.38v-1h-2.38v1Zm-1.911-.388c.247.224.54.312.844.352.29.037.65.036 1.067.036v-1c-.444 0-.728-.001-.94-.028-.197-.026-.262-.067-.3-.101l-.671.741Zm-.577-1.863c.042.414.077.773.143 1.058.07.3.186.581.434.805l.67-.741c-.038-.035-.085-.096-.13-.29-.048-.207-.078-.49-.122-.932l-.995.1Zm-.073-.738.073.738.995-.1-.073-.738-.995.1Zm-.492-2.267c.051.02.153.08.251.473.1.392.157.96.24 1.794l.996-.1c-.08-.8-.145-1.457-.266-1.938-.121-.482-.337-.945-.838-1.153l-.383.924Zm-1.95 1.255c.648-.53 1.09-.89 1.438-1.099.347-.207.46-.178.512-.156l.383-.924c-.502-.208-.982-.033-1.409.222-.426.255-.936.674-1.558 1.183l.633.774Zm-.575.47.574-.47-.633-.774-.574.47.633.774Zm-1.725.91c.334.017.616-.1.876-.263.248-.154.527-.383.85-.647l-.634-.774c-.343.28-.564.46-.745.573-.169.105-.246.115-.297.112l-.05.999Zm-1.626-1.077c.295.294.55.55.78.729.244.187.513.331.846.348l.05-.999c-.051-.002-.127-.02-.284-.141-.17-.13-.371-.33-.685-.645l-.707.708Zm-1.683-1.683 1.683 1.683.707-.707-1.683-1.683-.707.707Zm-1.077-1.626c.017.333.16.602.348.845.179.232.435.486.73.78l.706-.706c-.313-.314-.514-.516-.644-.685-.121-.157-.139-.233-.141-.284l-1 .05Zm.91-1.725c-.264.322-.493.6-.648.849-.162.26-.279.542-.262.876l.999-.05c-.003-.051.007-.128.112-.297.113-.18.292-.402.573-.745l-.774-.633Zm.47-.574-.47.574.774.633.47-.574-.774-.633Zm1.255-1.95c.021.05.05.165-.156.511-.208.348-.569.79-1.1 1.439l.775.633c.509-.622.928-1.132 1.183-1.559.255-.426.43-.906.222-1.408l-.924.383ZM5.49 21.75c.834.084 1.402.142 1.794.24.392.1.452.2.473.252l.924-.383c-.208-.501-.67-.717-1.153-.838-.481-.121-1.138-.186-1.938-.266l-.1.995Zm-.738-.073.738.073.1-.995-.738-.073-.1.995Zm.05.002v-1 1Zm-1.913-.578c.224.247.506.364.805.433.285.066.644.101 1.058.143l.1-.995c-.442-.044-.725-.074-.932-.122-.194-.045-.255-.092-.29-.13l-.741.67ZM2.5 19.19c0 .417-.001.777.036 1.067.04.305.128.597.352.845l.741-.672c-.034-.038-.075-.103-.1-.3-.028-.212-.029-.496-.029-.94h-1Zm0-2.38v2.38h1v-2.38h-1Zm.388-1.911c-.224.247-.312.54-.352.844-.037.29-.036.65-.036 1.067h1c0-.444.001-.728.028-.94.026-.197.067-.262.101-.3l-.741-.671Zm1.863-.577c-.414.042-.773.077-1.058.143-.3.07-.581.186-.805.434l.741.67c.035-.038.096-.085.29-.13.207-.048.49-.078.932-.122l-.1-.995Zm.739-.073-.739.073.1.995.738-.073-.1-.995Zm2.267-.492c-.021.051-.081.153-.473.251-.393.099-.96.157-1.794.24l.1.996c.8-.08 1.456-.145 1.938-.266.482-.121.945-.337 1.153-.838l-.924-.383ZM6.5 11.807c.53.648.891 1.09 1.1 1.438.207.346.177.46.156.512l.924.383c.207-.502.033-.982-.223-1.409-.254-.426-.674-.936-1.183-1.558l-.774.633Zm-.47-.575.47.574.774-.633-.47-.575-.774.633Zm-.91-1.725c-.017.333.1.615.263.875.154.249.383.527.647.85l.774-.634c-.28-.343-.46-.564-.573-.745-.105-.169-.115-.245-.112-.297l-.999-.05ZM6.198 7.88c-.294.294-.55.549-.729.78-.187.243-.331.512-.348.846l.999.05c.002-.052.02-.127.141-.285.13-.169.33-.37.644-.684l-.707-.707Zm1.683-1.683L6.198 7.88l.707.707 1.683-1.683-.707-.707ZM9.507 5.12c-.333.017-.602.161-.845.349-.232.178-.486.434-.78.729l.706.707c.314-.314.516-.514.685-.645.157-.121.233-.138.284-.14l-.05-1Zm1.725.91c-.322-.263-.6-.492-.849-.647-.26-.162-.542-.28-.876-.263l.05 1c.051-.003.128.006.297.111.18.113.402.293.745.574l.633-.774Zm.574.47-.574-.47-.633.775.574.47.633-.775Zm1.951 1.256c-.051.02-.165.05-.512-.157-.348-.208-.79-.568-1.439-1.099l-.633.774c.622.51 1.132.928 1.559 1.183.426.255.906.43 1.408.223l-.383-.924Zm.492-2.267c-.084.833-.142 1.401-.24 1.794-.1.392-.2.451-.252.473l.383.924c.501-.208.717-.671.838-1.153s.186-1.14.266-1.939l-.995-.1Zm.073-.738-.073.738.995.1.073-.738-.995-.1Zm.577-1.863c-.248.224-.365.506-.434.805-.066.285-.101.644-.143 1.058l.995.1c.044-.442.074-.725.122-.932.045-.194.092-.255.13-.29l-.67-.741ZM16.81 2.5c-.417 0-.777-.001-1.067.036-.305.04-.597.128-.845.352l.671.741c.038-.034.104-.075.301-.1.212-.028.496-.029.94-.029v-1Zm2.38 0h-2.38v1h2.38v-1Zm1.912.388c-.248-.224-.54-.312-.845-.352-.29-.037-.65-.036-1.067-.036v1c.444 0 .728.001.94.028.197.026.262.067.3.101l.672-.741Zm.576 1.863c-.042-.414-.077-.773-.143-1.058-.07-.3-.186-.581-.433-.805l-.672.741c.039.035.086.096.131.29.048.207.078.49.122.932l.995-.1ZM23.5 18a5.5 5.5 0 0 1-5.5 5.5v1a6.5 6.5 0 0 0 6.5-6.5h-1ZM18 12.5a5.5 5.5 0 0 1 5.5 5.5h1a6.5 6.5 0 0 0-6.5-6.5v1ZM12.5 18a5.5 5.5 0 0 1 5.5-5.5v-1a6.5 6.5 0 0 0-6.5 6.5h1Zm5.5 5.5a5.5 5.5 0 0 1-5.5-5.5h-1a6.5 6.5 0 0 0 6.5 6.5v-1Z" fill="#fff"/>
</svg>