<svg width="25" height="24" viewBox="0 0 25 24" fill="none" xmlns="http://www.w3.org/2000/svg">
<path d="M22.5293 6.22724C22.5872 6.14647 22.5016 6.04218 22.4089 6.07811C21.7502 6.33344 21.0618 6.50571 20.3595 6.5906C21.1414 6.12348 21.7448 5.4124 22.0794 4.57053C22.1135 4.48477 22.0198 4.40819 21.939 4.4528C21.2123 4.85414 20.4285 5.14313 19.6144 5.30957C19.5803 5.31654 19.5452 5.30494 19.5213 5.27969C18.9103 4.63502 18.1061 4.20578 17.2293 4.05745C16.3342 3.90601 15.4141 4.05596 14.6133 4.48379C13.8125 4.91162 13.1764 5.59313 12.8048 6.42144C12.4513 7.209 12.356 8.08691 12.5303 8.93003C12.5438 8.99545 12.4926 9.05721 12.4259 9.05307C10.8419 8.95469 9.29417 8.53336 7.87817 7.81446C6.46575 7.09739 5.21502 6.09983 4.20215 4.8833C4.1572 4.82931 4.072 4.83629 4.03925 4.89845C3.72408 5.49651 3.55906 6.16311 3.55951 6.8406C3.55823 7.51498 3.72373 8.17922 4.04127 8.77416C4.3588 9.36911 4.81853 9.87631 5.37951 10.2506C4.78459 10.2344 4.20126 10.0873 3.67076 9.82067C3.60239 9.78631 3.52038 9.83524 3.52394 9.91167C3.56531 10.8009 3.89176 11.6936 4.45683 12.3786C5.05815 13.1074 5.89277 13.6062 6.81951 13.7906C6.46277 13.8992 6.09239 13.9564 5.71951 13.9606C5.51657 13.9582 5.31402 13.9433 5.11305 13.9158C5.03853 13.9056 4.97768 13.9764 5.00376 14.0469C5.28018 14.7944 5.76851 15.4467 6.41059 15.9228C7.09704 16.4318 7.92509 16.7142 8.77951 16.7306C7.33671 17.8659 5.55539 18.4855 3.71951 18.4906C3.53087 18.4912 3.34231 18.4851 3.15419 18.4723C3.04818 18.4651 2.99943 18.6063 3.0908 18.6605C4.87957 19.7221 6.9241 20.2831 9.00951 20.2806C10.5492 20.2966 12.0766 20.0056 13.5026 19.4247C14.9286 18.8437 16.2245 17.9845 17.3147 16.8971C18.4049 15.8097 19.2675 14.516 19.8521 13.0915C20.4367 11.667 20.7316 10.1403 20.7195 8.6006V8.12077C20.7195 8.0892 20.7344 8.05951 20.7596 8.04048C21.4379 7.52834 22.0344 6.91691 22.5293 6.22724Z" fill="white"/>
</svg>
