<svg width="24" height="25" viewBox="0 0 24 25" fill="none" xmlns="http://www.w3.org/2000/svg">
<path d="M11 9.03524L11.5308 8.50536L12.0598 9.03524L11.5308 9.56513L11 9.03524ZM2 9.78524C1.58578 9.78524 1.25 9.44946 1.25 9.03524C1.25 8.62103 1.58578 8.28524 2 8.28524L2 9.78524ZM6.53077 3.49697L11.5308 8.50536L10.4692 9.56513L5.46922 4.55674L6.53077 3.49697ZM11.5308 9.56513L6.53077 14.5735L5.46922 13.5137L10.4692 8.50536L11.5308 9.56513ZM11 9.78524L2 9.78524L2 8.28524L11 8.28524L11 9.78524Z" fill="#18181A"/>
<path d="M13 15.045L12.4692 14.5151L11.9402 15.045L12.4692 15.5749L13 15.045ZM22 15.795C22.4142 15.795 22.75 15.4592 22.75 15.045C22.75 14.6308 22.4142 14.295 22 14.295L22 15.795ZM17.4692 9.50674L12.4692 14.5151L13.5308 15.5749L18.5308 10.5665L17.4692 9.50674ZM12.4692 15.5749L17.4692 20.5833L18.5308 19.5235L13.5308 14.5151L12.4692 15.5749ZM13 15.795L22 15.795L22 14.295L13 14.295L13 15.795Z" fill="#18181A"/>
</svg>
