<svg width="20" height="20" viewBox="0 0 20 20" fill="none" xmlns="http://www.w3.org/2000/svg">
<g clip-path="url(#clip0_1485_19873)">
<path d="M9.49998 10.0002L8.79278 9.2931L8.08568 10.0002L8.79278 10.7073L9.49998 10.0002ZM17.7928 0.293098L8.79278 9.2931L10.207 10.7073L19.207 1.7073L17.7928 0.293098ZM8.79278 10.7073L17.7928 19.7073L19.207 18.2931L10.207 9.2931L8.79278 10.7073Z" fill="white"/>
</g>
<g clip-path="url(#clip1_1485_19873)">
<path d="M1.49998 10.0002L0.792783 9.2931L0.0856828 10.0002L0.792783 10.7073L1.49998 10.0002ZM9.79282 0.293098L0.792783 9.2931L2.20704 10.7073L11.207 1.7073L9.79282 0.293098ZM0.792783 10.7073L9.79282 19.7073L11.207 18.2931L2.20704 9.2931L0.792783 10.7073Z" fill="white"/>
</g>
<defs>
<clipPath id="clip0_1485_19873">
<rect width="12" height="20" fill="white" transform="translate(20 20) rotate(-180)"/>
</clipPath>
<clipPath id="clip1_1485_19873">
<rect width="12" height="20" fill="white" transform="translate(12 20) rotate(-180)"/>
</clipPath>
</defs>
</svg>
