<svg width="30" height="30" fill="none" xmlns="http://www.w3.org/2000/svg">
  <path d="M10.625 15.625h8.75M10.625 19.375h5" stroke="#fff" stroke-linecap="round"/>
  <path d="M6.875 6.775c0-.84 0-1.26.163-1.581a1.5 1.5 0 0 1 .656-.656c.32-.163.74-.163 1.581-.163h6.606c.367 0 .55 0 .723.041.153.037.3.098.433.18.152.093.282.223.54.482l4.845 4.844c.26.26.39.39.482.54.082.135.143.281.18.434.041.173.041.356.041.723v11.606c0 .84 0 1.26-.163 1.581a1.5 1.5 0 0 1-.656.655c-.32.164-.74.164-1.581.164H9.275c-.84 0-1.26 0-1.581-.163a1.5 1.5 0 0 1-.656-.656c-.163-.32-.163-.74-.163-1.581V6.775Z" stroke="#fff"/>
  <path d="M15.625 4.375v5.1c0 .84 0 1.26.164 1.581a1.5 1.5 0 0 0 .655.655c.32.164.74.164 1.581.164h5.1" stroke="#fff"/>
</svg>