<svg width="22" height="21" viewBox="0 0 22 21" fill="none" xmlns="http://www.w3.org/2000/svg">
<path d="M0.0625 20.2498V18.1248C0.0625 17.9373 0.125 17.7498 0.25 17.6248C0.6875 17.1873 1.4375 17.4998 1.4375 18.1248V20.2498C1.4375 20.6248 1.125 20.9373 0.75 20.9373C0.375 20.9373 0.0625 20.6248 0.0625 20.2498ZM5.1875 20.2498V13.1248C5.1875 12.9373 5.25 12.7498 5.375 12.6248C5.8125 12.1873 6.5625 12.4998 6.5625 13.1248V20.2498C6.5625 20.6248 6.25 20.9373 5.875 20.9373C5.5 20.9373 5.1875 20.6248 5.1875 20.2498ZM10.25 20.2498V13.1248C10.25 12.4998 11 12.1873 11.4375 12.6248L11.5 12.6873C11.625 12.8123 11.6875 12.9998 11.6875 13.1873V20.2498C11.6875 20.6248 11.375 20.9373 11 20.9373C10.625 20.9373 10.25 20.6248 10.25 20.2498ZM15.375 20.2498V13.1873C15.375 12.9998 15.4375 12.8123 15.5625 12.6873L15.625 12.6248C16.0625 12.1873 16.8125 12.4998 16.8125 13.1248V16.1873V20.2498C16.8125 20.6248 16.5 20.9373 16.125 20.9373H16.0625C15.75 20.9373 15.375 20.6248 15.375 20.2498ZM20.5 20.2498V8.12485C20.5 7.93735 20.5625 7.74985 20.6875 7.62485C21.125 7.18735 21.875 7.49985 21.875 8.12485V20.2498C21.875 20.6248 21.5625 20.9373 21.1875 20.9373C20.875 20.9373 20.5 20.6248 20.5 20.2498ZM0.0625 11.6873C0.0625 11.4998 0.125 11.3123 0.25 11.1873L8 3.49984C8.25 3.24984 8.6875 3.24984 9 3.49984L13 7.49984C13.25 7.74984 13.6875 7.74984 14 7.49984L20.75 0.687341C21.1875 0.249841 21.9375 0.562341 21.9375 1.18734C21.9375 1.37484 21.875 1.56234 21.75 1.68734L14 9.49984C13.75 9.74984 13.3125 9.74984 13 9.49984L9 5.49984C8.75 5.24984 8.3125 5.24984 8 5.49984L1.25 12.1873C0.8125 12.6248 0.0625 12.3123 0.0625 11.6873Z" fill="white"/>
</svg>
