<svg class="menu-swap" width="24" height="24" viewBox="0 0 24 24" fill="none" xmlns="http://www.w3.org/2000/svg">
<path d="M19.1633 12.7598V12.8237C19.0745 14.2188 18.5894 15.5591 17.7653 16.6864C16.9411 17.8137 15.8125 18.6808 14.5127 19.1851C13.213 19.6895 11.7964 19.81 10.4305 19.5325C9.06462 19.255 7.80646 18.5911 6.80478 17.6192L6.49403 17.4034L4.76495 19.1378V13.9826L7.83268 13.9426C8.18079 14.924 8.86323 15.7504 9.75962 16.2763C10.656 16.8021 11.7087 16.9935 12.7321 16.8166C13.7554 16.6398 14.6836 16.1062 15.353 15.3098C16.0223 14.5135 16.3897 13.5056 16.3904 12.4641C16.4018 12.2118 16.3555 11.9603 16.255 11.7287L19.8725 11.6648L19.992 4L17.4821 6.60556C16.3581 5.5911 14.9717 4.91512 13.4821 4.65522C11.9925 4.39531 10.46 4.56203 9.06051 5.13621C7.66105 5.71039 6.45138 6.66875 5.57035 7.90131C4.68933 9.13386 4.17267 10.5906 4.07969 12.1044V12.2562H4.75698L4.82072 12.1683V12.1044C4.90954 10.7093 5.39469 9.36895 6.21881 8.24166C7.04293 7.11438 8.17157 6.24731 9.47134 5.74296C10.7711 5.23862 12.1877 5.11807 13.5536 5.39556C14.9195 5.67305 16.1776 6.33699 17.1793 7.3089L17.4821 7.51671L19.2112 5.79033V10.9455H16.1514C15.8035 9.96479 15.1217 9.13873 14.2262 8.61285C13.3306 8.08696 12.2788 7.89498 11.2559 8.07075C10.2331 8.24652 9.30492 8.77877 8.63495 9.57368C7.96499 10.3686 7.59623 11.3752 7.59363 12.4161C7.58159 12.671 7.62793 12.9253 7.72909 13.1594L4.11155 13.2233L4 20.8881L6.50997 18.2826C7.62636 19.2903 9.00182 19.9642 10.4805 20.2279C11.9592 20.4916 13.4819 20.3346 14.8762 19.7747C16.2705 19.2148 17.4806 18.2744 18.3692 17.0599C19.2579 15.8455 19.7897 14.4057 19.9044 12.9036V12.7518L19.2271 12.7118L19.1633 12.7598ZM11.992 8.82746C12.7173 8.82746 13.4263 9.04329 14.0292 9.44763C14.6322 9.85197 15.1019 10.4266 15.3791 11.0989C15.6563 11.7712 15.7284 12.5108 15.5864 13.2242C15.4443 13.9376 15.0944 14.5927 14.581 15.1065C14.0676 15.6204 13.4137 15.9699 12.7022 16.1109C11.9907 16.2518 11.2535 16.1779 10.5838 15.8984C9.91423 15.6189 9.34233 15.1464 8.94054 14.5408C8.53875 13.9351 8.32512 13.2235 8.3267 12.496C8.32774 12.0132 8.42358 11.5353 8.60875 11.0897C8.79392 10.644 9.06478 10.2393 9.40588 9.89865C9.74698 9.55799 10.1516 9.28807 10.5967 9.10428C11.0418 8.92048 11.5187 8.82641 12 8.82746H11.992Z" fill="white"/>
<path d="M12.2869 13.615C12.1922 13.6484 12.0924 13.6646 11.9921 13.6629C11.6323 13.6425 11.2862 13.5175 10.996 13.3032L10.8765 13.2153L10.4861 13.7748V13.8787H10.5419C10.8606 14.1265 11.2468 14.2714 11.6494 14.2943H11.7211L11.7929 15.2454H12.4702V14.2863C12.6617 14.2208 12.8344 14.1094 12.9732 13.9618C13.1121 13.8141 13.2129 13.6347 13.267 13.4391C13.3169 13.2365 13.2995 13.0231 13.2176 12.8312C13.1356 12.6394 12.9935 12.4796 12.8128 12.3761C12.5737 12.2139 12.3014 12.1074 12.016 12.0644C11.6973 12.0005 11.506 11.8806 11.4423 11.7047C11.4183 11.6292 11.4193 11.5479 11.4452 11.473C11.471 11.3982 11.5203 11.3337 11.5857 11.2891C11.7268 11.1866 11.8975 11.1332 12.0717 11.1373C12.3978 11.1544 12.715 11.2503 12.9961 11.417L13.1315 11.4969L13.4821 10.9135V10.8176L13.4263 10.7776C13.1275 10.6017 12.792 10.4977 12.4462 10.4739L12.3825 9.57874L11.6972 9.64269L11.753 10.4419C11.5427 10.483 11.344 10.5704 11.1713 10.6977C10.9793 10.8398 10.8378 11.0399 10.7675 11.2686C10.6972 11.4973 10.7019 11.7426 10.7809 11.9685C10.8819 12.1904 11.0398 12.3814 11.2387 12.5219C11.4375 12.6623 11.6701 12.7472 11.9124 12.7677C12.0829 12.7992 12.2454 12.8644 12.3905 12.9596C12.5897 13.1034 12.5658 13.1834 12.5578 13.2153C12.5512 13.2998 12.5227 13.3811 12.4752 13.4512C12.4277 13.5212 12.3628 13.5777 12.2869 13.615Z" fill="white"/>
</svg>
