<svg width="25" height="24" viewBox="0 0 25 24" fill="none" xmlns="http://www.w3.org/2000/svg">
<path fill-rule="evenodd" clip-rule="evenodd" d="M19.2025 19.7901L19.2032 19.7883L19.2206 19.7448L22.2194 4.62577V4.57666C22.2194 4.19996 22.0802 3.8711 21.7774 3.67384C21.5122 3.50118 21.2075 3.48889 20.9938 3.50511C20.7678 3.52226 20.5546 3.57868 20.4071 3.62564C20.3312 3.6498 20.2677 3.67307 20.2222 3.69068C20.1994 3.69952 20.181 3.70702 20.1675 3.7126L20.1543 3.71816L3.4345 10.2771L3.4299 10.2787C3.42087 10.282 3.40893 10.2865 3.3945 10.2921C3.36575 10.3033 3.32661 10.3193 3.28063 10.3402C3.19035 10.3811 3.06561 10.4442 2.93911 10.5308C2.72426 10.678 2.31514 11.0263 2.38422 11.5785C2.44145 12.0359 2.75675 12.3264 2.96932 12.4768C3.08327 12.5575 3.19228 12.6156 3.27211 12.6536C3.31256 12.6729 3.34691 12.6876 3.3725 12.698C3.38533 12.7032 3.39605 12.7074 3.40435 12.7106L3.41498 12.7145L3.42177 12.7171L6.34701 13.7019C6.33714 13.8854 6.35534 14.0725 6.40402 14.2572L7.8693 19.8156C8.04304 20.4746 8.63926 20.9337 9.32083 20.9332C9.93176 20.9328 10.4736 20.5632 10.7038 20.0118L12.9915 17.5657L16.9204 20.5779L16.9763 20.6023C17.3333 20.7581 17.6668 20.8074 17.9717 20.7658C18.2762 20.7242 18.5182 20.5965 18.6999 20.4511C18.8788 20.308 19.0014 20.1465 19.0785 20.0249C19.1176 19.9631 19.1468 19.9088 19.1671 19.8679C19.1772 19.8474 19.1853 19.8301 19.1913 19.8165L19.1988 19.7991L19.2015 19.7927L19.2025 19.7901ZM7.85441 13.8748C7.82111 13.7485 7.87339 13.6151 7.98368 13.5451L17.9057 7.24417C17.9057 7.24417 18.4893 6.88987 18.4684 7.24417C18.4684 7.24417 18.5726 7.30673 18.2599 7.59846C17.9632 7.87554 11.1882 14.4166 10.5026 15.0785C10.4631 15.1167 10.4394 15.1605 10.4255 15.2137L9.3197 19.4332L7.85441 13.8748Z" fill="white"/>
</svg>
