<svg width="18" height="18" viewBox="0 0 18 18" fill="none" xmlns="http://www.w3.org/2000/svg">
<path d="M10.1531 8.87078C10.1531 11.6988 7.88021 13.9914 5.07663 13.9914C2.27305 13.9914 0 11.6983 0 8.87078C0 6.04326 2.27287 3.75 5.07663 3.75C7.88038 3.75 10.1531 6.04274 10.1531 8.87078Z" fill="white"/>
<path d="M15.7221 8.87062C15.7221 11.5326 14.5857 13.6914 13.1838 13.6914C11.7819 13.6914 10.6455 11.5326 10.6455 8.87062C10.6455 6.20863 11.7818 4.0498 13.1837 4.0498C14.5855 4.0498 15.722 6.20794 15.722 8.87062" fill="white"/>
<path d="M18 8.87094C18 11.2554 17.6004 13.1896 17.1073 13.1896C16.6142 13.1896 16.2147 11.2559 16.2147 8.87094C16.2147 6.48593 16.6143 4.55225 17.1073 4.55225C17.6002 4.55225 18 6.48576 18 8.87094Z" fill="white"/>
</svg>
