<svg width="18" height="18" fill="none" xmlns="http://www.w3.org/2000/svg">
  <g clip-path="url(#a)">
    <path fill-rule="evenodd" clip-rule="evenodd" d="M9.015 0a9 9 0 1 0 0 18 9 9 0 0 0 0-18Zm0 .465a8.542 8.542 0 1 1-.03 17.085A8.542 8.542 0 0 1 9.015.465Zm-1.838 12.09H4.515v-.15l.945-1.147a.443.443 0 0 0 .12-.39V6.884a.338.338 0 0 0-.113-.292l-.84-1.013v-.15h2.61l2.018 4.425 1.77-4.425h2.49v.15l-.75.69a.21.21 0 0 0-.075.203v5.062a.21.21 0 0 0 .075.203l.705.69v.15H9.952v-.15l.75-.75c.075-.068.075-.09.075-.196V7.425l-2.025 5.13h-.27l-2.355-5.13v3.442a.473.473 0 0 0 .128.39l.945 1.148-.023.15Z" fill="#fff"/>
  </g>
  <defs>
    <clipPath id="a">
      <path fill="#fff" d="M0 0h18v18H0z"/>
    </clipPath>
  </defs>
</svg>