<svg width="24" height="24" fill="none" xmlns="http://www.w3.org/2000/svg">
  <path d="m10 19-.707-.707-.707.707.707.707L10 19Zm3.293-4.707-4 4 1.414 1.414 4-4-1.414-1.414Zm-4 5.414 4 4 1.414-1.414-4-4-1.414 1.414Z" fill="#fff"/>
  <path d="M18.062 8.5A7 7 0 0 1 12 19" stroke="#fff" stroke-width="2" stroke-linecap="round"/>
  <path d="m14 5 .707.707.707-.707-.707-.707L14 5Zm-3.293 4.707 4-4-1.414-1.414-4 4 1.414 1.414Zm4-5.414-4-4-1.414 1.414 4 4 1.414-1.414Z" fill="#fff"/>
  <path d="M5.938 15.5A7 7 0 0 1 12 5" stroke="#fff" stroke-width="2" stroke-linecap="round"/>
</svg>