<svg width="24" height="24" viewBox="0 0 24 24" fill="none" xmlns="http://www.w3.org/2000/svg">
<path d="M21 3L21.5 3L21.5 2.5L21 2.5L21 3ZM10.6464 12.6464C10.4512 12.8417 10.4512 13.1583 10.6464 13.3536C10.8417 13.5488 11.1583 13.5488 11.3536 13.3536L10.6464 12.6464ZM13 3.5L21 3.5L21 2.5L13 2.5L13 3.5ZM20.5 3L20.5 11L21.5 11L21.5 3L20.5 3ZM20.6464 2.64645L10.6464 12.6464L11.3536 13.3536L21.3536 3.35355L20.6464 2.64645Z" fill="white"/>
<path d="M9 4V4C7.13077 4 6.19615 4 5.5 4.40192C5.04394 4.66523 4.66523 5.04394 4.40192 5.5C4 6.19615 4 7.13077 4 9L4 14C4 16.8284 4 18.2426 4.87868 19.1213C5.75736 20 7.17157 20 10 20L15 20C16.8692 20 17.8038 20 18.5 19.5981C18.9561 19.3348 19.3348 18.9561 19.5981 18.5C20 17.8038 20 16.8692 20 15V15" stroke="white" stroke-linecap="round"/>
</svg>
