<svg width="24" height="24" fill="none" xmlns="http://www.w3.org/2000/svg">
  <path d="M8 2h8.602c.839 0 1.258 0 1.579.163a1.5 1.5 0 0 1 .655.656c.164.32.164.74.164 1.581v14.1m-15.297-.797 3.594 3.594c.26.26.39.39.54.482.135.082.281.143.434.18.173.041.356.041.723.041H13.6c.84 0 1.26 0 1.581-.163a1.5 1.5 0 0 0 .655-.656c.164-.32.164-.74.164-1.581V7.4c0-.84 0-1.26-.164-1.581a1.5 1.5 0 0 0-.655-.656C14.861 5 14.441 5 13.6 5H5.4c-.84 0-1.26 0-1.581.163a1.5 1.5 0 0 0-.656.656C3 6.139 3 6.559 3 7.4v8.606c0 .367 0 .55.041.723.037.153.098.3.18.433.093.152.223.282.482.54Z" stroke="#fff"/>
  <path d="M8.5 21.5v-3.6c0-.84 0-1.26-.163-1.581a1.5 1.5 0 0 0-.656-.655c-.32-.164-.74-.164-1.581-.164H2.5" stroke="#fff"/>
</svg>