<svg width="36" height="36" viewBox="0 0 36 36" fill="none" xmlns="http://www.w3.org/2000/svg">
<g clip-path="url(#clip0_39_830)">
<path d="M28.9295 19.2488C28.7581 22.1215 27.5124 24.8198 25.4463 26.7938C23.3802 28.7677 20.6493 29.8687 17.8101 29.8724C14.9188 29.8824 12.14 28.7381 10.0748 26.687L9.74676 26.372L6.94962 29.1898L7.0705 20.964H11.8014C12.311 22.4529 13.3256 23.7099 14.6644 24.5111C16.0032 25.3123 17.5792 25.6056 19.1114 25.3387C20.6436 25.0718 22.0326 24.262 23.0307 23.0537C24.0288 21.8454 24.5712 20.3171 24.5612 18.7412C24.5655 18.318 24.5249 17.8956 24.4403 17.4811H29.8273L30 6L26.236 9.81542C24.5432 8.28827 22.4609 7.27426 20.2268 6.88919C17.9927 6.50411 15.6968 6.76344 13.6012 7.63758C11.5056 8.51173 9.69459 9.96549 8.37497 11.8329C7.05535 13.7003 6.28025 15.9062 6.13813 18.1987V18.3212H7.0705V18.1812C7.22963 16.0423 7.98578 13.9933 9.25064 12.2737C10.5155 10.554 12.2368 9.23447 14.2138 8.46924C16.1907 7.70402 18.3416 7.52467 20.4153 7.95207C22.489 8.37947 24.4 9.39599 25.9252 10.883L26.2532 11.2155L29.0331 8.39773L28.9122 16.6236H24.1813C23.6721 15.1362 22.659 13.8802 21.322 13.0789C19.985 12.2776 18.411 11.983 16.8799 12.2476C15.3488 12.5123 13.96 13.3188 12.9605 14.5239C11.9611 15.729 11.4157 17.2544 11.4216 18.8288C11.4259 19.2574 11.4663 19.6848 11.5424 20.1064H6.15539L6 31.5875L9.76402 27.7721C11.969 29.7933 14.8372 30.9101 17.8101 30.905C20.8938 30.9106 23.863 29.7212 26.1099 27.5803C28.3568 25.4395 29.7114 22.509 29.8964 19.3888V19.2488H28.964H28.9295ZM18 24.4993C16.8833 24.4993 15.7917 24.1637 14.8632 23.5348C13.9347 22.906 13.2111 22.0122 12.7837 20.9664C12.3564 19.9207 12.2446 18.7699 12.4624 17.6597C12.6803 16.5496 13.218 15.5298 14.0076 14.7294C14.7973 13.9291 15.8033 13.384 16.8985 13.1632C17.9937 12.9423 19.129 13.0557 20.1606 13.4889C21.1923 13.922 22.0741 14.6556 22.6945 15.5967C23.3149 16.5379 23.646 17.6444 23.646 18.7763C23.6369 20.2881 23.038 21.7348 21.9802 22.8005C20.9223 23.8662 19.4915 24.4644 18 24.4643V24.4993Z" fill="#A99DB2"/>
<path d="M18.259 16.606C18.7714 16.638 19.2687 16.7941 19.7094 17.0611H19.813L20.3137 16.256H20.1928C19.7174 15.9784 19.1971 15.7888 18.6561 15.6959V14.3833H17.7238V15.6959C17.4245 15.7562 17.1417 15.8815 16.895 16.0635C16.6255 16.2688 16.4293 16.5575 16.3359 16.8858C16.2424 17.2141 16.2569 17.5644 16.377 17.8836C16.5129 18.2145 16.7365 18.5007 17.0229 18.7108C17.3093 18.9208 17.6475 19.0464 18 19.0737C18.2716 19.1259 18.53 19.233 18.7597 19.3888C19.1223 19.6338 19.0705 19.8264 19.0533 19.8789C19.0187 20.0175 18.9499 20.1449 18.8532 20.2491C18.7565 20.3532 18.6352 20.4306 18.5007 20.4739C18.3465 20.5017 18.1887 20.5017 18.0346 20.4739C17.4664 20.4555 16.9178 20.2599 16.4633 19.9138H16.3597L15.8245 20.6839H15.9281C16.464 21.0844 17.096 21.3322 17.7583 21.4015V22.7666H18.6907V21.384H18.8115C19.0878 21.2934 19.337 21.1336 19.5362 20.9195C19.7354 20.7053 19.8781 20.4437 19.9511 20.1588C20.0223 19.8672 19.9965 19.56 19.8779 19.2847C19.7593 19.0094 19.5544 18.7815 19.295 18.6362C18.9628 18.3945 18.5776 18.2384 18.1727 18.1812C17.6719 18.0762 17.3439 17.8662 17.2403 17.5686C17.1975 17.4317 17.1996 17.2843 17.2463 17.1487C17.2929 17.013 17.3817 16.8963 17.4993 16.8161C17.7228 16.6633 17.9899 16.5894 18.259 16.606Z" fill="#A99DB2"/>
</g>
<defs>
<clipPath id="clip0_39_830">
<rect width="24" height="25.5" fill="white" transform="translate(6 6)"/>
</clipPath>
</defs>
</svg>
