<svg width="16" height="16" viewBox="0 0 16 16" fill="none" xmlns="http://www.w3.org/2000/svg">
<path fill-rule="evenodd" clip-rule="evenodd" d="M8 14C11.3137 14 14 11.3137 14 8C14 6.90194 13.705 5.87278 13.19 4.98743L8.68836 9.98926C7.99569 10.7589 6.83013 10.8726 6.00177 10.2513L4.06667 8.8C3.62484 8.46863 3.5353 7.84183 3.86667 7.4C4.19804 6.95817 4.82484 6.86863 5.26667 7.2L7.20177 8.65133L11.8953 3.43626C10.8471 2.54073 9.48672 2 8 2C4.68629 2 2 4.68629 2 8C2 11.3137 4.68629 14 8 14Z" fill="#DFFF65"/>
</svg>
