<svg width="18" height="18" fill="none" xmlns="http://www.w3.org/2000/svg">
  <path d="M15.75 2.25h.5v-.5h-.5v.5ZM7.896 9.396a.5.5 0 0 0 .708.708l-.708-.708ZM9.75 2.75h6v-1h-6v1Zm5.5-.5v6h1v-6h-1Zm.146-.354-7.5 7.5.708.708 7.5-7.5-.708-.708Z" fill="#fff"/>
  <path d="M6.75 3v0c-.697 0-1.045 0-1.335.058a3 3 0 0 0-2.357 2.357C3 5.705 3 6.053 3 6.75V9c0 2.828 0 4.243.879 5.121C4.757 15 6.172 15 9 15h2.25c.697 0 1.046 0 1.335-.058a3 3 0 0 0 2.357-2.357c.058-.29.058-.638.058-1.335v0" stroke="#fff" stroke-linecap="round"/>
</svg>