<svg width="30" height="30" viewBox="0 0 30 30" fill="none" xmlns="http://www.w3.org/2000/svg">
<path d="M15 26.5312C14.8542 26.5312 14.7083 26.5104 14.5625 26.4688C14.4167 26.4271 14.2812 26.3646 14.1562 26.2812L5.25 21.2812C4.97917 21.1354 4.76562 20.9323 4.60938 20.6719C4.45312 20.4115 4.375 20.125 4.375 19.8125V10.0625C4.375 9.72917 4.45312 9.43229 4.60938 9.17188C4.76562 8.91146 4.98958 8.69792 5.28125 8.53125L14.1562 3.65625C14.3021 3.59375 14.4427 3.54687 14.5781 3.51562C14.7135 3.48437 14.8542 3.46875 15 3.46875C15.1458 3.46875 15.2865 3.48437 15.4219 3.51562C15.5573 3.54687 15.6979 3.59375 15.8438 3.65625L24.7188 8.53125C25.0104 8.69792 25.2344 8.91146 25.3906 9.17188C25.5469 9.43229 25.625 9.72917 25.625 10.0625V19.8125C25.625 20.125 25.5469 20.4115 25.3906 20.6719C25.2344 20.9323 25.0208 21.1354 24.75 21.2812L15.8438 26.2812C15.7188 26.3646 15.5833 26.4271 15.4375 26.4688C15.2917 26.5104 15.1458 26.5312 15 26.5312ZM11.5313 12.5C11.9896 11.9167 12.526 11.4844 13.1406 11.2031C13.7552 10.9219 14.375 10.7812 15 10.7812C15.625 10.7812 16.2448 10.9219 16.8594 11.2031C17.474 11.4844 18.0104 11.9167 18.4688 12.5L24.0938 9.3125L15.375 4.53125C15.25 4.48958 15.125 4.46875 15 4.46875C14.875 4.46875 14.75 4.48958 14.625 4.53125L5.90625 9.3125L11.5313 12.5ZM14.5312 25.375V19.25C13.4479 19.0625 12.5521 18.5729 11.8438 17.7813C11.1354 16.9896 10.7812 16.0625 10.7812 15C10.7812 14.75 10.8021 14.4948 10.8438 14.2344C10.8854 13.974 10.9688 13.6875 11.0938 13.375L5.34375 10.125V19.7812C5.34375 19.9271 5.375 20.0573 5.4375 20.1719C5.5 20.2865 5.59375 20.375 5.71875 20.4375L14.5312 25.375ZM15 18.2812C15.8958 18.2812 16.6667 17.9583 17.3125 17.3125C17.9583 16.6667 18.2812 15.8958 18.2812 15C18.2812 14.1042 17.9583 13.3333 17.3125 12.6875C16.6667 12.0417 15.8958 11.7188 15 11.7188C14.1042 11.7188 13.3333 12.0417 12.6875 12.6875C12.0417 13.3333 11.7188 14.1042 11.7188 15C11.7188 15.8958 12.0417 16.6667 12.6875 17.3125C13.3333 17.9583 14.1042 18.2812 15 18.2812ZM15.4688 25.375L24.2812 20.4375C24.4062 20.375 24.5 20.2865 24.5625 20.1719C24.625 20.0573 24.6562 19.9271 24.6562 19.7812V10.125L18.9062 13.375C19.0312 13.7083 19.1146 14 19.1562 14.25C19.1979 14.5 19.2188 14.75 19.2188 15C19.2188 16.0625 18.8646 16.9896 18.1562 17.7813C17.4479 18.5729 16.5521 19.0625 15.4688 19.25V25.375Z" fill="white"/>
</svg>
