<svg width="18" height="18" fill="none" xmlns="http://www.w3.org/2000/svg">
  <g clip-path="url(#a)" fill="#fff">
    <path d="M6.36 8.044c-.866 0-1.57.787-1.57 1.755 0 .967.703 1.754 1.57 1.754.868 0 1.57-.787 1.57-1.754 0-.968-.705-1.755-1.57-1.755Zm0 2.953c-.562 0-1.008-.534-1.008-1.191s.452-1.193 1.009-1.193c.556 0 1.006.535 1.006 1.193s-.451 1.184-1.006 1.184v.007Z"/>
    <path d="M17.132 8.378a22.052 22.052 0 0 0-1.62-4.359.295.295 0 0 0-.1-.108 12.247 12.247 0 0 0-2.141-1.008c-1.381-.503-2.034-.512-2.06-.512a.281.281 0 0 0-.282.242l-.084.586a18.722 18.722 0 0 0-3.696 0l-.084-.586a.281.281 0 0 0-.281-.242c-.027 0-.68 0-2.06.507-.744.268-1.459.607-2.137 1.013a.295.295 0 0 0-.1.108 22.039 22.039 0 0 0-1.62 4.36C.142 11.314 0 12.783 0 12.844a.282.282 0 0 0 .069.21 7.763 7.763 0 0 0 2.56 1.792c.888.378 1.824.635 2.782.762a.282.282 0 0 0 .27-.14l.76-1.301a14.77 14.77 0 0 0 2.559.21c.858.003 1.714-.068 2.56-.213l.759 1.304a.28.28 0 0 0 .241.14h.029a10.73 10.73 0 0 0 2.781-.756 7.763 7.763 0 0 0 2.56-1.792.281.281 0 0 0 .069-.21c0-.067-.133-1.536-.867-4.473Zm-1.977 5.95a10.8 10.8 0 0 1-2.445.692l-.574-.984c.658-.175 2.028-.627 3.07-1.575a.283.283 0 0 0-.379-.422c-1.265 1.157-3.158 1.524-3.178 1.529h-.008c-.87.168-1.755.25-2.641.247a13.58 13.58 0 0 1-2.641-.239h-.008c-.02 0-1.906-.371-3.179-1.529a.283.283 0 1 0-.378.422c1.042.948 2.412 1.407 3.07 1.575l-.574.985c-.84-.133-1.66-.365-2.445-.692a7.347 7.347 0 0 1-2.271-1.568c.046-.41.236-1.838.843-4.253.37-1.437.885-2.834 1.536-4.168a12.4 12.4 0 0 1 1.969-.917 8.628 8.628 0 0 1 1.628-.448l.05.336c-.563.14-1.948.543-3.045 1.34a.281.281 0 0 0 .332.454c1.24-.901 2.953-1.274 3.074-1.3A16.65 16.65 0 0 1 9 3.693c.682-.002 1.363.037 2.04.118.128.027 1.829.398 3.074 1.301a.281.281 0 0 0 .332-.454c-1.097-.797-2.476-1.198-3.044-1.34l.049-.336c.556.096 1.1.246 1.627.448.682.248 1.34.555 1.969.917a21.976 21.976 0 0 1 1.547 4.168c.603 2.415.793 3.844.843 4.253a7.345 7.345 0 0 1-2.282 1.56Z"/>
    <path d="M11.64 8.044c-.865 0-1.57.787-1.57 1.755 0 .967.703 1.754 1.57 1.754.866 0 1.57-.787 1.57-1.754 0-.968-.704-1.755-1.57-1.755Zm0 2.953c-.563 0-1.007-.534-1.007-1.191s.451-1.193 1.006-1.193c.556 0 1.009.535 1.009 1.193s-.452 1.184-1.009 1.184v.007Z"/>
  </g>
  <defs>
    <clipPath id="a">
      <path fill="#fff" d="M0 0h18v18H0z"/>
    </clipPath>
  </defs>
</svg>