<svg width="24" height="24" viewBox="0 0 24 24" fill="none" xmlns="http://www.w3.org/2000/svg">
<path d="M9.04004 17.8H14.58L11.81 13.89L9.04004 17.8Z" fill="white"/>
<path d="M5.77995 12.19C6.3935 12.192 6.99382 12.0118 7.50493 11.6724C8.01604 11.333 8.41493 10.8495 8.65109 10.2832C8.88726 9.71697 8.95009 9.09334 8.8316 8.49134C8.71312 7.88934 8.41866 7.33604 7.98552 6.9015C7.55238 6.46695 7.00004 6.17073 6.39842 6.0503C5.79681 5.92987 5.17299 5.99065 4.60596 6.22498C4.03892 6.45932 3.55418 6.85667 3.21311 7.36668C2.87203 7.87668 2.68996 8.47643 2.68996 9.08997C2.68864 9.4966 2.76759 9.89947 2.92229 10.2755C3.07699 10.6516 3.30438 10.9934 3.59145 11.2814C3.87851 11.5694 4.21959 11.7979 4.59514 11.9538C4.97069 12.1097 5.37333 12.19 5.77995 12.19ZM5.77995 6.81995C6.23132 6.81996 6.67253 6.95396 7.04768 7.20493C7.42284 7.45591 7.71506 7.81258 7.88733 8.22977C8.0596 8.64697 8.10417 9.10592 8.01538 9.54847C7.92659 9.99102 7.70845 10.3972 7.38858 10.7157C7.06872 11.0342 6.66153 11.2505 6.2186 11.3374C5.77566 11.4242 5.31692 11.3776 4.90048 11.2035C4.48405 11.0294 4.12866 10.7356 3.87933 10.3594C3.63001 9.98313 3.49798 9.54134 3.49996 9.08997C3.5026 8.48701 3.74398 7.90965 4.17128 7.48423C4.59858 7.05881 5.17699 6.81995 5.77995 6.81995Z" fill="white"/>
<path d="M17.84 12.19C18.4535 12.192 19.0539 12.0118 19.565 11.6724C20.0761 11.333 20.475 10.8495 20.7111 10.2832C20.9473 9.71697 21.0101 9.09334 20.8916 8.49134C20.7732 7.88934 20.4787 7.33604 20.0456 6.9015C19.6124 6.46695 19.0601 6.17073 18.4585 6.0503C17.8569 5.92987 17.233 5.99065 16.666 6.22498C16.099 6.45932 15.6142 6.85667 15.2731 7.36668C14.9321 7.87668 14.75 8.47643 14.75 9.08997C14.75 9.91041 15.0752 10.6974 15.6544 11.2785C16.2336 11.8596 17.0196 12.1873 17.84 12.19ZM17.84 6.81995C18.2914 6.81996 18.7326 6.95396 19.1077 7.20493C19.4829 7.45591 19.7751 7.81258 19.9474 8.22977C20.1197 8.64697 20.1642 9.10592 20.0754 9.54847C19.9866 9.99102 19.7685 10.3972 19.4486 10.7157C19.1288 11.0342 18.7216 11.2505 18.2786 11.3374C17.8357 11.4242 17.377 11.3776 16.9605 11.2035C16.5441 11.0294 16.1887 10.7356 15.9394 10.3594C15.6901 9.98313 15.558 9.54134 15.56 9.08997C15.56 8.79103 15.619 8.49503 15.7337 8.21897C15.8484 7.94291 16.0165 7.69222 16.2284 7.4813C16.4402 7.27038 16.6917 7.10336 16.9682 6.98988C17.2448 6.87639 17.5411 6.81864 17.84 6.81995Z" fill="white"/>
</svg>
