<svg width="30" height="30" viewBox="0 0 30 30" fill="none" xmlns="http://www.w3.org/2000/svg">
<path d="M4.78125 23.375C4.57292 23.375 4.40104 23.3073 4.26562 23.1719C4.13021 23.0365 4.0625 22.8646 4.0625 22.6562C4.0625 22.4688 4.13021 22.3073 4.26562 22.1719C4.40104 22.0365 4.57292 21.9688 4.78125 21.9688H10.375C10.5833 21.9688 10.7552 22.0365 10.8906 22.1719C11.026 22.3073 11.0938 22.4792 11.0938 22.6875C11.0938 22.8958 11.026 23.0625 10.8906 23.1875C10.7552 23.3125 10.5833 23.375 10.375 23.375H4.78125ZM4.78125 8.03125C4.57292 8.03125 4.40104 7.96354 4.26562 7.82812C4.13021 7.69271 4.0625 7.52083 4.0625 7.3125C4.0625 7.10417 4.13021 6.9375 4.26562 6.8125C4.40104 6.6875 4.57292 6.625 4.78125 6.625H15.5312C15.7188 6.625 15.8854 6.69271 16.0312 6.82812C16.1771 6.96354 16.25 7.13542 16.25 7.34375C16.25 7.53125 16.1771 7.69271 16.0312 7.82812C15.8854 7.96354 15.7188 8.03125 15.5312 8.03125H4.78125ZM14.4688 25.9375C14.2604 25.9375 14.0885 25.8698 13.9531 25.7344C13.8177 25.599 13.75 25.4271 13.75 25.2188V20.0938C13.75 19.9063 13.8229 19.7448 13.9688 19.6094C14.1146 19.474 14.2812 19.4062 14.4688 19.4062C14.6771 19.4062 14.849 19.474 14.9844 19.6094C15.1198 19.7448 15.1875 19.9063 15.1875 20.0938V21.9688H25.2188C25.4271 21.9688 25.599 22.0365 25.7344 22.1719C25.8698 22.3073 25.9375 22.4792 25.9375 22.6875C25.9375 22.8958 25.8698 23.0625 25.7344 23.1875C25.599 23.3125 25.4271 23.375 25.2188 23.375H15.1875V25.2188C15.1875 25.4271 15.1198 25.599 14.9844 25.7344C14.849 25.8698 14.6771 25.9375 14.4688 25.9375ZM10.375 18.25C10.1667 18.25 10 18.1823 9.875 18.0469C9.75 17.9115 9.6875 17.75 9.6875 17.5625V15.7188H4.78125C4.57292 15.7188 4.40104 15.651 4.26562 15.5156C4.13021 15.3802 4.0625 15.2083 4.0625 15C4.0625 14.7917 4.13021 14.6198 4.26562 14.4844C4.40104 14.349 4.57292 14.2812 4.78125 14.2812H9.6875V12.4062C9.6875 12.2188 9.75521 12.0521 9.89062 11.9062C10.026 11.7604 10.1979 11.6875 10.4062 11.6875C10.5938 11.6875 10.7552 11.7604 10.8906 11.9062C11.026 12.0521 11.0938 12.2188 11.0938 12.4062V17.5625C11.0938 17.75 11.026 17.9115 10.8906 18.0469C10.7552 18.1823 10.5833 18.25 10.375 18.25ZM14.4688 15.7188C14.2812 15.7188 14.1146 15.651 13.9688 15.5156C13.8229 15.3802 13.75 15.2083 13.75 15C13.75 14.7917 13.8229 14.6198 13.9688 14.4844C14.1146 14.349 14.2812 14.2812 14.4688 14.2812H25.2188C25.4271 14.2812 25.599 14.349 25.7344 14.4844C25.8698 14.6198 25.9375 14.7917 25.9375 15C25.9375 15.2083 25.8698 15.3802 25.7344 15.5156C25.599 15.651 25.4271 15.7188 25.2188 15.7188H14.4688ZM19.5938 10.5938C19.4062 10.5938 19.2448 10.526 19.1094 10.3906C18.974 10.2552 18.9062 10.0833 18.9062 9.875V4.78125C18.9062 4.57292 18.974 4.40104 19.1094 4.26562C19.2448 4.13021 19.4167 4.0625 19.625 4.0625C19.8333 4.0625 20 4.13021 20.125 4.26562C20.25 4.40104 20.3125 4.57292 20.3125 4.78125V6.625H25.2188C25.4271 6.625 25.599 6.69271 25.7344 6.82812C25.8698 6.96354 25.9375 7.13542 25.9375 7.34375C25.9375 7.53125 25.8698 7.69271 25.7344 7.82812C25.599 7.96354 25.4271 8.03125 25.2188 8.03125H20.3125V9.875C20.3125 10.0833 20.2448 10.2552 20.1094 10.3906C19.974 10.526 19.8021 10.5938 19.5938 10.5938Z" fill="white"/>
</svg>
