<svg width="24" height="16" viewBox="0 0 24 16" fill="none" xmlns="http://www.w3.org/2000/svg">
<path d="M2.1351 12.9162C2.23869 12.9029 2.33293 12.848 2.39721 12.7636C2.4615 12.6792 2.4906 12.572 2.47814 12.4656C2.31513 11.1204 2.42224 9.75522 2.79288 8.45411C3.16352 7.153 3.78984 5.94356 4.63324 4.90032C5.47664 3.85708 6.51926 3.00213 7.69685 2.38815C8.87444 1.77418 10.1621 1.41418 11.4804 1.33034C12.7987 1.24651 14.1198 1.44061 15.3622 1.90068C16.6046 2.36076 17.7421 3.07707 18.7046 4.00547C19.667 4.93387 20.434 6.0547 20.9583 7.2989C21.4826 8.54309 21.7532 9.8843 21.7532 11.2399C21.7528 11.6496 21.7286 12.0589 21.6808 12.4656C21.6679 12.5719 21.6966 12.679 21.7607 12.7635C21.8247 12.848 21.9188 12.9029 22.0223 12.9162H22.0711C22.167 12.9165 22.2598 12.8807 22.3317 12.8155C22.4037 12.7503 22.4498 12.6603 22.4613 12.5625C22.5136 12.1232 22.5399 11.6809 22.54 11.2383C22.54 8.38992 21.4375 5.65825 19.475 3.64417C17.5126 1.63009 14.8509 0.498596 12.0755 0.498596C9.3002 0.498596 6.63853 1.63009 4.67606 3.64417C2.71359 5.65825 1.61108 8.38992 1.61108 11.2383C1.61097 11.681 1.63777 12.1233 1.69134 12.5625C1.69735 12.6159 1.71366 12.6675 1.73933 12.7143C1.765 12.761 1.79951 12.8021 1.84083 12.835C1.88216 12.868 1.92947 12.8921 1.97999 12.9061C2.03052 12.92 2.08325 12.9235 2.1351 12.9162Z" fill="white"/>
<path d="M12.4721 3.39844C12.4723 3.34536 12.4623 3.29276 12.4426 3.24368C12.4229 3.1946 12.3939 3.15 12.3574 3.11247C12.3208 3.07494 12.2774 3.04521 12.2295 3.02499C12.1817 3.00478 12.1305 2.99448 12.0787 2.99469C9.94786 2.99555 7.9044 3.86423 6.39706 5.41001C4.88971 6.95578 4.04169 9.05229 4.03918 11.2392C4.03918 11.3463 4.08063 11.449 4.15441 11.5247C4.22819 11.6004 4.32825 11.643 4.43259 11.643C4.53692 11.643 4.63698 11.6004 4.71076 11.5247C4.78454 11.449 4.82599 11.3463 4.82599 11.2392C4.82682 9.26548 5.59127 7.37287 6.95129 5.97739C8.3113 4.58191 10.1556 3.79777 12.0787 3.79734C12.1823 3.79735 12.2816 3.75548 12.3553 3.68081C12.4289 3.60613 12.4709 3.50468 12.4721 3.39844Z" fill="white"/>
<path d="M16.7632 5.20325C16.6896 5.27921 16.6483 5.38198 16.6483 5.48911C16.6483 5.59624 16.6896 5.69901 16.7632 5.77496C17.4703 6.48737 18.0315 7.33774 18.4136 8.27601C18.7957 9.21429 18.9911 10.2215 18.9883 11.2385C18.9883 11.3455 19.0298 11.4482 19.1036 11.524C19.1773 11.5997 19.2774 11.6422 19.3817 11.6422C19.4861 11.6422 19.5861 11.5997 19.6599 11.524C19.7337 11.4482 19.7751 11.3455 19.7751 11.2385C19.7779 10.1135 19.5614 8.99939 19.1385 7.96156C18.7156 6.92374 18.0947 5.98317 17.3124 5.19518C17.2379 5.12276 17.1388 5.08307 17.0362 5.08458C16.9336 5.08608 16.8357 5.12867 16.7632 5.20325Z" fill="white"/>
<path d="M23.1066 14.6939H0.893401C0.789065 14.6939 0.688992 14.7364 0.615215 14.8122C0.541438 14.8879 0.5 14.9906 0.5 15.0977C0.5 15.2047 0.541438 15.3074 0.615215 15.3831C0.688992 15.4589 0.789065 15.5014 0.893401 15.5014H23.1066C23.2109 15.5014 23.311 15.4589 23.3848 15.3831C23.4585 15.3074 23.5 15.2047 23.5 15.0977C23.5 14.9906 23.4585 14.8879 23.3848 14.8122C23.311 14.7364 23.2109 14.6939 23.1066 14.6939Z" fill="white"/>
<path d="M10.8781 13.2139C10.9505 13.2811 11.0448 13.3179 11.1424 13.3172H11.1865C11.2417 13.3106 11.2949 13.292 11.3426 13.2628C11.3903 13.2336 11.4315 13.1943 11.4634 13.1477L15.6728 6.96873C15.7048 6.92548 15.728 6.87606 15.7409 6.82342C15.7539 6.77078 15.7563 6.716 15.7482 6.66236C15.74 6.60871 15.7214 6.55731 15.6934 6.51122C15.6655 6.46513 15.6288 6.4253 15.5855 6.39411C15.5422 6.36293 15.4932 6.34103 15.4414 6.32972C15.3897 6.31841 15.3363 6.31793 15.2843 6.3283C15.2324 6.33867 15.183 6.35969 15.1392 6.39009C15.0954 6.42049 15.058 6.45965 15.0292 6.50522L11.0748 12.3079L8.91735 10.3101C8.87891 10.2746 8.83403 10.2472 8.78527 10.2295C8.73652 10.2118 8.68484 10.2041 8.63319 10.2068C8.58153 10.2096 8.53091 10.2228 8.48422 10.2457C8.43753 10.2685 8.3957 10.3006 8.36108 10.34C8.32647 10.3795 8.29976 10.4255 8.28249 10.4756C8.26522 10.5256 8.25772 10.5786 8.26043 10.6316C8.26313 10.6847 8.27598 10.7366 8.29825 10.7845C8.32051 10.8324 8.35176 10.8754 8.39019 10.9109L10.8781 13.2139Z" fill="white"/>
</svg>
