<svg class="menu-stability-zone" width="26" height="16" viewBox="0 0 26 16" fill="none" xmlns="http://www.w3.org/2000/svg">
<g clip-path="url(#clip0_1293_11908)">
<path d="M9.2998 15.25H16.2248L12.7623 10.3625L9.2998 15.25Z" fill="white"/>
<path d="M0.912598 9.4751H24.7751" stroke="white" stroke-width="0.66" stroke-miterlimit="10" stroke-linecap="round" class="menu-stability-zone-stroke" />
<path d="M5.22482 8.23754C5.99175 8.24001 6.74216 8.01485 7.38104 7.59056C8.01992 7.16628 8.51854 6.56195 8.81374 5.85411C9.10895 5.14627 9.18749 4.36673 9.03938 3.61424C8.89128 2.86174 8.52321 2.17011 7.98178 1.62693C7.44035 1.08375 6.74992 0.71347 5.99791 0.562937C5.24589 0.412403 4.46612 0.488371 3.75733 0.78129C3.04853 1.07421 2.44261 1.5709 2.01626 2.20841C1.58991 2.84592 1.36233 3.59559 1.36232 4.36253C1.36068 4.87081 1.45937 5.3744 1.65274 5.84446C1.84611 6.31453 2.13036 6.74183 2.48919 7.10182C2.84802 7.46182 3.27437 7.74743 3.7438 7.94232C4.21324 8.13721 4.71654 8.23754 5.22482 8.23754ZM5.22482 1.525C5.78903 1.52501 6.34054 1.69251 6.80948 2.00623C7.27843 2.31995 7.6437 2.76578 7.85904 3.28728C8.07438 3.80878 8.13009 4.38246 8.0191 4.93565C7.90812 5.48883 7.63544 5.99662 7.2356 6.39469C6.83577 6.79277 6.32679 7.06323 5.77313 7.17179C5.21946 7.28034 4.64603 7.2221 4.12548 7.00447C3.60494 6.78684 3.1607 6.41961 2.84905 5.94929C2.53739 5.47897 2.37235 4.92673 2.37482 4.36253C2.37813 3.60883 2.67986 2.88713 3.21398 2.35535C3.7481 1.82357 4.47111 1.525 5.22482 1.525Z" fill="white"/>
<path d="M20.3 8.23754C21.0669 8.24001 21.8174 8.01485 22.4562 7.59056C23.0951 7.16628 23.5937 6.56195 23.8889 5.85411C24.1841 5.14627 24.2627 4.36673 24.1146 3.61424C23.9665 2.86174 23.5984 2.17011 23.057 1.62693C22.5155 1.08375 21.8251 0.71347 21.0731 0.562937C20.3211 0.412403 19.5413 0.488371 18.8325 0.78129C18.1237 1.07421 17.5178 1.5709 17.0914 2.20841C16.6651 2.84592 16.4375 3.59559 16.4375 4.36253C16.4375 5.38808 16.844 6.37182 17.568 7.09816C18.292 7.82451 19.2744 8.23423 20.3 8.23754ZM20.3 1.525C20.8642 1.52501 21.4157 1.69251 21.8847 2.00623C22.3536 2.31995 22.7189 2.76578 22.9342 3.28728C23.1496 3.80878 23.2053 4.38246 23.0943 4.93565C22.9833 5.48883 22.7106 5.99662 22.3108 6.39469C21.9109 6.79277 21.402 7.06323 20.8483 7.17179C20.2946 7.28034 19.7212 7.2221 19.2007 7.00447C18.6801 6.78684 18.2359 6.41961 17.9242 5.94929C17.6126 5.47897 17.4475 4.92673 17.45 4.36253C17.45 3.98885 17.5238 3.61885 17.6672 3.27378C17.8105 2.9287 18.0207 2.61534 18.2855 2.35169C18.5503 2.08804 18.8646 1.87927 19.2103 1.73741C19.556 1.59555 19.9263 1.52336 20.3 1.525Z" fill="white"/>
</g>
<defs>
<clipPath id="clip0_1293_11908">
<rect width="24.6875" height="14.75" fill="white" transform="translate(0.5 0.5)"/>
</clipPath>
</defs>
</svg>
