<svg width="30" height="30" fill="none" xmlns="http://www.w3.org/2000/svg">
  <path d="M23.954 15.95v.08a9.169 9.169 0 0 1-1.747 4.828 9.127 9.127 0 0 1-4.066 3.123 9.098 9.098 0 0 1-9.635-1.957l-.388-.27-2.162 2.168v-6.444l3.835-.05a5.52 5.52 0 0 0 2.409 2.917 5.494 5.494 0 0 0 6.991-1.208 5.535 5.535 0 0 0 1.297-3.557 2.073 2.073 0 0 0-.17-.92l4.523-.079L24.99 5l-3.137 3.257A10.022 10.022 0 0 0 11.326 6.42a10.055 10.055 0 0 0-4.363 3.457A10.1 10.1 0 0 0 5.1 15.13v.19h.846l.08-.11v-.08a9.169 9.169 0 0 1 1.748-4.828 9.127 9.127 0 0 1 4.065-3.123 9.097 9.097 0 0 1 9.635 1.957l.379.26 2.161-2.158v6.444h-3.825a5.52 5.52 0 0 0-2.406-2.916 5.494 5.494 0 0 0-6.99 1.201 5.535 5.535 0 0 0-1.301 3.553c-.015.319.043.637.17.93l-4.523.08L5 26.11l3.137-3.257a10.021 10.021 0 0 0 10.458 1.865 10.054 10.054 0 0 0 4.367-3.393 10.1 10.1 0 0 0 1.919-5.195v-.19l-.847-.05-.08.06Zm-8.964-4.916c.907 0 1.793.27 2.546.775a4.609 4.609 0 0 1 .69 7.074 4.577 4.577 0 0 1-4.996.99 4.585 4.585 0 0 1-2.054-1.697 4.605 4.605 0 0 1 2.07-6.796A4.57 4.57 0 0 1 15 11.034h-.01Z" fill="#fff"/>
  <path d="M15.359 17.019a1.051 1.051 0 0 1-.369.06 2.316 2.316 0 0 1-1.245-.45l-.15-.11-.487.7v.13h.07c.398.31.88.49 1.384.52h.09l.09 1.188h.846v-1.199a1.553 1.553 0 0 0 .996-1.059 1.202 1.202 0 0 0-.568-1.329 2.416 2.416 0 0 0-.996-.39c-.398-.08-.637-.23-.717-.449a.461.461 0 0 1 .18-.52.994.994 0 0 1 .607-.19c.407.022.804.142 1.155.35l.17.1.438-.729v-.12l-.07-.05a2.793 2.793 0 0 0-1.225-.38l-.08-1.118-.856.08.07.999c-.264.051-.512.16-.728.32a1.399 1.399 0 0 0-.488 1.588 1.718 1.718 0 0 0 1.414.999c.214.04.417.12.598.24.25.18.22.28.21.32a.61.61 0 0 1-.34.499Z" fill="#fff"/>
</svg>