<svg width="36" height="37" viewBox="0 0 36 37" fill="none" xmlns="http://www.w3.org/2000/svg">
<path fill-rule="evenodd" clip-rule="evenodd" d="M3.87868 6.29872C3 7.1774 3 8.59162 3 11.42V26.42C3 29.2485 3 30.6627 3.87868 31.5414C4.75736 32.42 6.17157 32.42 9 32.42H27C29.8284 32.42 31.2426 32.42 32.1213 31.5414C33 30.6627 33 29.2485 33 26.42V11.42C33 8.59162 33 7.1774 32.1213 6.29872C31.2426 5.42004 29.8284 5.42004 27 5.42004H9C6.17157 5.42004 4.75736 5.42004 3.87868 6.29872ZM24 13.42C24.5523 13.42 25 13.8678 25 14.42V26.42C25 26.9723 24.5523 27.42 24 27.42C23.4477 27.42 23 26.9723 23 26.42V14.42C23 13.8678 23.4477 13.42 24 13.42ZM13 17.42C13 16.8678 12.5523 16.42 12 16.42C11.4477 16.42 11 16.8678 11 17.42V26.42C11 26.9723 11.4477 27.42 12 27.42C12.5523 27.42 13 26.9723 13 26.42V17.42ZM19 20.42C19 19.8678 18.5523 19.42 18 19.42C17.4477 19.42 17 19.8678 17 20.42V26.42C17 26.9723 17.4477 27.42 18 27.42C18.5523 27.42 19 26.9723 19 26.42V20.42Z" fill="#A99DB2"/>
</svg>
