<svg width="30" height="30" fill="none" xmlns="http://www.w3.org/2000/svg">
  <path d="M15.119 7.59h-2.063c-3.772 0-5.657 0-6.829 1.17-1.171 1.172-1.171 3.058-1.171 6.83v7.75c0 .942 0 1.414.293 1.707.292.293.764.293 1.707.293h7.89c3.771 0 5.657 0 6.828-1.172 1.172-1.172 1.172-3.057 1.172-6.828v-1.985" stroke="#fff"/>
  <path d="M10.167 13.929h7.667M10.167 19h3.834" stroke="#fff" stroke-linecap="round" stroke-linejoin="round"/>
  <path d="m19.113 7.59 1.851 1.836a1 1 0 0 0 1.409 0l4.407-4.372" stroke="#fff" stroke-linecap="round"/>
</svg>