<?xml version="1.0" standalone="no"?>
<!DOCTYPE svg PUBLIC "-//W3C//DTD SVG 20010904//EN"
 "http://www.w3.org/TR/2001/REC-SVG-20010904/DTD/svg10.dtd">
<svg version="1.0" xmlns="http://www.w3.org/2000/svg"
 width="1040.000000pt" height="1040.000000pt" viewBox="0 0 1040.000000 1040.000000"
 preserveAspectRatio="xMidYMid meet">
<metadata>
Created by potrace 1.14, written by Peter Selinger 2001-2017
</metadata>
<g transform="translate(0.000000,1040.000000) scale(0.100000,-0.100000)"
fill="#000000" stroke="none">
<path d="M5218 10395 c-2 -2 -51 -6 -109 -9 -58 -4 -114 -8 -125 -10 -10 -2
-50 -7 -89 -10 -38 -4 -83 -9 -100 -13 -16 -3 -41 -7 -55 -8 -14 -1 -45 -5
-70 -9 -25 -4 -58 -10 -75 -12 -16 -3 -49 -9 -73 -15 -24 -5 -48 -7 -53 -4 -5
4 -9 2 -9 -4 0 -7 -46 -10 -127 -10 -118 0 -184 -4 -239 -15 -62 -13 -191 -50
-201 -59 -7 -5 -13 -7 -13 -3 0 3 -39 -8 -87 -25 -101 -35 -112 -39 -116 -37
-1 1 -13 -5 -27 -12 -14 -8 -27 -15 -30 -15 -11 -1 -138 -53 -245 -100 -150
-66 -200 -90 -206 -98 -3 -5 -9 -8 -13 -7 -9 2 -257 -129 -277 -146 -9 -8 -19
-11 -22 -7 -4 3 -7 1 -7 -5 0 -7 -5 -12 -10 -12 -6 0 -37 -18 -70 -39 -32 -22
-68 -42 -79 -46 -12 -3 -21 -11 -21 -16 0 -5 -7 -9 -15 -9 -8 0 -15 -3 -15 -8
0 -4 -13 -13 -28 -20 -16 -6 -38 -21 -50 -32 -12 -11 -26 -20 -32 -20 -5 0
-10 -4 -10 -10 0 -5 -4 -10 -10 -10 -5 0 -38 -21 -72 -46 -147 -109 -223 -169
-226 -176 -2 -4 -8 -8 -13 -8 -5 0 -17 -8 -27 -17 -10 -10 -39 -36 -66 -58
-27 -22 -72 -60 -100 -85 -73 -64 -421 -415 -481 -484 -57 -67 -252 -312 -275
-346 -17 -25 -85 -120 -97 -135 -24 -30 -153 -237 -153 -245 0 -6 -4 -10 -10
-10 -5 0 -10 -4 -10 -10 0 -5 -22 -47 -49 -92 -72 -123 -183 -338 -174 -338 4
0 2 -4 -5 -9 -7 -4 -14 -14 -16 -22 -1 -8 -8 -25 -16 -39 -8 -14 -15 -27 -15
-30 -1 -3 -9 -22 -18 -44 -9 -21 -17 -42 -17 -47 0 -5 -5 -9 -12 -9 -6 0 -8
-3 -5 -7 4 -3 2 -12 -4 -20 -6 -7 -8 -13 -4 -13 4 0 3 -6 -3 -12 -24 -32 -175
-455 -166 -469 3 -5 1 -9 -4 -9 -5 0 -12 -14 -16 -30 -7 -37 -7 -36 -24 -90
-8 -25 -16 -58 -18 -73 -2 -15 -8 -36 -14 -47 -6 -11 -10 -23 -9 -27 1 -4 0
-10 -1 -13 -3 -8 -8 -33 -15 -65 -3 -16 -8 -38 -11 -47 -5 -16 -9 -35 -19 -88
-3 -14 -7 -36 -10 -50 -3 -14 -7 -38 -10 -55 -11 -75 -16 -102 -21 -125 -7
-30 -15 -93 -29 -225 -2 -22 -7 -56 -9 -75 -14 -93 -21 -269 -20 -520 0 -289
4 -380 29 -603 12 -111 49 -340 70 -437 3 -14 8 -41 11 -60 4 -19 8 -42 10
-50 13 -53 36 -149 41 -170 2 -14 7 -32 10 -40 4 -8 6 -18 5 -22 -1 -4 5 -23
13 -42 9 -20 15 -39 15 -43 1 -5 10 -39 22 -78 11 -38 21 -74 22 -80 1 -5 4
-14 7 -20 4 -5 14 -35 24 -65 10 -30 38 -107 62 -170 52 -137 63 -163 117
-279 15 -30 26 -61 26 -68 0 -7 5 -13 12 -13 6 0 8 -3 5 -6 -7 -7 21 -64 36
-75 5 -3 8 -10 8 -15 -2 -19 11 -44 21 -44 6 0 9 -3 5 -6 -3 -3 6 -27 20 -52
31 -56 121 -215 146 -257 10 -16 20 -38 23 -47 4 -10 9 -18 13 -18 3 0 17 -20
31 -45 14 -25 28 -45 32 -45 5 0 8 -5 8 -11 0 -10 57 -99 70 -109 4 -3 13 -16
20 -29 7 -14 17 -30 21 -35 5 -6 63 -82 129 -169 67 -87 129 -166 138 -176 9
-10 42 -46 72 -81 86 -98 365 -378 465 -465 50 -44 91 -83 93 -87 2 -4 10 -8
18 -8 8 0 14 -3 14 -8 0 -4 26 -27 57 -52 32 -24 63 -48 68 -52 6 -5 42 -32
80 -61 39 -28 72 -55 73 -59 2 -5 10 -8 18 -8 8 0 17 -7 20 -15 4 -8 10 -15
16 -15 5 0 24 -11 42 -25 18 -14 38 -25 44 -25 6 0 12 -4 14 -8 4 -12 95 -72
107 -72 6 0 11 -4 11 -10 0 -5 4 -10 9 -10 9 0 110 -58 121 -70 3 -3 30 -18
60 -34 30 -16 67 -38 83 -48 15 -11 27 -16 27 -13 0 3 12 -2 28 -12 26 -19
282 -147 292 -148 3 0 46 -18 95 -39 50 -21 104 -45 121 -52 77 -33 438 -158
472 -163 7 -1 35 -9 107 -30 22 -7 49 -14 60 -16 11 -2 20 -4 20 -5 0 -2 35
-10 68 -15 15 -2 31 -7 36 -9 5 -3 26 -8 47 -11 22 -4 47 -8 56 -11 25 -7 54
-13 173 -34 184 -32 215 -36 311 -45 38 -4 83 -9 99 -11 195 -26 844 -25 1020
1 17 3 57 8 90 11 121 13 177 20 252 35 29 6 57 8 63 4 5 -3 10 -2 10 3 0 5
21 13 48 16 26 4 54 9 62 11 8 1 29 5 45 8 126 24 414 102 580 158 133 46 380
142 436 170 20 10 39 15 43 12 3 -4 6 -2 6 4 0 9 14 16 40 21 8 1 249 126 315
162 110 61 124 69 164 95 23 14 41 23 41 20 0 -3 10 3 22 15 12 11 34 26 50
32 15 7 28 16 28 20 0 5 7 8 15 8 7 0 18 8 24 17 5 10 12 17 15 15 9 -4 106
61 106 70 0 5 6 8 13 8 6 0 23 9 37 20 14 11 77 59 140 107 108 81 183 143
308 252 69 59 354 341 412 407 109 124 158 181 200 237 8 11 23 28 33 38 9 11
17 23 17 28 0 5 4 11 8 13 7 3 85 103 122 158 8 12 33 47 56 79 22 31 43 61
45 66 2 6 29 48 60 95 31 47 74 119 95 160 21 41 41 77 44 80 17 16 75 215 86
295 9 64 11 287 3 300 -4 6 -9 28 -12 50 -15 94 -101 318 -131 337 -6 4 -7 8
-3 8 11 0 -76 124 -122 174 -69 74 -141 138 -191 168 -19 12 -37 24 -40 27 -3
4 -16 12 -29 19 -13 8 -39 22 -57 33 -19 10 -34 16 -34 13 0 -4 -10 0 -22 8
-13 8 -41 20 -63 27 -22 7 -47 15 -55 19 -8 3 -22 6 -30 8 -8 1 -33 6 -55 12
-22 6 -58 12 -80 13 -22 2 -44 5 -49 8 -10 5 -179 2 -227 -4 -24 -3 -101 -18
-159 -31 -14 -3 -31 -6 -37 -6 -7 -1 -13 -5 -13 -9 0 -3 -10 -9 -22 -12 -38
-9 -95 -32 -109 -44 -8 -6 -26 -14 -42 -18 -15 -4 -27 -10 -27 -14 0 -4 -12
-14 -27 -22 -46 -22 -128 -87 -194 -151 -38 -38 -133 -155 -156 -193 -7 -11
-24 -40 -39 -65 -28 -48 -183 -271 -194 -280 -3 -3 -24 -27 -45 -55 -163 -205
-487 -502 -656 -602 -16 -10 -29 -21 -29 -25 0 -4 -5 -8 -10 -8 -9 0 -78 -41
-105 -63 -38 -30 -418 -216 -421 -205 0 1 -7 -2 -15 -8 -16 -13 -90 -39 -101
-36 -5 1 -8 -2 -8 -7 0 -5 -15 -12 -32 -16 -36 -8 -45 -11 -53 -15 -3 -1 -9
-4 -15 -5 -5 -1 -11 -3 -12 -5 -2 -1 -10 -3 -18 -5 -8 -2 -26 -7 -40 -10 -14
-4 -31 -7 -37 -7 -7 -1 -13 -5 -13 -9 0 -5 -63 -19 -92 -20 -4 0 -26 -6 -48
-14 -22 -8 -43 -14 -45 -14 -5 1 -132 -20 -170 -27 -11 -2 -40 -6 -65 -9 -25
-3 -55 -7 -68 -9 -31 -7 -242 -18 -322 -18 -174 0 -421 22 -540 47 -14 3 -41
8 -60 10 -51 7 -242 54 -262 65 -9 5 -31 12 -49 15 -17 3 -41 11 -53 17 -11 6
-23 11 -26 10 -35 -11 -574 242 -602 282 -5 7 -8 7 -8 1 0 -7 -3 -7 -8 0 -9
13 -81 59 -104 68 -10 3 -18 11 -18 17 0 5 -5 10 -11 10 -6 0 -27 12 -47 27
-20 16 -41 31 -47 35 -40 30 -199 161 -239 198 -161 148 -274 274 -434 485
-20 26 -141 213 -152 235 -7 14 -16 27 -19 30 -3 3 -17 28 -31 55 -13 28 -28
53 -33 56 -5 3 -8 8 -6 10 1 2 -17 45 -40 94 -23 50 -47 101 -53 115 -6 14
-17 37 -25 53 -8 15 -12 27 -8 27 3 0 -1 13 -9 29 -9 16 -12 31 -9 35 4 3 1 6
-5 6 -7 0 -12 10 -12 23 0 13 -4 27 -9 32 -5 6 -11 21 -13 35 -1 14 -6 27 -10
30 -3 3 -8 19 -11 35 -3 17 -12 53 -21 80 -8 28 -17 61 -20 75 -3 14 -10 45
-16 70 -15 71 -17 82 -25 130 -4 25 -9 52 -10 60 -2 9 -6 43 -10 75 -4 33 -9
74 -12 90 -3 17 -6 134 -8 260 -2 174 2 267 16 384 10 84 20 160 23 167 3 8 8
34 11 58 4 25 17 89 31 143 13 54 26 106 29 115 2 9 8 25 14 36 6 11 8 22 5
25 -3 3 0 15 6 27 6 12 14 34 16 48 3 15 9 31 15 37 5 5 9 15 9 23 0 8 6 28
14 45 7 18 24 59 37 92 28 75 183 382 204 405 8 9 15 20 15 24 0 13 179 273
215 312 5 6 26 30 45 54 19 23 47 56 62 74 15 17 28 34 28 39 0 4 7 7 15 7 8
0 15 4 15 9 0 17 199 207 331 316 52 43 215 157 273 192 33 20 63 39 66 42 12
14 311 167 380 194 25 10 54 23 65 28 12 6 27 11 35 13 8 1 32 10 54 19 21 9
44 17 51 17 6 0 15 3 19 7 3 4 12 8 19 10 7 1 44 12 82 23 111 33 246 66 310
76 22 3 49 8 60 9 11 2 38 6 60 10 22 4 51 8 65 10 154 25 689 25 762 0 7 -2
36 -6 63 -9 28 -3 62 -8 78 -11 15 -3 37 -7 50 -9 12 -2 33 -7 47 -10 14 -3
36 -8 50 -11 14 -2 43 -9 65 -15 22 -6 49 -12 60 -14 11 -2 58 -16 105 -31
143 -45 124 -38 235 -81 11 -4 22 -8 25 -9 24 -8 113 -48 195 -89 55 -27 107
-51 115 -52 8 -2 16 -8 18 -13 2 -6 10 -11 18 -11 8 0 14 -4 14 -9 0 -5 11
-12 24 -15 14 -3 31 -12 38 -19 7 -6 27 -19 43 -27 17 -8 38 -22 48 -31 9 -9
30 -22 45 -30 15 -8 32 -17 37 -22 6 -4 28 -21 50 -37 186 -137 228 -174 443
-387 163 -163 221 -209 342 -275 85 -46 216 -90 305 -103 11 -2 20 -4 20 -5 0
-1 20 -3 45 -4 25 -1 50 -5 57 -9 6 -4 14 -3 18 3 4 7 12 7 24 0 10 -5 20 -7
22 -5 3 2 36 6 74 9 108 8 169 21 265 54 58 20 152 62 160 71 3 4 19 13 35 21
17 8 32 17 35 20 3 3 21 17 40 30 229 159 401 453 426 728 3 31 7 63 9 70 3 6
-1 12 -8 12 -8 0 -8 3 -1 8 5 4 9 30 8 57 -12 234 -75 416 -205 599 -45 63
-391 415 -489 498 -30 25 -65 54 -76 65 -12 10 -39 32 -60 48 -20 17 -43 36
-51 43 -7 7 -13 11 -13 8 0 -3 -10 5 -23 17 -12 12 -35 31 -51 42 -15 11 -56
41 -89 66 -95 70 -304 209 -316 209 -6 0 -11 5 -11 10 0 6 -4 10 -9 10 -6 0
-30 14 -54 30 -25 17 -50 30 -56 30 -6 0 -11 5 -11 11 0 5 -4 8 -9 5 -5 -4
-11 -3 -13 1 -7 18 -473 253 -500 253 -8 0 -18 4 -24 9 -26 27 -548 216 -565
205 -5 -3 -9 -1 -9 4 0 5 -21 14 -47 20 -27 7 -57 15 -68 18 -11 3 -31 7 -45
10 -36 8 -43 10 -60 17 -18 7 -207 49 -280 62 -19 3 -55 10 -80 15 -25 5 -63
12 -85 15 -23 3 -51 7 -64 10 -12 2 -49 7 -82 10 -33 4 -69 8 -80 10 -11 2
-52 7 -92 10 -40 4 -92 9 -117 11 -49 6 -647 14 -652 9z"/>
<path d="M5558 6805 c-2 -2 -37 -6 -78 -9 -147 -11 -400 -73 -447 -109 -7 -5
-13 -7 -13 -3 0 9 -187 -90 -251 -134 -82 -56 -91 -63 -194 -165 -108 -107
-126 -129 -201 -245 -76 -118 -195 -398 -188 -443 1 -9 -3 -17 -9 -17 -5 0 -8
-3 -5 -6 3 -3 1 -22 -5 -42 -5 -20 -11 -50 -13 -67 -1 -16 -3 -30 -4 -30 -13
0 -30 -329 -19 -361 4 -12 3 -26 -4 -33 -6 -6 -7 -11 -2 -11 6 0 11 -17 11
-38 2 -73 16 -153 45 -262 11 -41 21 -82 23 -90 17 -67 127 -312 153 -338 7
-7 13 -17 13 -22 0 -16 136 -187 199 -250 36 -36 95 -88 131 -115 36 -28 67
-52 70 -55 6 -6 45 -29 88 -51 18 -10 38 -22 45 -27 11 -9 150 -71 172 -76 6
-2 17 -6 25 -9 28 -11 125 -39 147 -42 11 -2 29 -6 40 -9 10 -3 36 -8 58 -11
22 -4 54 -9 70 -13 44 -9 420 -8 490 1 32 5 89 15 125 24 36 8 70 16 75 17 33
8 102 29 110 34 6 4 15 7 20 8 6 1 28 10 50 19 22 10 43 17 48 17 4 -1 7 3 7
10 0 6 3 8 6 5 12 -12 199 100 283 168 208 169 390 436 466 685 9 30 23 72 31
93 8 20 12 37 9 37 -2 0 0 11 5 24 5 13 11 44 14 68 3 23 8 54 11 68 19 88 24
309 11 430 -14 120 -22 168 -51 275 -35 129 -117 335 -137 343 -5 2 -6 8 -2
13 3 5 0 9 -5 9 -6 0 -11 4 -11 10 0 20 -100 163 -170 244 -168 193 -442 362
-685 422 -16 4 -34 9 -40 10 -100 33 -475 65 -475 40 0 -7 -3 -7 -8 -1 -8 11
-27 17 -34 10z"/>
</g>
</svg>
