<?xml version="1.0" standalone="no"?>
<!DOCTYPE svg PUBLIC "-//W3C//DTD SVG 20010904//EN"
 "http://www.w3.org/TR/2001/REC-SVG-20010904/DTD/svg10.dtd">
<svg version="1.0" xmlns="http://www.w3.org/2000/svg"
 width="520.000000pt" height="520.000000pt" viewBox="0 0 520.000000 520.000000"
 preserveAspectRatio="xMidYMid meet">
<metadata>
Created by potrace 1.14, written by Peter Selinger 2001-2017
</metadata>
<g transform="translate(0.000000,520.000000) scale(0.100000,-0.100000)"
fill="#000000" stroke="none">
<path d="M1325 5180 c-133 -24 -142 -26 -251 -61 -93 -30 -320 -139 -372 -179
-15 -12 -61 -47 -102 -79 -106 -82 -261 -239 -294 -300 -5 -9 -12 -18 -15 -21
-42 -35 -157 -281 -175 -375 -4 -16 -9 -41 -11 -55 -14 -66 -16 -262 -22
-1871 -5 -1592 -4 -1729 11 -1761 9 -19 22 -36 29 -37 37 -7 807 -6 832 1 65
18 60 -135 61 1751 0 942 4 1730 8 1752 19 99 113 246 201 311 101 76 176 98
335 98 105 -1 215 -18 226 -35 3 -5 13 -9 23 -9 24 0 127 -68 173 -114 64 -64
116 -173 135 -279 3 -18 6 -612 8 -1322 2 -709 6 -1316 9 -1348 6 -51 11 -80
32 -185 3 -13 11 -43 20 -65 8 -23 16 -49 18 -57 10 -42 75 -165 135 -255 105
-158 345 -390 486 -469 17 -9 50 -28 75 -42 43 -25 168 -81 200 -90 97 -27
217 -54 265 -61 76 -10 391 -10 470 -1 64 8 150 24 150 28 0 1 11 3 25 6 34 6
178 52 215 69 157 72 313 163 381 222 12 10 43 36 70 58 26 22 75 69 108 104
34 35 69 73 79 83 9 10 17 23 17 28 0 6 4 10 9 10 20 0 146 230 166 305 10 34
10 35 18 55 3 8 9 33 13 55 3 22 9 51 12 65 3 14 7 864 9 1890 2 1357 0 1872
-8 1892 -21 52 -48 55 -459 53 -242 -2 -385 -6 -402 -13 -15 -6 -35 -26 -44
-44 -16 -31 -18 -151 -19 -1838 l-1 -1805 -22 -59 c-110 -298 -455 -426 -779
-289 -35 14 -63 30 -63 35 0 4 -7 8 -14 8 -15 0 -39 19 -106 85 -41 40 -97
138 -105 185 -3 19 -9 38 -12 44 -4 6 -8 589 -9 1296 -2 1180 -5 1379 -18
1480 -12 95 -47 234 -71 280 -8 15 -11 30 -8 34 4 3 2 6 -3 6 -6 0 -16 17 -23
38 -8 20 -32 66 -53 102 -153 253 -379 438 -718 588 -45 20 -190 68 -232 76
-13 3 -34 8 -48 11 -27 6 -66 13 -115 22 -16 2 -102 6 -190 8 -120 2 -185 -2
-260 -15z"/>
</g>
</svg>
