<?xml version="1.0" standalone="no"?>
<!DOCTYPE svg PUBLIC "-//W3C//DTD SVG 20010904//EN"
 "http://www.w3.org/TR/2001/REC-SVG-20010904/DTD/svg10.dtd">
<svg version="1.0" xmlns="http://www.w3.org/2000/svg"
 width="1040.000000pt" height="1040.000000pt" viewBox="0 0 1040.000000 1040.000000"
 preserveAspectRatio="xMidYMid meet">
<metadata>
Created by potrace 1.14, written by Peter Selinger 2001-2017
</metadata>
<g transform="translate(0.000000,1040.000000) scale(0.100000,-0.100000)"
fill="#000000" stroke="none">
<path d="M5218 10395 c-1 -2 -51 -6 -109 -9 -58 -4 -114 -8 -125 -10 -10 -2
-50 -7 -89 -10 -38 -4 -83 -9 -100 -13 -16 -3 -41 -7 -55 -8 -14 -1 -45 -5
-70 -9 -25 -4 -58 -10 -75 -12 -16 -3 -49 -9 -73 -15 -24 -5 -48 -7 -53 -4 -5
4 -9 2 -9 -3 0 -5 -58 -9 -132 -9 -183 0 -244 -10 -423 -64 -55 -17 -107 -33
-115 -37 -8 -3 -18 -4 -22 -4 -5 1 -8 -2 -8 -6 0 -5 -6 -9 -13 -9 -19 0 -275
-98 -373 -143 -45 -21 -85 -36 -88 -32 -3 3 -6 0 -6 -6 0 -7 -9 -12 -20 -12
-11 0 -20 -4 -20 -10 0 -5 -7 -10 -15 -10 -17 0 -56 -20 -66 -33 -3 -5 -9 -8
-13 -7 -8 1 -136 -63 -216 -109 -30 -18 -66 -37 -80 -44 -14 -6 -29 -15 -35
-20 -5 -4 -68 -44 -140 -88 -140 -87 -310 -206 -415 -288 -36 -29 -72 -57 -80
-64 -9 -7 -43 -34 -75 -62 -33 -27 -64 -53 -70 -58 -69 -52 -383 -362 -490
-482 -33 -38 -64 -73 -70 -79 -5 -6 -28 -34 -50 -61 -22 -28 -44 -55 -50 -61
-5 -6 -21 -26 -35 -44 -37 -50 -79 -104 -88 -115 -4 -5 -30 -41 -57 -80 -27
-38 -52 -72 -55 -75 -3 -3 -17 -23 -30 -45 -13 -22 -32 -49 -42 -59 -10 -11
-18 -23 -18 -27 0 -5 -13 -28 -30 -52 -16 -25 -30 -50 -30 -56 0 -6 -3 -11 -8
-11 -4 0 -16 -17 -27 -37 -11 -21 -34 -60 -51 -88 -17 -27 -41 -72 -54 -100
-13 -27 -26 -52 -29 -55 -11 -9 -101 -196 -101 -208 0 -7 -4 -12 -10 -12 -5 0
-10 -8 -10 -18 0 -10 -4 -22 -8 -28 -5 -5 -28 -54 -51 -109 -23 -55 -46 -108
-52 -117 -5 -10 -9 -23 -9 -28 0 -6 -9 -30 -19 -53 -32 -72 -91 -249 -85 -258
3 -5 1 -9 -4 -9 -9 0 -28 -65 -24 -82 1 -5 -3 -8 -9 -8 -6 0 -9 -7 -5 -15 3
-8 0 -15 -6 -15 -6 0 -9 -3 -5 -6 3 -3 -1 -23 -8 -45 -8 -22 -14 -41 -15 -44
0 -3 0 -6 -1 -7 0 -2 -2 -10 -4 -18 -1 -8 -15 -64 -30 -125 -15 -60 -29 -121
-31 -135 -2 -14 -7 -36 -10 -50 -3 -14 -8 -36 -10 -50 -2 -14 -6 -34 -9 -46
-3 -12 -7 -39 -10 -60 -3 -21 -8 -50 -11 -64 -3 -14 -8 -43 -10 -65 -2 -22 -6
-53 -9 -70 -2 -16 -7 -52 -10 -80 -3 -27 -8 -66 -10 -85 -27 -219 -27 -797 0
-1020 3 -19 7 -64 9 -100 2 -36 7 -72 10 -80 2 -8 7 -35 10 -60 4 -45 32 -213
42 -260 3 -14 7 -34 9 -45 2 -11 4 -20 5 -20 1 0 3 -9 5 -20 2 -11 8 -42 14
-70 6 -27 13 -59 15 -70 2 -11 9 -35 14 -52 6 -18 8 -33 5 -33 -3 0 0 -6 6
-13 6 -8 8 -17 4 -20 -3 -4 -1 -12 4 -19 6 -7 13 -29 17 -48 7 -38 72 -254 86
-285 5 -11 16 -40 24 -65 32 -100 155 -398 188 -458 10 -18 18 -39 18 -46 0
-8 3 -16 8 -18 4 -1 33 -55 64 -118 32 -63 66 -128 75 -145 10 -16 45 -75 77
-130 85 -144 282 -437 331 -491 5 -6 17 -22 25 -34 8 -12 23 -32 34 -43 10
-12 39 -48 64 -80 25 -31 49 -57 53 -57 5 0 9 -5 9 -10 0 -11 13 -25 130 -153
107 -117 289 -293 405 -394 33 -28 71 -61 85 -73 14 -12 41 -34 60 -49 19 -14
40 -30 46 -36 75 -70 563 -405 590 -405 2 0 23 -12 47 -27 85 -54 314 -172
335 -173 7 0 10 -4 7 -10 -3 -5 2 -10 12 -10 10 0 30 -8 43 -17 14 -10 27 -17
30 -16 3 1 25 -8 50 -19 25 -11 59 -25 75 -33 122 -53 469 -181 521 -191 12
-2 40 -10 63 -19 23 -8 42 -14 44 -14 1 0 9 -2 17 -5 8 -3 44 -12 80 -21 36
-8 72 -17 80 -19 28 -8 115 -28 140 -32 14 -3 41 -9 60 -14 32 -8 96 -20 128
-22 6 -1 12 -5 12 -10 0 -5 4 -6 10 -3 5 3 49 -1 97 -9 85 -15 130 -21 238
-32 28 -3 66 -7 85 -9 167 -20 689 -27 875 -12 160 12 209 17 245 22 19 3 55
8 80 11 25 3 54 7 65 8 139 19 157 22 183 30 9 3 37 8 62 12 50 7 75 12 75 14
0 1 7 3 15 5 8 1 42 8 75 15 33 7 67 14 75 15 8 2 15 4 15 5 0 2 22 7 60 15
17 3 39 9 50 12 11 4 25 8 30 9 12 2 123 34 145 42 8 3 20 6 25 8 6 1 39 12
75 24 36 12 73 23 84 25 10 2 24 9 32 16 8 6 14 8 14 4 0 -4 7 -2 15 5 8 7 15
10 15 7 0 -3 60 19 133 49 72 30 137 56 142 58 6 1 20 7 31 14 12 6 24 8 28 5
3 -3 6 -2 6 4 0 6 10 14 23 18 12 4 24 8 27 9 3 1 28 12 55 24 28 13 52 22 54
22 2 -1 7 2 10 7 3 4 43 26 89 48 45 22 82 43 82 47 0 5 6 8 13 8 8 0 51 22
95 49 45 27 82 47 82 45 0 -4 67 39 86 55 7 6 15 7 18 4 3 -4 6 -1 6 5 0 7 7
12 15 12 8 0 15 4 15 9 0 5 10 13 23 17 12 4 24 10 27 13 3 4 48 36 100 71 83
56 121 83 167 120 7 6 15 10 18 10 3 0 18 12 33 26 15 14 39 33 55 42 15 9 27
20 27 24 0 4 5 8 10 8 6 0 21 10 34 23 35 34 76 67 76 62 0 -3 15 10 34 28 18
17 64 59 102 92 86 74 352 341 419 420 28 32 60 69 72 81 13 13 23 26 23 30 0
4 8 14 18 23 10 9 33 36 52 61 19 25 42 54 52 65 33 37 118 156 118 165 0 4 4
10 9 12 13 4 203 288 194 288 -5 0 -3 4 3 8 14 10 59 85 56 95 -1 4 2 7 6 7 5
0 20 26 35 58 30 65 77 192 71 192 -2 0 0 10 5 23 18 46 26 134 25 267 0 74
-3 144 -6 155 -3 11 -9 40 -13 65 -4 25 -11 50 -15 55 -5 6 -9 13 -9 18 -2 24
-16 65 -29 85 -8 12 -11 22 -8 22 11 0 -64 138 -112 207 -42 61 -193 223 -207
223 -4 0 -23 14 -42 30 -18 17 -40 30 -48 30 -8 0 -15 4 -15 8 0 5 -31 25 -70
46 -38 20 -70 34 -70 30 0 -3 -6 -1 -14 5 -14 12 -128 51 -161 56 -11 2 -36 6
-55 10 -84 16 -310 27 -310 15 0 -3 -12 -6 -27 -6 -16 -1 -39 -4 -53 -7 -14
-3 -50 -11 -80 -17 -30 -7 -60 -17 -67 -22 -7 -5 -17 -7 -23 -3 -5 3 -10 1
-10 -4 0 -6 -7 -11 -15 -11 -24 0 -153 -66 -230 -118 -59 -40 -207 -178 -240
-223 -5 -8 -21 -30 -35 -49 -14 -19 -48 -71 -75 -115 -27 -44 -51 -82 -54 -85
-3 -3 -24 -32 -46 -65 -50 -74 -192 -252 -254 -318 -158 -167 -419 -397 -450
-397 -6 0 -11 -4 -11 -8 0 -4 -18 -19 -40 -32 -22 -14 -40 -28 -40 -31 0 -4
-13 -12 -30 -19 -17 -7 -30 -16 -30 -20 0 -4 -14 -13 -31 -20 -17 -7 -36 -18
-43 -24 -6 -6 -21 -16 -33 -23 -47 -27 -258 -138 -263 -138 -3 -1 -31 -13 -63
-28 -32 -15 -62 -27 -67 -27 -5 0 -26 -9 -45 -20 -20 -11 -33 -15 -30 -9 4 6
-3 4 -16 -4 -27 -17 -114 -48 -141 -50 -10 -1 -18 -5 -18 -9 0 -4 -3 -7 -7 -7
-5 1 -10 0 -13 -1 -3 -1 -12 -3 -20 -5 -8 -1 -35 -8 -60 -15 -25 -7 -47 -12
-50 -12 -3 0 -16 -5 -30 -10 -14 -5 -40 -12 -57 -14 -18 -2 -59 -10 -92 -18
-33 -8 -62 -11 -65 -8 -3 3 -6 1 -6 -4 0 -5 -12 -9 -27 -9 -16 -1 -53 -5 -83
-9 -210 -31 -564 -36 -755 -11 -16 2 -52 7 -80 10 -27 3 -82 13 -121 21 -39 8
-75 14 -80 13 -5 -1 -16 0 -24 4 -8 3 -58 15 -110 28 -52 12 -99 24 -105 28
-5 3 -21 7 -34 9 -13 2 -37 10 -53 18 -15 8 -28 12 -28 8 0 -4 -7 -1 -15 6 -8
6 -19 9 -25 5 -5 -3 -10 -1 -10 4 0 6 -3 10 -7 9 -5 0 -17 2 -28 6 -11 5 -45
17 -75 28 -76 29 -353 162 -388 187 -16 11 -35 21 -42 23 -8 2 -20 8 -27 13
-41 33 -91 64 -115 72 -10 3 -18 9 -18 13 0 4 -16 17 -35 29 -20 11 -41 25
-48 31 -6 5 -48 38 -92 72 -191 148 -362 315 -509 499 -37 46 -73 91 -79 99
-98 122 -284 445 -352 610 -14 36 -32 79 -39 95 -7 17 -22 55 -32 85 -10 30
-22 59 -26 65 -4 5 -8 21 -8 35 0 14 -4 30 -9 35 -6 6 -12 21 -15 35 -3 14 -7
35 -10 47 -7 26 -16 63 -20 78 -1 6 -5 19 -9 30 -4 11 -9 34 -11 50 -2 17 -9
55 -15 85 -17 86 -18 92 -25 145 -3 28 -9 75 -13 105 -10 71 -10 538 0 610 4
30 10 75 13 100 8 74 13 100 34 205 12 55 23 110 26 122 2 12 8 33 13 45 5 13
9 26 10 31 0 4 1 8 2 10 0 1 2 13 5 26 2 14 9 30 14 36 5 7 7 15 4 18 -3 3 -2
12 2 19 5 7 9 19 10 26 2 8 6 21 10 30 4 9 8 22 10 29 2 12 46 126 71 183 34
79 147 307 164 331 10 14 16 29 12 33 -3 3 -2 6 4 6 5 0 22 21 37 48 37 65 48
83 68 106 10 11 20 28 24 38 3 10 9 18 14 18 5 0 12 9 15 21 4 12 14 29 23 38
20 21 36 41 77 95 98 130 352 382 493 491 7 5 22 18 33 28 10 9 19 15 19 12 0
-3 8 3 18 13 10 9 27 23 38 29 10 7 44 30 74 52 91 64 253 158 377 219 109 53
201 94 213 94 3 0 10 3 15 8 6 4 42 18 80 30 39 12 76 28 84 34 8 6 16 10 18
8 3 -3 56 11 134 34 25 8 54 16 65 18 10 2 37 9 59 14 22 6 54 13 70 16 17 3
41 7 55 10 143 32 353 50 570 50 225 1 443 -18 580 -49 14 -3 48 -10 75 -15
28 -5 68 -14 90 -20 22 -6 48 -12 58 -15 133 -31 473 -156 489 -179 4 -6 8 -8
8 -3 0 15 304 -148 391 -210 26 -18 50 -33 53 -33 4 0 13 -6 21 -12 7 -7 45
-35 84 -63 39 -27 71 -53 71 -57 0 -4 6 -8 14 -8 8 0 16 -3 18 -7 2 -5 32 -33
68 -63 80 -67 166 -148 234 -219 77 -81 136 -139 168 -164 16 -12 39 -30 51
-40 38 -32 144 -90 210 -116 12 -4 33 -13 47 -19 44 -19 114 -37 177 -47 13
-2 41 -6 63 -10 72 -12 232 -7 325 11 17 4 36 7 43 7 6 0 12 4 12 8 0 4 8 6
17 5 9 -2 28 3 43 10 14 8 35 15 46 17 17 3 140 61 189 90 128 74 286 238 362
372 23 42 55 105 58 118 2 4 4 9 5 12 1 3 3 8 5 13 1 4 7 21 14 37 7 17 14 37
16 45 2 8 9 38 15 65 7 28 14 68 15 90 2 22 4 40 6 40 1 0 2 48 3 108 1 59 -1
107 -4 107 -3 0 -5 12 -6 28 -3 168 -121 415 -279 587 -20 22 -52 56 -69 75
-53 56 -245 240 -321 305 -38 33 -77 68 -87 78 -10 9 -22 17 -27 17 -5 0 -11
4 -13 9 -4 10 -183 153 -258 204 -30 21 -82 58 -115 82 -33 24 -65 44 -72 44
-6 1 -19 11 -27 23 -9 12 -16 19 -16 15 0 -5 -96 51 -136 80 -5 5 -19 13 -30
19 -86 48 -114 64 -149 84 -63 36 -322 164 -405 200 -41 18 -94 41 -117 51
-23 11 -45 19 -48 19 -4 0 -21 7 -38 15 -35 16 -146 58 -162 61 -5 1 -47 16
-92 32 -46 17 -83 28 -83 25 0 -3 -7 0 -15 7 -8 6 -19 9 -24 6 -5 -4 -12 -2
-15 3 -3 4 -20 12 -38 16 -18 4 -35 8 -38 9 -3 1 -11 5 -17 9 -7 5 -13 6 -13
3 0 -2 -29 4 -65 14 -36 10 -65 16 -65 13 0 -3 -7 0 -15 7 -8 6 -19 9 -25 5
-5 -3 -10 -2 -10 2 0 5 -8 9 -17 10 -53 4 -103 17 -103 26 0 6 -2 8 -5 5 -3
-3 -27 -1 -53 4 -26 5 -60 11 -77 13 -16 3 -41 7 -55 10 -33 8 -55 12 -115 21
-27 4 -57 9 -65 10 -8 2 -31 4 -50 5 -19 1 -39 4 -44 7 -5 3 -23 6 -40 7 -91
7 -204 18 -226 22 -30 5 -657 13 -662 8z"/>
<path d="M5526 6802 c-2 -1 -29 -4 -62 -7 -32 -3 -81 -10 -109 -15 -96 -18
-110 -21 -125 -25 -8 -2 -16 -4 -17 -5 -3 -3 -7 -4 -48 -14 -48 -12 -119 -39
-132 -49 -7 -5 -13 -7 -13 -3 0 18 -251 -127 -331 -191 -46 -37 -124 -109
-158 -148 -20 -21 -44 -47 -53 -57 -10 -10 -18 -22 -18 -27 0 -5 -7 -14 -15
-21 -32 -27 -178 -271 -175 -295 0 -3 -6 -18 -14 -34 -18 -34 -77 -201 -71
-201 3 0 0 -11 -5 -25 -5 -14 -12 -37 -15 -50 -3 -14 -7 -35 -10 -47 -17 -82
-29 -220 -29 -333 0 -97 10 -242 19 -267 2 -7 6 -26 9 -43 15 -92 23 -123 64
-245 30 -91 129 -300 143 -300 5 0 8 -3 7 -7 -4 -14 22 -55 67 -107 14 -16 25
-32 25 -36 0 -4 39 -47 88 -97 94 -97 228 -203 307 -243 28 -14 52 -28 55 -31
3 -4 41 -21 85 -39 44 -18 89 -36 100 -40 25 -11 91 -31 113 -35 9 -2 18 -4
20 -5 2 -3 6 -4 52 -13 67 -14 77 -15 131 -22 94 -13 121 -14 239 -14 171 1
230 3 230 11 0 3 8 5 17 4 9 -2 37 1 62 6 25 5 58 11 73 13 15 3 38 9 52 15
15 5 26 8 26 6 0 -5 103 27 170 54 254 99 489 290 644 523 42 62 76 119 76
125 0 7 5 12 10 12 6 0 9 3 8 8 -1 4 7 25 19 47 11 22 22 43 22 47 3 14 32 83
42 101 6 11 8 21 5 24 -3 3 0 15 6 27 12 22 22 57 43 156 2 8 4 15 5 15 1 0 3
11 5 25 1 14 6 45 10 70 5 25 8 60 8 78 0 17 3 32 6 32 7 0 5 260 -3 335 -3
28 -5 50 -6 50 -1 0 -3 9 -4 20 -3 22 -13 77 -21 115 -3 14 -7 35 -9 48 -3 12
-8 27 -11 32 -4 6 -8 21 -11 35 -2 13 -9 37 -16 52 -6 16 -13 37 -15 48 -7 39
-131 281 -160 313 -7 7 -13 17 -13 22 0 5 -14 25 -31 45 -17 19 -29 35 -26 35
3 0 -9 15 -26 33 -18 19 -44 47 -58 63 -170 194 -481 363 -759 414 -30 6 -66
12 -79 15 -69 13 -405 27 -415 17z"/>
</g>
</svg>
