<?xml version="1.0" standalone="no"?>
<!DOCTYPE svg PUBLIC "-//W3C//DTD SVG 20010904//EN"
 "http://www.w3.org/TR/2001/REC-SVG-20010904/DTD/svg10.dtd">
<svg version="1.0" xmlns="http://www.w3.org/2000/svg"
 width="700.000000pt" height="700.000000pt" viewBox="0 0 700.000000 700.000000"
 preserveAspectRatio="xMidYMid meet">
<metadata>
Created by potrace 1.14, written by Peter Selinger 2001-2017
</metadata>
<g transform="translate(0.000000,700.000000) scale(0.100000,-0.100000)"
fill="#000000" stroke="none">
<path d="M3160 6997 c-3 -3 -30 -8 -60 -11 -67 -8 -96 -12 -230 -37 -145 -26
-131 -23 -275 -62 -554 -152 -1001 -392 -1410 -760 -360 -325 -634 -685 -831
-1092 -111 -231 -189 -444 -255 -705 -24 -96 -67 -331 -75 -415 -2 -22 -7 -76
-11 -120 -10 -99 -10 -489 -1 -605 8 -92 26 -227 43 -320 3 -14 7 -41 10 -60
3 -19 17 -80 31 -135 14 -55 27 -109 29 -120 3 -11 18 -63 35 -115 176 -545
455 -1005 855 -1405 82 -83 166 -164 185 -180 198 -167 331 -263 500 -363 138
-80 427 -222 454 -222 7 0 16 -4 21 -9 13 -11 204 -82 325 -120 127 -40 312
-82 410 -95 19 -2 53 -7 75 -10 22 -3 56 -8 75 -11 182 -26 802 -26 882 -1 7
3 36 7 63 9 290 28 732 166 1055 328 170 85 387 216 485 291 236 180 484 410
636 588 35 41 66 77 69 80 46 46 246 345 315 470 164 298 318 711 369 990 3
14 10 50 16 80 6 30 13 73 16 95 3 22 7 51 10 65 25 154 25 874 -1 953 -2 6
-6 30 -9 52 -24 186 -136 604 -201 750 -8 17 -26 59 -40 95 -81 197 -242 485
-380 677 -342 477 -756 828 -1301 1101 -179 90 -506 213 -654 246 -14 3 -83
19 -154 35 -125 29 -158 35 -261 46 -27 3 -66 8 -85 10 -48 6 -725 17 -730 12z
m654 -1505 c127 -191 216 -287 381 -411 254 -191 512 -291 810 -317 82 -6 111
-22 124 -67 7 -24 9 -956 2 -963 -6 -7 -326 12 -373 22 -13 2 -36 6 -53 9
-317 48 -684 194 -985 392 -198 130 -380 289 -555 484 -71 79 -124 104 -154
73 -5 -5 -12 -171 -15 -369 -9 -545 -14 -599 -49 -609 -12 -3 -259 -5 -549 -4
l-527 1 0 541 c0 297 3 547 7 554 5 7 19 15 33 18 13 3 191 7 394 9 484 5 612
7 642 13 14 3 28 15 34 29 5 14 11 160 14 326 4 274 8 354 20 366 2 2 35 6 72
8 37 3 69 6 70 7 1 1 132 1 292 1 l290 0 75 -113z m1231 -2236 c38 -4 73 -10
77 -14 12 -13 20 -244 18 -587 0 -187 -3 -358 -4 -380 -2 -22 -4 -57 -5 -78
-1 -31 -6 -39 -28 -48 -17 -6 -214 -12 -513 -15 -267 -3 -496 -7 -510 -9 -14
-2 -30 -4 -36 -4 -21 -2 -25 -43 -29 -286 -5 -248 -12 -425 -18 -431 -7 -7
-204 -16 -377 -16 -248 -1 -334 3 -351 16 -8 6 -34 40 -58 76 -197 287 -391
462 -662 597 -79 39 -233 99 -279 108 -8 2 -49 10 -90 18 -41 9 -97 19 -125
23 -27 3 -79 12 -115 18 l-65 12 -3 497 -2 497 26 6 c25 6 249 -1 290 -10 12
-2 39 -7 60 -10 155 -24 274 -53 432 -106 400 -132 801 -392 1096 -710 142
-153 154 -163 183 -156 51 13 52 19 53 300 1 349 7 620 15 655 7 33 21 37 170
40 49 1 91 3 92 5 5 5 692 -2 758 -8z"/>
</g>
</svg>
