<?xml version="1.0" standalone="no"?>
<!DOCTYPE svg PUBLIC "-//W3C//DTD SVG 20010904//EN"
 "http://www.w3.org/TR/2001/REC-SVG-20010904/DTD/svg10.dtd">
<svg version="1.0" xmlns="http://www.w3.org/2000/svg"
 width="520.000000pt" height="520.000000pt" viewBox="0 0 520.000000 520.000000"
 preserveAspectRatio="xMidYMid meet">
<metadata>
Created by potrace 1.14, written by Peter Selinger 2001-2017
</metadata>
<g transform="translate(0.000000,520.000000) scale(0.100000,-0.100000)"
fill="#000000" stroke="none">
<path d="M1408 5195 c-2 -2 -25 -5 -53 -9 -93 -12 -120 -17 -225 -47 -107 -31
-123 -37 -246 -94 -211 -98 -430 -276 -572 -465 -32 -41 -61 -82 -67 -91 -20
-32 -59 -104 -60 -109 0 -3 -3 -10 -7 -16 -8 -12 -48 -113 -54 -134 -28 -109
-35 -148 -40 -220 -3 -47 -5 -91 -5 -97 1 -7 0 -32 0 -55 0 -24 -3 -792 -6
-1708 -5 -1646 -4 -1666 15 -1690 11 -14 33 -27 48 -29 16 -1 205 -3 420 -4
346 -1 395 1 417 15 13 9 26 27 29 40 2 13 4 778 3 1698 0 921 3 1700 8 1730
31 215 218 412 413 437 119 15 304 1 349 -26 6 -3 12 -6 15 -7 44 -8 141 -74
193 -129 40 -43 102 -160 111 -210 3 -16 9 -41 12 -55 3 -14 7 -605 9 -1315 1
-710 6 -1321 10 -1360 5 -38 9 -79 10 -90 5 -45 49 -198 72 -252 9 -21 17 -40
18 -43 8 -37 126 -225 186 -295 81 -95 281 -283 313 -294 6 -2 13 -7 16 -11
13 -17 109 -74 192 -114 111 -53 183 -80 275 -101 71 -17 82 -19 173 -32 67
-9 379 -10 435 0 22 3 56 9 75 11 63 9 132 27 230 58 289 92 576 297 776 553
90 117 171 302 189 435 4 30 9 64 12 75 2 11 6 853 9 1870 3 1490 2 1855 -8
1875 -28 54 -41 56 -454 54 -338 -1 -383 -3 -416 -18 -23 -11 -39 -27 -44 -44
-5 -15 -9 -828 -10 -1807 0 -979 -4 -1797 -8 -1818 -14 -86 -56 -174 -118
-247 -25 -29 -113 -96 -148 -112 -111 -51 -151 -60 -260 -61 -98 -1 -158 8
-235 38 -129 48 -238 138 -288 237 -58 116 -57 93 -57 1052 0 962 -7 1794 -14
1841 -27 171 -61 285 -123 410 -25 50 -49 92 -54 93 -5 2 -9 8 -9 13 0 14 -74
111 -133 175 -44 48 -141 135 -198 177 -41 32 -79 57 -83 57 -3 0 -21 11 -41
24 -61 42 -244 127 -346 162 -172 58 -325 82 -521 82 -70 0 -129 -2 -130 -3z"/>
</g>
</svg>
